<svg width="245" height="162" viewBox="0 0 245 162" fill="none" xmlns="http://www.w3.org/2000/svg">
<g opacity="0.4" clip-path="url(#clip0_96_18259)">
<path d="M17.9301 1.49999L57.5901 19.39L238.31 19.39L220.83 96.95L41.9001 96.95L1.50006 80.51" stroke="#EBEBEB" stroke-linecap="round" stroke-linejoin="round"/>
<path d="M57.59 19.3901L41.9 96.9501L45.11 159.52" stroke="#EBEBEB" stroke-linecap="round" stroke-linejoin="round"/>
<path d="M220.83 96.9502L226.92 159.52" stroke="#EBEBEB" stroke-linecap="round" stroke-linejoin="round"/>
<path d="M198.6 1.5L17.9301 1.49999L1.50009 80.51L8.87008 142.24L24.1601 65.22L205.4 64.08L198.6 1.5Z" stroke="#EBEBEB" stroke-width="2" stroke-linecap="round" stroke-linejoin="round"/>
<path d="M45.1101 159.52L226.92 159.52L243.06 81.0801L205.24 62.6201L189.54 142.24L8.87005 142.24L45.1101 159.52Z" stroke="#EBEBEB" stroke-width="2" stroke-linecap="round" stroke-linejoin="round"/>
<path d="M226.92 159.52L189.54 142.24" stroke="#EBEBEB" stroke-width="2" stroke-linecap="round" stroke-linejoin="round"/>
<path d="M198.6 1.5L238.25 18.49L243.06 81.08" stroke="#EBEBEB" stroke-width="2" stroke-linecap="round" stroke-linejoin="round"/>
<path d="M24.16 65.22L17.93 1.5" stroke="#EBEBEB" stroke-width="2" stroke-linecap="round" stroke-linejoin="round"/>
</g>
<defs>
<clipPath id="clip0_96_18259">
<rect width="161.02" height="244.56" fill="white" transform="translate(244.56) rotate(90)"/>
</clipPath>
</defs>
</svg>
