<svg width="114" height="29" viewBox="0 0 114 29" fill="none" xmlns="http://www.w3.org/2000/svg">
<path d="M100.515 17.6891L92.1064 1.71906H94.1017L101.905 16.5489L101.014 16.0858H104.684L103.793 16.5489L111.204 1.71906H113.128L105.076 17.6891H100.515ZM101.869 27.7288V17.1547H103.757V27.7288H101.869Z" fill="black"/>
<path d="M67.1301 27.7288V1.71906H70.6218V27.7288H67.1301Z" fill="black"/>
<path d="M27.804 27.7288V1.71906H33.6472V27.7288H27.804Z" fill="black"/>
<path fill-rule="evenodd" clip-rule="evenodd" d="M10.7608 21.6717H6.62713V9.15358L8.07583 7.70488H10.7608C11.8772 7.70488 12.8748 7.85928 13.7537 8.16807C14.6563 8.45311 15.4164 8.89254 16.034 9.48637C16.6516 10.0564 17.1266 10.7809 17.4592 11.6598C17.7917 12.5149 17.958 13.5125 17.958 14.6527C17.958 15.7453 17.7917 16.7311 17.4592 17.6099C17.1266 18.4651 16.6516 19.2014 16.034 19.819C15.4164 20.4128 14.6563 20.876 13.7537 21.2085C12.8748 21.5173 11.8772 21.6717 10.7608 21.6717ZM6.62713 1.50531H10.4757C12.8273 1.50531 14.8819 1.83785 16.6397 2.50294C18.4212 3.16803 19.9057 4.0944 21.0934 5.28206C22.2811 6.44597 23.1718 7.7999 23.7656 9.34385C24.3595 10.8878 24.6564 12.5268 24.6564 14.2608V15.0446C24.6564 16.6361 24.3595 18.2038 23.7656 19.7477C23.1718 21.2679 22.2811 22.6456 21.0934 23.8808C19.9057 25.0922 18.4212 26.0661 16.6397 26.8024C14.8819 27.515 12.8273 27.8713 10.4757 27.8713H6.62713H5.91454H0V1.50531H5.91454H6.62713Z" fill="black"/>
<path fill-rule="evenodd" clip-rule="evenodd" d="M44.3852 27.3012C46.0954 28.0375 48.067 28.4057 50.2997 28.4057C52.7938 28.4057 55.0029 27.9425 56.9269 27.0162C58.8509 26.066 60.3711 24.7477 61.4875 23.0613V20.1906L62.8584 18.8196H63.6609V15.0429H49.4803V18.8196H56.82V21.1332C56.2939 21.6778 55.6407 22.1346 54.8604 22.5744C53.5539 23.287 52.0337 23.6433 50.2997 23.6433C48.9933 23.6433 47.8175 23.4414 46.7724 23.0376C45.7273 22.6101 44.8365 22.1705 44.1002 21.3867C43.3638 20.5791 42.7938 19.6052 42.39 18.465C41.9861 17.3249 41.7842 16.0303 41.7842 14.5814C41.7842 13.2512 41.9624 12.0398 42.3187 10.9472C42.6987 9.85451 43.2332 8.91626 43.922 8.1324C44.6109 7.34855 45.4422 6.74284 46.4161 6.31529C47.4137 5.88773 48.5183 5.67395 49.7297 5.67395C50.9411 5.67395 52.0456 5.88773 53.0432 6.31529C54.0646 6.74284 54.9079 7.36042 55.5729 8.16803C56.238 8.95188 56.6537 9.90201 56.82 11.0184H61.915C61.725 9.02314 61.0956 7.27729 60.0267 5.78084C58.9578 4.26064 57.5445 3.08486 55.7867 2.2535C54.029 1.39838 52.01 0.970825 49.7297 0.970825C47.6156 0.970825 45.7391 1.35088 44.1002 2.11098C42.485 2.84732 41.1192 3.84496 40.0028 5.10387C38.9101 6.36279 38.0788 7.7761 37.5087 9.34381C36.9386 10.9115 36.6536 12.5149 36.6536 14.1538V14.9377C36.6536 16.6717 36.9386 18.3463 37.5087 19.9615C38.1025 21.5529 38.9695 22.99 40.1096 24.2727C41.2736 25.5316 42.6987 26.5411 44.3852 27.3012Z" fill="black"/>
<path fill-rule="evenodd" clip-rule="evenodd" d="M75.2092 1.71906V27.7288H77.9171V18.1075L88.7129 18.0741V15.6157L77.9171 15.6491V5.62161L79.3968 4.14188H89.3899V1.71906H77.9171H77.2045H75.2092Z" fill="black"/>
</svg>
