<svg width="1440" height="52" viewBox="0 0 1440 52" fill="none" xmlns="http://www.w3.org/2000/svg">
<rect width="2442.61" height="52" transform="translate(-354.994)" fill="#77FFC8"/>
<path d="M-92.2497 34.5V32.868H-90.1137V19.716H-92.2017V18.084H-86.8497V32.868H-84.6657V34.5H-92.2497ZM-78.8337 34.716C-79.6977 34.716 -80.4097 34.564 -80.9697 34.26C-81.5137 33.94 -81.9217 33.5 -82.1937 32.94C-82.4657 32.38 -82.6337 31.724 -82.6977 30.972L-82.7937 29.892C-82.8577 28.932 -83.0977 28.252 -83.5137 27.852C-83.9297 27.452 -84.5457 27.252 -85.3617 27.252H-86.8497V26.796H-83.1537C-81.8257 26.78 -80.8977 27.108 -80.3697 27.78C-79.8257 28.436 -79.5377 29.388 -79.5057 30.636L-79.4817 31.308C-79.4497 31.708 -79.3537 32.036 -79.1937 32.292C-79.0337 32.548 -78.7457 32.676 -78.3297 32.676C-77.9137 32.676 -77.6177 32.556 -77.4417 32.316C-77.2657 32.06 -77.1777 31.724 -77.1777 31.308V28.14H-75.2097V31.02C-75.2097 32.124 -75.4977 33.02 -76.0737 33.708C-76.6337 34.38 -77.5537 34.716 -78.8337 34.716ZM-86.8497 27.252V25.476H-82.4097C-81.3537 25.476 -80.5217 25.244 -79.9137 24.78C-79.2897 24.316 -78.9777 23.612 -78.9777 22.668C-78.9777 21.724 -79.2897 21.028 -79.9137 20.58C-80.5217 20.116 -81.3537 19.884 -82.4097 19.884H-86.8497V18.084H-81.4017C-79.6897 18.084 -78.3137 18.452 -77.2737 19.188C-76.2177 19.908 -75.6897 21.004 -75.6897 22.476C-75.6897 23.932 -76.2097 25.036 -77.2497 25.788C-78.2897 26.524 -79.6497 26.892 -81.3297 26.892H-83.0817L-83.4897 27.252H-86.8497ZM-66.8093 34.788C-68.0733 34.788 -69.1853 34.54 -70.1453 34.044C-71.0893 33.532 -71.8333 32.796 -72.3773 31.836C-72.9053 30.86 -73.1693 29.668 -73.1693 28.26C-73.1693 26.868 -72.9053 25.692 -72.3773 24.732C-71.8493 23.756 -71.1133 23.02 -70.1693 22.524C-69.2253 22.012 -68.1373 21.756 -66.9053 21.756L-66.8093 23.46C-67.4973 23.46 -68.0893 23.628 -68.5853 23.964C-69.0653 24.284 -69.4413 24.788 -69.7133 25.476C-69.9693 26.148 -70.0973 27.012 -70.0973 28.068C-70.0973 29.412 -69.7613 30.484 -69.0893 31.284C-68.4013 32.068 -67.4733 32.46 -66.3053 32.46C-65.6013 32.46 -65.0253 32.348 -64.5773 32.124C-64.1133 31.884 -63.7533 31.588 -63.4973 31.236C-63.2253 30.884 -63.0253 30.524 -62.8973 30.156H-60.9293C-60.9933 30.716 -61.1613 31.268 -61.4333 31.812C-61.6893 32.356 -62.0573 32.852 -62.5373 33.3C-63.0013 33.748 -63.5853 34.108 -64.2893 34.38C-64.9933 34.652 -65.8333 34.788 -66.8093 34.788ZM-71.7293 28.308V26.7H-63.8813L-60.7853 27.492V28.308H-71.7293ZM-63.8813 26.7C-63.8973 26.108 -64.0173 25.572 -64.2413 25.092C-64.4653 24.596 -64.7933 24.204 -65.2253 23.916C-65.6413 23.612 -66.1693 23.46 -66.8093 23.46L-66.9053 21.756C-65.5773 21.756 -64.4573 21.996 -63.5453 22.476C-62.6333 22.956 -61.9453 23.628 -61.4813 24.492C-61.0173 25.356 -60.7853 26.356 -60.7853 27.492L-63.8813 26.7ZM-49.6197 34.764C-50.8037 34.764 -51.7717 34.508 -52.5237 33.996C-53.2597 33.484 -53.8037 32.748 -54.1557 31.788C-54.4917 30.828 -54.6597 29.66 -54.6597 28.284L-54.8277 28.26C-54.8277 26.916 -54.6437 25.764 -54.2757 24.804C-53.9077 23.828 -53.3397 23.084 -52.5717 22.572C-51.7877 22.044 -50.8117 21.78 -49.6437 21.78C-48.5077 21.78 -47.5077 22.036 -46.6437 22.548C-45.7797 23.06 -45.1077 23.796 -44.6277 24.756C-44.1477 25.716 -43.9077 26.892 -43.9077 28.284C-43.9077 29.644 -44.1477 30.812 -44.6277 31.788C-45.1077 32.748 -45.7797 33.484 -46.6437 33.996C-47.5077 34.508 -48.4997 34.764 -49.6197 34.764ZM-50.6997 32.724C-49.9957 32.724 -49.3877 32.556 -48.8757 32.22C-48.3637 31.884 -47.9717 31.38 -47.6997 30.708C-47.4117 30.036 -47.2677 29.228 -47.2677 28.284C-47.2677 27.308 -47.4117 26.492 -47.6997 25.836C-47.9717 25.164 -48.3637 24.66 -48.8757 24.324C-49.3877 23.972 -49.9957 23.796 -50.6997 23.796C-51.4037 23.796 -52.0197 23.972 -52.5477 24.324C-53.0757 24.66 -53.4837 25.164 -53.7717 25.836C-54.0597 26.492 -54.2037 27.308 -54.2037 28.284C-54.2037 29.228 -54.0597 30.036 -53.7717 30.708C-53.4837 31.38 -53.0757 31.884 -52.5477 32.22C-52.0197 32.556 -51.4037 32.724 -50.6997 32.724ZM-59.0997 39.06V37.452H-57.1797V23.652H-58.9797V22.02H-54.2757V26.316L-54.4917 28.26L-54.0357 30.9V37.452H-51.7797V39.06H-59.0997ZM-35.3205 34.788C-36.5845 34.788 -37.6965 34.54 -38.6565 34.044C-39.6005 33.532 -40.3445 32.796 -40.8885 31.836C-41.4165 30.86 -41.6805 29.668 -41.6805 28.26C-41.6805 26.868 -41.4165 25.692 -40.8885 24.732C-40.3605 23.756 -39.6245 23.02 -38.6805 22.524C-37.7365 22.012 -36.6485 21.756 -35.4165 21.756L-35.3205 23.46C-36.0085 23.46 -36.6005 23.628 -37.0965 23.964C-37.5765 24.284 -37.9525 24.788 -38.2245 25.476C-38.4805 26.148 -38.6085 27.012 -38.6085 28.068C-38.6085 29.412 -38.2725 30.484 -37.6005 31.284C-36.9125 32.068 -35.9845 32.46 -34.8165 32.46C-34.1125 32.46 -33.5365 32.348 -33.0885 32.124C-32.6245 31.884 -32.2645 31.588 -32.0085 31.236C-31.7365 30.884 -31.5365 30.524 -31.4085 30.156H-29.4405C-29.5045 30.716 -29.6725 31.268 -29.9445 31.812C-30.2005 32.356 -30.5685 32.852 -31.0485 33.3C-31.5125 33.748 -32.0965 34.108 -32.8005 34.38C-33.5045 34.652 -34.3445 34.788 -35.3205 34.788ZM-40.2405 28.308V26.7H-32.3925L-29.2965 27.492V28.308H-40.2405ZM-32.3925 26.7C-32.4085 26.108 -32.5285 25.572 -32.7525 25.092C-32.9765 24.596 -33.3045 24.204 -33.7365 23.916C-34.1525 23.612 -34.6805 23.46 -35.3205 23.46L-35.4165 21.756C-34.0885 21.756 -32.9685 21.996 -32.0565 22.476C-31.1445 22.956 -30.4565 23.628 -29.9925 24.492C-29.5285 25.356 -29.2965 26.356 -29.2965 27.492L-32.3925 26.7ZM-24.2481 26.388C-24.7601 26.388 -25.2161 26.252 -25.6161 25.98C-26.0001 25.692 -26.1921 25.252 -26.1921 24.66C-26.1921 24.036 -25.9361 23.516 -25.4241 23.1C-24.8961 22.668 -24.2161 22.348 -23.3841 22.14C-22.5361 21.916 -21.6481 21.804 -20.7201 21.804C-19.1841 21.804 -18.0001 22.116 -17.1681 22.74C-16.3201 23.364 -15.9041 24.3 -15.9201 25.548L-18.8481 25.14C-18.8481 24.532 -19.0721 24.076 -19.5201 23.772C-19.9521 23.468 -20.5681 23.316 -21.3681 23.316C-21.8801 23.316 -22.3681 23.38 -22.8321 23.508C-23.2961 23.62 -23.6801 23.804 -23.9841 24.06C-24.2881 24.316 -24.4641 24.668 -24.5121 25.116L-24.4881 23.7C-23.9121 23.716 -23.4561 23.836 -23.1201 24.06C-22.7841 24.268 -22.6241 24.596 -22.6401 25.044C-22.6561 25.444 -22.8081 25.772 -23.0961 26.028C-23.3681 26.268 -23.7521 26.388 -24.2481 26.388ZM-15.0561 34.764C-16.1921 34.764 -17.0561 34.46 -17.6481 33.852C-18.2401 33.228 -18.5361 32.356 -18.5361 31.236V30.588H-18.8721V27.348H-18.9921L-18.8481 26.172V25.14L-15.9201 25.548V31.5C-15.9201 31.884 -15.8241 32.196 -15.6321 32.436C-15.4401 32.676 -15.1601 32.796 -14.7921 32.796C-14.4241 32.796 -14.1441 32.676 -13.9521 32.436C-13.7601 32.196 -13.6641 31.884 -13.6641 31.5V27.948H-11.6961V31.284C-11.6961 32.372 -11.9841 33.228 -12.5601 33.852C-13.1201 34.46 -13.9521 34.764 -15.0561 34.764ZM-23.0001 34.74C-24.2321 34.74 -25.2401 34.444 -26.0241 33.852C-26.7921 33.26 -27.1761 32.444 -27.1761 31.404C-27.1761 30.652 -27.0161 30.036 -26.6961 29.556C-26.3601 29.076 -25.9041 28.692 -25.3281 28.404C-24.7521 28.1 -24.0881 27.868 -23.3361 27.708L-21.2241 27.204C-20.7441 27.108 -20.3281 26.98 -19.9761 26.82C-19.6241 26.66 -19.3521 26.444 -19.1601 26.172C-18.9521 25.9 -18.8481 25.556 -18.8481 25.14L-18.7761 27.348H-18.8721C-19.0161 27.652 -19.2561 27.908 -19.5921 28.116C-19.9121 28.308 -20.3201 28.468 -20.8161 28.596L-21.6801 28.788C-22.1121 28.916 -22.5041 29.06 -22.8561 29.22C-23.1921 29.38 -23.4641 29.58 -23.6721 29.82C-23.8641 30.06 -23.9601 30.38 -23.9601 30.78C-23.9601 31.34 -23.7601 31.772 -23.3601 32.076C-22.9601 32.364 -22.4241 32.508 -21.7521 32.508C-21.2561 32.508 -20.7921 32.404 -20.3601 32.196C-19.9121 31.972 -19.5521 31.62 -19.2801 31.14C-19.0081 30.644 -18.8721 29.988 -18.8721 29.172L-18.1041 29.22C-18.1041 30.548 -18.3281 31.62 -18.7761 32.436C-19.2081 33.252 -19.7921 33.844 -20.5281 34.212C-21.2641 34.564 -22.0881 34.74 -23.0001 34.74ZM-4.48184 34.788C-6.01784 34.788 -7.13784 34.324 -7.84184 33.396C-8.54584 32.452 -8.85784 31.18 -8.77784 29.58L-8.53784 23.868H-11.8258V22.188H-11.0338C-10.1858 22.188 -9.52184 22.092 -9.04184 21.9C-8.56184 21.692 -8.21784 21.38 -8.00984 20.964C-7.80184 20.532 -7.69784 19.98 -7.69784 19.308V18.756H-5.68184V30.3C-5.68184 30.94 -5.52984 31.452 -5.22584 31.836C-4.92184 32.204 -4.48184 32.388 -3.90584 32.388C-3.29784 32.388 -2.84984 32.204 -2.56184 31.836C-2.27384 31.468 -2.12984 30.956 -2.12984 30.3V27.756H-0.137836V30.276C-0.137836 31.668 -0.497836 32.772 -1.21784 33.588C-1.92184 34.388 -3.00984 34.788 -4.48184 34.788ZM-5.68184 23.868V22.044H0.174164V23.868H-5.68184Z" fill="white"/>
<path d="M44.0063 27.3331L34.7833 33.4821C34.7081 33.5322 34.6206 33.5609 34.5302 33.5652C34.4399 33.5696 34.3501 33.5493 34.2703 33.5066C34.1906 33.4639 34.124 33.4004 34.0775 33.3228C34.031 33.2452 34.0064 33.1565 34.0063 33.0661V18.9341C34.0064 18.8436 34.031 18.7549 34.0775 18.6773C34.124 18.5997 34.1906 18.5362 34.2703 18.4935C34.3501 18.4508 34.4399 18.4306 34.5302 18.4349C34.6206 18.4392 34.7081 18.468 34.7833 18.5181L44.0063 24.6671V18.9341C44.0064 18.8436 44.031 18.7549 44.0775 18.6773C44.124 18.5997 44.1906 18.5362 44.2703 18.4935C44.3501 18.4508 44.4399 18.4306 44.5302 18.4349C44.6206 18.4392 44.7081 18.468 44.7833 18.5181L55.3823 25.5841C55.4508 25.6297 55.507 25.6916 55.5458 25.7642C55.5846 25.8367 55.605 25.9178 55.605 26.0001C55.605 26.0824 55.5846 26.1634 55.5458 26.236C55.507 26.3085 55.4508 26.3704 55.3823 26.4161L44.7833 33.4821C44.7081 33.5322 44.6206 33.5609 44.5302 33.5652C44.4399 33.5696 44.3501 33.5493 44.2703 33.5066C44.1906 33.4639 44.124 33.4004 44.0775 33.3228C44.031 33.2452 44.0064 33.1565 44.0063 33.0661V27.3331Z" fill="white"/>
<path d="M116.622 34V19H120.03V34H116.622ZM111.558 19.48V16.48H125.094V19.48H111.558ZM127.551 34V16.48H130.887V26.704H130.311C130.311 25.392 130.479 24.28 130.815 23.368C131.151 22.456 131.647 21.76 132.303 21.28C132.975 20.8 133.823 20.56 134.847 20.56H134.991C136.479 20.56 137.607 21.072 138.375 22.096C139.143 23.12 139.527 24.608 139.527 26.56V34H136.191V26.248C136.191 25.416 135.951 24.76 135.471 24.28C135.007 23.8 134.391 23.56 133.623 23.56C132.807 23.56 132.143 23.832 131.631 24.376C131.135 24.904 130.887 25.6 130.887 26.464V34H127.551ZM143.737 34V20.968H147.073V34H143.737ZM141.913 23.464V20.968H147.073V23.464H141.913ZM144.961 19.408C144.305 19.408 143.817 19.24 143.497 18.904C143.193 18.552 143.041 18.12 143.041 17.608C143.041 17.064 143.193 16.624 143.497 16.288C143.817 15.952 144.305 15.784 144.961 15.784C145.617 15.784 146.097 15.952 146.401 16.288C146.705 16.624 146.857 17.064 146.857 17.608C146.857 18.12 146.705 18.552 146.401 18.904C146.097 19.24 145.617 19.408 144.961 19.408ZM150.918 34V20.968H153.558V26.56H153.318C153.318 25.232 153.494 24.128 153.846 23.248C154.198 22.352 154.718 21.68 155.406 21.232C156.11 20.784 156.982 20.56 158.022 20.56H158.166C159.718 20.56 160.894 21.064 161.694 22.072C162.494 23.064 162.894 24.552 162.894 26.536V34H159.558V26.248C159.558 25.448 159.326 24.8 158.862 24.304C158.414 23.808 157.79 23.56 156.99 23.56C156.174 23.56 155.51 23.816 154.998 24.328C154.502 24.824 154.254 25.496 154.254 26.344V34H150.918ZM175.6 34L171.232 27.904H169.288L174.832 20.968H178.312L173.2 27.376L173.272 25.696L179.368 34H175.6ZM166.48 34V16.48H169.816V34H166.48Z" fill="black"/>
<path d="M212.166 34V16.48H216.822L221.214 26.944H221.646L226.014 16.48H230.742V34H227.358V19.048L227.79 19.096L223.062 30.424H219.582L214.83 19.096L215.286 19.048V34H212.166ZM235.425 34V20.968H238.761V34H235.425ZM233.601 23.464V20.968H238.761V23.464H233.601ZM236.649 19.408C235.993 19.408 235.505 19.24 235.185 18.904C234.881 18.552 234.729 18.12 234.729 17.608C234.729 17.064 234.881 16.624 235.185 16.288C235.505 15.952 235.993 15.784 236.649 15.784C237.305 15.784 237.785 15.952 238.089 16.288C238.393 16.624 238.545 17.064 238.545 17.608C238.545 18.12 238.393 18.552 238.089 18.904C237.785 19.24 237.305 19.408 236.649 19.408ZM242.605 34V20.968H245.245V26.56H245.005C245.005 25.232 245.181 24.128 245.533 23.248C245.885 22.352 246.405 21.68 247.093 21.232C247.797 20.784 248.669 20.56 249.709 20.56H249.853C251.405 20.56 252.581 21.064 253.381 22.072C254.181 23.064 254.581 24.552 254.581 26.536V34H251.245V26.248C251.245 25.448 251.013 24.8 250.549 24.304C250.101 23.808 249.477 23.56 248.677 23.56C247.861 23.56 247.197 23.816 246.685 24.328C246.189 24.824 245.941 25.496 245.941 26.344V34H242.605ZM263.832 34.168C262.632 34.168 261.64 34.016 260.856 33.712C260.088 33.392 259.512 32.864 259.128 32.128C258.744 31.376 258.552 30.368 258.552 29.104L258.576 17.296H261.696L261.672 29.32C261.672 29.96 261.84 30.456 262.176 30.808C262.528 31.144 263.024 31.312 263.664 31.312H265.704V34.168H263.832ZM256.488 23.416V20.968H265.704V23.416H256.488Z" fill="black"/>
<path d="M305.142 34.456C303.59 34.456 302.278 34.208 301.206 33.712C300.15 33.216 299.342 32.536 298.782 31.672C298.222 30.792 297.942 29.8 297.942 28.696H301.278C301.278 29.16 301.406 29.616 301.662 30.064C301.918 30.496 302.326 30.848 302.886 31.12C303.462 31.392 304.214 31.528 305.142 31.528C305.974 31.528 306.67 31.408 307.23 31.168C307.79 30.928 308.206 30.616 308.478 30.232C308.75 29.832 308.886 29.384 308.886 28.888C308.886 28.264 308.622 27.768 308.094 27.4C307.566 27.016 306.75 26.776 305.646 26.68L304.11 26.56C302.43 26.416 301.086 25.896 300.078 25C299.086 24.088 298.59 22.888 298.59 21.4C298.59 20.28 298.854 19.32 299.382 18.52C299.91 17.704 300.646 17.08 301.59 16.648C302.55 16.2 303.67 15.976 304.95 15.976C306.278 15.976 307.422 16.208 308.382 16.672C309.342 17.136 310.086 17.792 310.614 18.64C311.142 19.472 311.406 20.456 311.406 21.592H308.07C308.07 21.112 307.95 20.672 307.71 20.272C307.486 19.856 307.142 19.528 306.678 19.288C306.23 19.032 305.654 18.904 304.95 18.904C304.278 18.904 303.718 19.016 303.27 19.24C302.822 19.464 302.486 19.768 302.262 20.152C302.038 20.536 301.926 20.952 301.926 21.4C301.926 21.944 302.126 22.424 302.526 22.84C302.926 23.24 303.558 23.472 304.422 23.536L305.958 23.68C307.206 23.776 308.302 24.04 309.246 24.472C310.19 24.904 310.918 25.488 311.43 26.224C311.958 26.96 312.222 27.848 312.222 28.888C312.222 29.992 311.934 30.968 311.358 31.816C310.782 32.648 309.958 33.296 308.886 33.76C307.83 34.224 306.582 34.456 305.142 34.456ZM320.906 34.456C319.786 34.456 318.802 34.264 317.954 33.88C317.122 33.496 316.426 32.984 315.866 32.344C315.322 31.688 314.906 30.96 314.618 30.16C314.346 29.36 314.21 28.544 314.21 27.712V27.256C314.21 26.392 314.346 25.56 314.618 24.76C314.906 23.944 315.322 23.224 315.866 22.6C316.426 21.96 317.114 21.456 317.93 21.088C318.746 20.704 319.69 20.512 320.762 20.512C322.17 20.512 323.346 20.824 324.29 21.448C325.25 22.056 325.97 22.864 326.45 23.872C326.93 24.864 327.17 25.936 327.17 27.088V28.288H315.626V26.248H325.082L324.05 27.256C324.05 26.424 323.93 25.712 323.69 25.12C323.45 24.528 323.082 24.072 322.586 23.752C322.106 23.432 321.498 23.272 320.762 23.272C320.026 23.272 319.402 23.44 318.89 23.776C318.378 24.112 317.986 24.6 317.714 25.24C317.458 25.864 317.33 26.616 317.33 27.496C317.33 28.312 317.458 29.04 317.714 29.68C317.97 30.304 318.362 30.8 318.89 31.168C319.418 31.52 320.09 31.696 320.906 31.696C321.722 31.696 322.386 31.536 322.898 31.216C323.41 30.88 323.738 30.472 323.882 29.992H326.954C326.762 30.888 326.394 31.672 325.85 32.344C325.306 33.016 324.61 33.536 323.762 33.904C322.93 34.272 321.978 34.456 320.906 34.456ZM330.125 34V16.48H333.461V34H330.125ZM328.493 18.976V16.48H333.461V18.976H328.493ZM337.438 34V16.48H340.774V34H337.438ZM335.806 18.976V16.48H340.774V18.976H335.806Z" fill="black"/>
<path d="M373.75 34.5V32.868H375.886V19.716H373.798V18.084H379.15V32.868H381.334V34.5H373.75ZM387.166 34.716C386.302 34.716 385.59 34.564 385.03 34.26C384.486 33.94 384.078 33.5 383.806 32.94C383.534 32.38 383.366 31.724 383.302 30.972L383.206 29.892C383.142 28.932 382.902 28.252 382.486 27.852C382.07 27.452 381.454 27.252 380.638 27.252H379.15V26.796H382.846C384.174 26.78 385.102 27.108 385.63 27.78C386.174 28.436 386.462 29.388 386.494 30.636L386.518 31.308C386.55 31.708 386.646 32.036 386.806 32.292C386.966 32.548 387.254 32.676 387.67 32.676C388.086 32.676 388.382 32.556 388.558 32.316C388.734 32.06 388.822 31.724 388.822 31.308V28.14H390.79V31.02C390.79 32.124 390.502 33.02 389.926 33.708C389.366 34.38 388.446 34.716 387.166 34.716ZM379.15 27.252V25.476H383.59C384.646 25.476 385.478 25.244 386.086 24.78C386.71 24.316 387.022 23.612 387.022 22.668C387.022 21.724 386.71 21.028 386.086 20.58C385.478 20.116 384.646 19.884 383.59 19.884H379.15V18.084H384.598C386.31 18.084 387.686 18.452 388.726 19.188C389.782 19.908 390.31 21.004 390.31 22.476C390.31 23.932 389.79 25.036 388.75 25.788C387.71 26.524 386.35 26.892 384.67 26.892H382.918L382.51 27.252H379.15ZM399.191 34.788C397.927 34.788 396.815 34.54 395.855 34.044C394.911 33.532 394.167 32.796 393.623 31.836C393.095 30.86 392.831 29.668 392.831 28.26C392.831 26.868 393.095 25.692 393.623 24.732C394.151 23.756 394.887 23.02 395.831 22.524C396.775 22.012 397.863 21.756 399.095 21.756L399.191 23.46C398.503 23.46 397.911 23.628 397.415 23.964C396.935 24.284 396.559 24.788 396.287 25.476C396.031 26.148 395.903 27.012 395.903 28.068C395.903 29.412 396.239 30.484 396.911 31.284C397.599 32.068 398.527 32.46 399.695 32.46C400.399 32.46 400.975 32.348 401.423 32.124C401.887 31.884 402.247 31.588 402.503 31.236C402.775 30.884 402.975 30.524 403.103 30.156H405.071C405.007 30.716 404.839 31.268 404.567 31.812C404.311 32.356 403.943 32.852 403.463 33.3C402.999 33.748 402.415 34.108 401.711 34.38C401.007 34.652 400.167 34.788 399.191 34.788ZM394.271 28.308V26.7H402.119L405.215 27.492V28.308H394.271ZM402.119 26.7C402.103 26.108 401.983 25.572 401.759 25.092C401.535 24.596 401.207 24.204 400.775 23.916C400.359 23.612 399.831 23.46 399.191 23.46L399.095 21.756C400.423 21.756 401.543 21.996 402.455 22.476C403.367 22.956 404.055 23.628 404.519 24.492C404.983 25.356 405.215 26.356 405.215 27.492L402.119 26.7ZM416.38 34.764C415.196 34.764 414.228 34.508 413.476 33.996C412.74 33.484 412.196 32.748 411.844 31.788C411.508 30.828 411.34 29.66 411.34 28.284L411.172 28.26C411.172 26.916 411.356 25.764 411.724 24.804C412.092 23.828 412.66 23.084 413.428 22.572C414.212 22.044 415.188 21.78 416.356 21.78C417.492 21.78 418.492 22.036 419.356 22.548C420.22 23.06 420.892 23.796 421.372 24.756C421.852 25.716 422.092 26.892 422.092 28.284C422.092 29.644 421.852 30.812 421.372 31.788C420.892 32.748 420.22 33.484 419.356 33.996C418.492 34.508 417.5 34.764 416.38 34.764ZM415.3 32.724C416.004 32.724 416.612 32.556 417.124 32.22C417.636 31.884 418.028 31.38 418.3 30.708C418.588 30.036 418.732 29.228 418.732 28.284C418.732 27.308 418.588 26.492 418.3 25.836C418.028 25.164 417.636 24.66 417.124 24.324C416.612 23.972 416.004 23.796 415.3 23.796C414.596 23.796 413.98 23.972 413.452 24.324C412.924 24.66 412.516 25.164 412.228 25.836C411.94 26.492 411.796 27.308 411.796 28.284C411.796 29.228 411.94 30.036 412.228 30.708C412.516 31.38 412.924 31.884 413.452 32.22C413.98 32.556 414.596 32.724 415.3 32.724ZM406.9 39.06V37.452H408.82V23.652H407.02V22.02H411.724V26.316L411.508 28.26L411.964 30.9V37.452H414.22V39.06H406.9ZM430.679 34.788C429.415 34.788 428.303 34.54 427.343 34.044C426.399 33.532 425.655 32.796 425.111 31.836C424.583 30.86 424.319 29.668 424.319 28.26C424.319 26.868 424.583 25.692 425.111 24.732C425.639 23.756 426.375 23.02 427.319 22.524C428.263 22.012 429.351 21.756 430.583 21.756L430.679 23.46C429.991 23.46 429.399 23.628 428.903 23.964C428.423 24.284 428.047 24.788 427.775 25.476C427.519 26.148 427.391 27.012 427.391 28.068C427.391 29.412 427.727 30.484 428.399 31.284C429.087 32.068 430.015 32.46 431.183 32.46C431.887 32.46 432.463 32.348 432.911 32.124C433.375 31.884 433.735 31.588 433.991 31.236C434.263 30.884 434.463 30.524 434.591 30.156H436.559C436.495 30.716 436.327 31.268 436.055 31.812C435.799 32.356 435.431 32.852 434.951 33.3C434.487 33.748 433.903 34.108 433.199 34.38C432.495 34.652 431.655 34.788 430.679 34.788ZM425.759 28.308V26.7H433.607L436.703 27.492V28.308H425.759ZM433.607 26.7C433.591 26.108 433.471 25.572 433.247 25.092C433.023 24.596 432.695 24.204 432.263 23.916C431.847 23.612 431.319 23.46 430.679 23.46L430.583 21.756C431.911 21.756 433.031 21.996 433.943 22.476C434.855 22.956 435.543 23.628 436.007 24.492C436.471 25.356 436.703 26.356 436.703 27.492L433.607 26.7ZM441.752 26.388C441.24 26.388 440.784 26.252 440.384 25.98C440 25.692 439.808 25.252 439.808 24.66C439.808 24.036 440.064 23.516 440.576 23.1C441.104 22.668 441.784 22.348 442.616 22.14C443.464 21.916 444.352 21.804 445.28 21.804C446.816 21.804 448 22.116 448.832 22.74C449.68 23.364 450.096 24.3 450.08 25.548L447.152 25.14C447.152 24.532 446.928 24.076 446.48 23.772C446.048 23.468 445.432 23.316 444.632 23.316C444.12 23.316 443.632 23.38 443.168 23.508C442.704 23.62 442.32 23.804 442.016 24.06C441.712 24.316 441.536 24.668 441.488 25.116L441.512 23.7C442.088 23.716 442.544 23.836 442.88 24.06C443.216 24.268 443.376 24.596 443.36 25.044C443.344 25.444 443.192 25.772 442.904 26.028C442.632 26.268 442.248 26.388 441.752 26.388ZM450.944 34.764C449.808 34.764 448.944 34.46 448.352 33.852C447.76 33.228 447.464 32.356 447.464 31.236V30.588H447.128V27.348H447.008L447.152 26.172V25.14L450.08 25.548V31.5C450.08 31.884 450.176 32.196 450.368 32.436C450.56 32.676 450.84 32.796 451.208 32.796C451.576 32.796 451.856 32.676 452.048 32.436C452.24 32.196 452.336 31.884 452.336 31.5V27.948H454.304V31.284C454.304 32.372 454.016 33.228 453.44 33.852C452.88 34.46 452.048 34.764 450.944 34.764ZM443 34.74C441.768 34.74 440.76 34.444 439.976 33.852C439.208 33.26 438.824 32.444 438.824 31.404C438.824 30.652 438.984 30.036 439.304 29.556C439.64 29.076 440.096 28.692 440.672 28.404C441.248 28.1 441.912 27.868 442.664 27.708L444.776 27.204C445.256 27.108 445.672 26.98 446.024 26.82C446.376 26.66 446.648 26.444 446.84 26.172C447.048 25.9 447.152 25.556 447.152 25.14L447.224 27.348H447.128C446.984 27.652 446.744 27.908 446.408 28.116C446.088 28.308 445.68 28.468 445.184 28.596L444.32 28.788C443.888 28.916 443.496 29.06 443.144 29.22C442.808 29.38 442.536 29.58 442.328 29.82C442.136 30.06 442.04 30.38 442.04 30.78C442.04 31.34 442.24 31.772 442.64 32.076C443.04 32.364 443.576 32.508 444.248 32.508C444.744 32.508 445.208 32.404 445.64 32.196C446.088 31.972 446.448 31.62 446.72 31.14C446.992 30.644 447.128 29.988 447.128 29.172L447.896 29.22C447.896 30.548 447.672 31.62 447.224 32.436C446.792 33.252 446.208 33.844 445.472 34.212C444.736 34.564 443.912 34.74 443 34.74ZM461.518 34.788C459.982 34.788 458.862 34.324 458.158 33.396C457.454 32.452 457.142 31.18 457.222 29.58L457.462 23.868H454.174V22.188H454.966C455.814 22.188 456.478 22.092 456.958 21.9C457.438 21.692 457.782 21.38 457.99 20.964C458.198 20.532 458.302 19.98 458.302 19.308V18.756H460.318V30.3C460.318 30.94 460.47 31.452 460.774 31.836C461.078 32.204 461.518 32.388 462.094 32.388C462.702 32.388 463.15 32.204 463.438 31.836C463.726 31.468 463.87 30.956 463.87 30.3V27.756H465.862V30.276C465.862 31.668 465.502 32.772 464.782 33.588C464.078 34.388 462.99 34.788 461.518 34.788ZM460.318 23.868V22.044H466.174V23.868H460.318Z" fill="white"/>
<path d="M510.006 27.3331L500.783 33.4821C500.708 33.5322 500.621 33.5609 500.53 33.5652C500.44 33.5696 500.35 33.5493 500.27 33.5066C500.191 33.4639 500.124 33.4004 500.077 33.3228C500.031 33.2452 500.006 33.1565 500.006 33.0661V18.9341C500.006 18.8436 500.031 18.7549 500.077 18.6773C500.124 18.5997 500.191 18.5362 500.27 18.4935C500.35 18.4508 500.44 18.4306 500.53 18.4349C500.621 18.4392 500.708 18.468 500.783 18.5181L510.006 24.6671V18.9341C510.006 18.8436 510.031 18.7549 510.077 18.6773C510.124 18.5997 510.191 18.5362 510.27 18.4935C510.35 18.4508 510.44 18.4306 510.53 18.4349C510.621 18.4392 510.708 18.468 510.783 18.5181L521.382 25.5841C521.451 25.6297 521.507 25.6916 521.546 25.7642C521.585 25.8367 521.605 25.9178 521.605 26.0001C521.605 26.0824 521.585 26.1634 521.546 26.236C521.507 26.3085 521.451 26.3704 521.382 26.4161L510.783 33.4821C510.708 33.5322 510.621 33.5609 510.53 33.5652C510.44 33.5696 510.35 33.5493 510.27 33.5066C510.191 33.4639 510.124 33.4004 510.077 33.3228C510.031 33.2452 510.006 33.1565 510.006 33.0661V27.3331Z" fill="white"/>
<path d="M582.622 34V19H586.03V34H582.622ZM577.558 19.48V16.48H591.094V19.48H577.558ZM593.551 34V16.48H596.887V26.704H596.311C596.311 25.392 596.479 24.28 596.815 23.368C597.151 22.456 597.647 21.76 598.303 21.28C598.975 20.8 599.823 20.56 600.847 20.56H600.991C602.479 20.56 603.607 21.072 604.375 22.096C605.143 23.12 605.527 24.608 605.527 26.56V34H602.191V26.248C602.191 25.416 601.951 24.76 601.471 24.28C601.007 23.8 600.391 23.56 599.623 23.56C598.807 23.56 598.143 23.832 597.631 24.376C597.135 24.904 596.887 25.6 596.887 26.464V34H593.551ZM609.737 34V20.968H613.073V34H609.737ZM607.913 23.464V20.968H613.073V23.464H607.913ZM610.961 19.408C610.305 19.408 609.817 19.24 609.497 18.904C609.193 18.552 609.041 18.12 609.041 17.608C609.041 17.064 609.193 16.624 609.497 16.288C609.817 15.952 610.305 15.784 610.961 15.784C611.617 15.784 612.097 15.952 612.401 16.288C612.705 16.624 612.857 17.064 612.857 17.608C612.857 18.12 612.705 18.552 612.401 18.904C612.097 19.24 611.617 19.408 610.961 19.408ZM616.918 34V20.968H619.558V26.56H619.318C619.318 25.232 619.494 24.128 619.846 23.248C620.198 22.352 620.718 21.68 621.406 21.232C622.11 20.784 622.982 20.56 624.022 20.56H624.166C625.718 20.56 626.894 21.064 627.694 22.072C628.494 23.064 628.894 24.552 628.894 26.536V34H625.558V26.248C625.558 25.448 625.326 24.8 624.862 24.304C624.414 23.808 623.79 23.56 622.99 23.56C622.174 23.56 621.51 23.816 620.998 24.328C620.502 24.824 620.254 25.496 620.254 26.344V34H616.918ZM641.6 34L637.232 27.904H635.288L640.832 20.968H644.312L639.2 27.376L639.272 25.696L645.368 34H641.6ZM632.48 34V16.48H635.816V34H632.48Z" fill="black"/>
<path d="M678.166 34V16.48H682.822L687.214 26.944H687.646L692.014 16.48H696.742V34H693.358V19.048L693.79 19.096L689.062 30.424H685.582L680.83 19.096L681.286 19.048V34H678.166ZM701.425 34V20.968H704.761V34H701.425ZM699.601 23.464V20.968H704.761V23.464H699.601ZM702.649 19.408C701.993 19.408 701.505 19.24 701.185 18.904C700.881 18.552 700.729 18.12 700.729 17.608C700.729 17.064 700.881 16.624 701.185 16.288C701.505 15.952 701.993 15.784 702.649 15.784C703.305 15.784 703.785 15.952 704.089 16.288C704.393 16.624 704.545 17.064 704.545 17.608C704.545 18.12 704.393 18.552 704.089 18.904C703.785 19.24 703.305 19.408 702.649 19.408ZM708.605 34V20.968H711.245V26.56H711.005C711.005 25.232 711.181 24.128 711.533 23.248C711.885 22.352 712.405 21.68 713.093 21.232C713.797 20.784 714.669 20.56 715.709 20.56H715.853C717.405 20.56 718.581 21.064 719.381 22.072C720.181 23.064 720.581 24.552 720.581 26.536V34H717.245V26.248C717.245 25.448 717.013 24.8 716.549 24.304C716.101 23.808 715.477 23.56 714.677 23.56C713.861 23.56 713.197 23.816 712.685 24.328C712.189 24.824 711.941 25.496 711.941 26.344V34H708.605ZM729.832 34.168C728.632 34.168 727.64 34.016 726.856 33.712C726.088 33.392 725.512 32.864 725.128 32.128C724.744 31.376 724.552 30.368 724.552 29.104L724.576 17.296H727.696L727.672 29.32C727.672 29.96 727.84 30.456 728.176 30.808C728.528 31.144 729.024 31.312 729.664 31.312H731.704V34.168H729.832ZM722.488 23.416V20.968H731.704V23.416H722.488Z" fill="black"/>
<path d="M771.142 34.456C769.59 34.456 768.278 34.208 767.206 33.712C766.15 33.216 765.342 32.536 764.782 31.672C764.222 30.792 763.942 29.8 763.942 28.696H767.278C767.278 29.16 767.406 29.616 767.662 30.064C767.918 30.496 768.326 30.848 768.886 31.12C769.462 31.392 770.214 31.528 771.142 31.528C771.974 31.528 772.67 31.408 773.23 31.168C773.79 30.928 774.206 30.616 774.478 30.232C774.75 29.832 774.886 29.384 774.886 28.888C774.886 28.264 774.622 27.768 774.094 27.4C773.566 27.016 772.75 26.776 771.646 26.68L770.11 26.56C768.43 26.416 767.086 25.896 766.078 25C765.086 24.088 764.59 22.888 764.59 21.4C764.59 20.28 764.854 19.32 765.382 18.52C765.91 17.704 766.646 17.08 767.59 16.648C768.55 16.2 769.67 15.976 770.95 15.976C772.278 15.976 773.422 16.208 774.382 16.672C775.342 17.136 776.086 17.792 776.614 18.64C777.142 19.472 777.406 20.456 777.406 21.592H774.07C774.07 21.112 773.95 20.672 773.71 20.272C773.486 19.856 773.142 19.528 772.678 19.288C772.23 19.032 771.654 18.904 770.95 18.904C770.278 18.904 769.718 19.016 769.27 19.24C768.822 19.464 768.486 19.768 768.262 20.152C768.038 20.536 767.926 20.952 767.926 21.4C767.926 21.944 768.126 22.424 768.526 22.84C768.926 23.24 769.558 23.472 770.422 23.536L771.958 23.68C773.206 23.776 774.302 24.04 775.246 24.472C776.19 24.904 776.918 25.488 777.43 26.224C777.958 26.96 778.222 27.848 778.222 28.888C778.222 29.992 777.934 30.968 777.358 31.816C776.782 32.648 775.958 33.296 774.886 33.76C773.83 34.224 772.582 34.456 771.142 34.456ZM786.906 34.456C785.786 34.456 784.802 34.264 783.954 33.88C783.122 33.496 782.426 32.984 781.866 32.344C781.322 31.688 780.906 30.96 780.618 30.16C780.346 29.36 780.21 28.544 780.21 27.712V27.256C780.21 26.392 780.346 25.56 780.618 24.76C780.906 23.944 781.322 23.224 781.866 22.6C782.426 21.96 783.114 21.456 783.93 21.088C784.746 20.704 785.69 20.512 786.762 20.512C788.17 20.512 789.346 20.824 790.29 21.448C791.25 22.056 791.97 22.864 792.45 23.872C792.93 24.864 793.17 25.936 793.17 27.088V28.288H781.626V26.248H791.082L790.05 27.256C790.05 26.424 789.93 25.712 789.69 25.12C789.45 24.528 789.082 24.072 788.586 23.752C788.106 23.432 787.498 23.272 786.762 23.272C786.026 23.272 785.402 23.44 784.89 23.776C784.378 24.112 783.986 24.6 783.714 25.24C783.458 25.864 783.33 26.616 783.33 27.496C783.33 28.312 783.458 29.04 783.714 29.68C783.97 30.304 784.362 30.8 784.89 31.168C785.418 31.52 786.09 31.696 786.906 31.696C787.722 31.696 788.386 31.536 788.898 31.216C789.41 30.88 789.738 30.472 789.882 29.992H792.954C792.762 30.888 792.394 31.672 791.85 32.344C791.306 33.016 790.61 33.536 789.762 33.904C788.93 34.272 787.978 34.456 786.906 34.456ZM796.125 34V16.48H799.461V34H796.125ZM794.493 18.976V16.48H799.461V18.976H794.493ZM803.438 34V16.48H806.774V34H803.438ZM801.806 18.976V16.48H806.774V18.976H801.806Z" fill="black"/>
<path d="M839.75 34.5V32.868H841.886V19.716H839.798V18.084H845.15V32.868H847.334V34.5H839.75ZM853.166 34.716C852.302 34.716 851.59 34.564 851.03 34.26C850.486 33.94 850.078 33.5 849.806 32.94C849.534 32.38 849.366 31.724 849.302 30.972L849.206 29.892C849.142 28.932 848.902 28.252 848.486 27.852C848.07 27.452 847.454 27.252 846.638 27.252H845.15V26.796H848.846C850.174 26.78 851.102 27.108 851.63 27.78C852.174 28.436 852.462 29.388 852.494 30.636L852.518 31.308C852.55 31.708 852.646 32.036 852.806 32.292C852.966 32.548 853.254 32.676 853.67 32.676C854.086 32.676 854.382 32.556 854.558 32.316C854.734 32.06 854.822 31.724 854.822 31.308V28.14H856.79V31.02C856.79 32.124 856.502 33.02 855.926 33.708C855.366 34.38 854.446 34.716 853.166 34.716ZM845.15 27.252V25.476H849.59C850.646 25.476 851.478 25.244 852.086 24.78C852.71 24.316 853.022 23.612 853.022 22.668C853.022 21.724 852.71 21.028 852.086 20.58C851.478 20.116 850.646 19.884 849.59 19.884H845.15V18.084H850.598C852.31 18.084 853.686 18.452 854.726 19.188C855.782 19.908 856.31 21.004 856.31 22.476C856.31 23.932 855.79 25.036 854.75 25.788C853.71 26.524 852.35 26.892 850.67 26.892H848.918L848.51 27.252H845.15ZM865.191 34.788C863.927 34.788 862.815 34.54 861.855 34.044C860.911 33.532 860.167 32.796 859.623 31.836C859.095 30.86 858.831 29.668 858.831 28.26C858.831 26.868 859.095 25.692 859.623 24.732C860.151 23.756 860.887 23.02 861.831 22.524C862.775 22.012 863.863 21.756 865.095 21.756L865.191 23.46C864.503 23.46 863.911 23.628 863.415 23.964C862.935 24.284 862.559 24.788 862.287 25.476C862.031 26.148 861.903 27.012 861.903 28.068C861.903 29.412 862.239 30.484 862.911 31.284C863.599 32.068 864.527 32.46 865.695 32.46C866.399 32.46 866.975 32.348 867.423 32.124C867.887 31.884 868.247 31.588 868.503 31.236C868.775 30.884 868.975 30.524 869.103 30.156H871.071C871.007 30.716 870.839 31.268 870.567 31.812C870.311 32.356 869.943 32.852 869.463 33.3C868.999 33.748 868.415 34.108 867.711 34.38C867.007 34.652 866.167 34.788 865.191 34.788ZM860.271 28.308V26.7H868.119L871.215 27.492V28.308H860.271ZM868.119 26.7C868.103 26.108 867.983 25.572 867.759 25.092C867.535 24.596 867.207 24.204 866.775 23.916C866.359 23.612 865.831 23.46 865.191 23.46L865.095 21.756C866.423 21.756 867.543 21.996 868.455 22.476C869.367 22.956 870.055 23.628 870.519 24.492C870.983 25.356 871.215 26.356 871.215 27.492L868.119 26.7ZM882.38 34.764C881.196 34.764 880.228 34.508 879.476 33.996C878.74 33.484 878.196 32.748 877.844 31.788C877.508 30.828 877.34 29.66 877.34 28.284L877.172 28.26C877.172 26.916 877.356 25.764 877.724 24.804C878.092 23.828 878.66 23.084 879.428 22.572C880.212 22.044 881.188 21.78 882.356 21.78C883.492 21.78 884.492 22.036 885.356 22.548C886.22 23.06 886.892 23.796 887.372 24.756C887.852 25.716 888.092 26.892 888.092 28.284C888.092 29.644 887.852 30.812 887.372 31.788C886.892 32.748 886.22 33.484 885.356 33.996C884.492 34.508 883.5 34.764 882.38 34.764ZM881.3 32.724C882.004 32.724 882.612 32.556 883.124 32.22C883.636 31.884 884.028 31.38 884.3 30.708C884.588 30.036 884.732 29.228 884.732 28.284C884.732 27.308 884.588 26.492 884.3 25.836C884.028 25.164 883.636 24.66 883.124 24.324C882.612 23.972 882.004 23.796 881.3 23.796C880.596 23.796 879.98 23.972 879.452 24.324C878.924 24.66 878.516 25.164 878.228 25.836C877.94 26.492 877.796 27.308 877.796 28.284C877.796 29.228 877.94 30.036 878.228 30.708C878.516 31.38 878.924 31.884 879.452 32.22C879.98 32.556 880.596 32.724 881.3 32.724ZM872.9 39.06V37.452H874.82V23.652H873.02V22.02H877.724V26.316L877.508 28.26L877.964 30.9V37.452H880.22V39.06H872.9ZM896.679 34.788C895.415 34.788 894.303 34.54 893.343 34.044C892.399 33.532 891.655 32.796 891.111 31.836C890.583 30.86 890.319 29.668 890.319 28.26C890.319 26.868 890.583 25.692 891.111 24.732C891.639 23.756 892.375 23.02 893.319 22.524C894.263 22.012 895.351 21.756 896.583 21.756L896.679 23.46C895.991 23.46 895.399 23.628 894.903 23.964C894.423 24.284 894.047 24.788 893.775 25.476C893.519 26.148 893.391 27.012 893.391 28.068C893.391 29.412 893.727 30.484 894.399 31.284C895.087 32.068 896.015 32.46 897.183 32.46C897.887 32.46 898.463 32.348 898.911 32.124C899.375 31.884 899.735 31.588 899.991 31.236C900.263 30.884 900.463 30.524 900.591 30.156H902.559C902.495 30.716 902.327 31.268 902.055 31.812C901.799 32.356 901.431 32.852 900.951 33.3C900.487 33.748 899.903 34.108 899.199 34.38C898.495 34.652 897.655 34.788 896.679 34.788ZM891.759 28.308V26.7H899.607L902.703 27.492V28.308H891.759ZM899.607 26.7C899.591 26.108 899.471 25.572 899.247 25.092C899.023 24.596 898.695 24.204 898.263 23.916C897.847 23.612 897.319 23.46 896.679 23.46L896.583 21.756C897.911 21.756 899.031 21.996 899.943 22.476C900.855 22.956 901.543 23.628 902.007 24.492C902.471 25.356 902.703 26.356 902.703 27.492L899.607 26.7ZM907.752 26.388C907.24 26.388 906.784 26.252 906.384 25.98C906 25.692 905.808 25.252 905.808 24.66C905.808 24.036 906.064 23.516 906.576 23.1C907.104 22.668 907.784 22.348 908.616 22.14C909.464 21.916 910.352 21.804 911.28 21.804C912.816 21.804 914 22.116 914.832 22.74C915.68 23.364 916.096 24.3 916.08 25.548L913.152 25.14C913.152 24.532 912.928 24.076 912.48 23.772C912.048 23.468 911.432 23.316 910.632 23.316C910.12 23.316 909.632 23.38 909.168 23.508C908.704 23.62 908.32 23.804 908.016 24.06C907.712 24.316 907.536 24.668 907.488 25.116L907.512 23.7C908.088 23.716 908.544 23.836 908.88 24.06C909.216 24.268 909.376 24.596 909.36 25.044C909.344 25.444 909.192 25.772 908.904 26.028C908.632 26.268 908.248 26.388 907.752 26.388ZM916.944 34.764C915.808 34.764 914.944 34.46 914.352 33.852C913.76 33.228 913.464 32.356 913.464 31.236V30.588H913.128V27.348H913.008L913.152 26.172V25.14L916.08 25.548V31.5C916.08 31.884 916.176 32.196 916.368 32.436C916.56 32.676 916.84 32.796 917.208 32.796C917.576 32.796 917.856 32.676 918.048 32.436C918.24 32.196 918.336 31.884 918.336 31.5V27.948H920.304V31.284C920.304 32.372 920.016 33.228 919.44 33.852C918.88 34.46 918.048 34.764 916.944 34.764ZM909 34.74C907.768 34.74 906.76 34.444 905.976 33.852C905.208 33.26 904.824 32.444 904.824 31.404C904.824 30.652 904.984 30.036 905.304 29.556C905.64 29.076 906.096 28.692 906.672 28.404C907.248 28.1 907.912 27.868 908.664 27.708L910.776 27.204C911.256 27.108 911.672 26.98 912.024 26.82C912.376 26.66 912.648 26.444 912.84 26.172C913.048 25.9 913.152 25.556 913.152 25.14L913.224 27.348H913.128C912.984 27.652 912.744 27.908 912.408 28.116C912.088 28.308 911.68 28.468 911.184 28.596L910.32 28.788C909.888 28.916 909.496 29.06 909.144 29.22C908.808 29.38 908.536 29.58 908.328 29.82C908.136 30.06 908.04 30.38 908.04 30.78C908.04 31.34 908.24 31.772 908.64 32.076C909.04 32.364 909.576 32.508 910.248 32.508C910.744 32.508 911.208 32.404 911.64 32.196C912.088 31.972 912.448 31.62 912.72 31.14C912.992 30.644 913.128 29.988 913.128 29.172L913.896 29.22C913.896 30.548 913.672 31.62 913.224 32.436C912.792 33.252 912.208 33.844 911.472 34.212C910.736 34.564 909.912 34.74 909 34.74ZM927.518 34.788C925.982 34.788 924.862 34.324 924.158 33.396C923.454 32.452 923.142 31.18 923.222 29.58L923.462 23.868H920.174V22.188H920.966C921.814 22.188 922.478 22.092 922.958 21.9C923.438 21.692 923.782 21.38 923.99 20.964C924.198 20.532 924.302 19.98 924.302 19.308V18.756H926.318V30.3C926.318 30.94 926.47 31.452 926.774 31.836C927.078 32.204 927.518 32.388 928.094 32.388C928.702 32.388 929.15 32.204 929.438 31.836C929.726 31.468 929.87 30.956 929.87 30.3V27.756H931.862V30.276C931.862 31.668 931.502 32.772 930.782 33.588C930.078 34.388 928.99 34.788 927.518 34.788ZM926.318 23.868V22.044H932.174V23.868H926.318Z" fill="white"/>
<path d="M976.006 27.3331L966.783 33.4821C966.708 33.5322 966.621 33.5609 966.53 33.5652C966.44 33.5696 966.35 33.5493 966.27 33.5066C966.191 33.4639 966.124 33.4004 966.077 33.3228C966.031 33.2452 966.006 33.1565 966.006 33.0661V18.9341C966.006 18.8436 966.031 18.7549 966.077 18.6773C966.124 18.5997 966.191 18.5362 966.27 18.4935C966.35 18.4508 966.44 18.4306 966.53 18.4349C966.621 18.4392 966.708 18.468 966.783 18.5181L976.006 24.6671V18.9341C976.006 18.8436 976.031 18.7549 976.077 18.6773C976.124 18.5997 976.191 18.5362 976.27 18.4935C976.35 18.4508 976.44 18.4306 976.53 18.4349C976.621 18.4392 976.708 18.468 976.783 18.5181L987.382 25.5841C987.451 25.6297 987.507 25.6916 987.546 25.7642C987.585 25.8367 987.605 25.9178 987.605 26.0001C987.605 26.0824 987.585 26.1634 987.546 26.236C987.507 26.3085 987.451 26.3704 987.382 26.4161L976.783 33.4821C976.708 33.5322 976.621 33.5609 976.53 33.5652C976.44 33.5696 976.35 33.5493 976.27 33.5066C976.191 33.4639 976.124 33.4004 976.077 33.3228C976.031 33.2452 976.006 33.1565 976.006 33.0661V27.3331Z" fill="white"/>
<path d="M1048.62 34V19H1052.03V34H1048.62ZM1043.56 19.48V16.48H1057.09V19.48H1043.56ZM1059.55 34V16.48H1062.89V26.704H1062.31C1062.31 25.392 1062.48 24.28 1062.81 23.368C1063.15 22.456 1063.65 21.76 1064.3 21.28C1064.97 20.8 1065.82 20.56 1066.85 20.56H1066.99C1068.48 20.56 1069.61 21.072 1070.37 22.096C1071.14 23.12 1071.53 24.608 1071.53 26.56V34H1068.19V26.248C1068.19 25.416 1067.95 24.76 1067.47 24.28C1067.01 23.8 1066.39 23.56 1065.62 23.56C1064.81 23.56 1064.14 23.832 1063.63 24.376C1063.13 24.904 1062.89 25.6 1062.89 26.464V34H1059.55ZM1075.74 34V20.968H1079.07V34H1075.74ZM1073.91 23.464V20.968H1079.07V23.464H1073.91ZM1076.96 19.408C1076.31 19.408 1075.82 19.24 1075.5 18.904C1075.19 18.552 1075.04 18.12 1075.04 17.608C1075.04 17.064 1075.19 16.624 1075.5 16.288C1075.82 15.952 1076.31 15.784 1076.96 15.784C1077.62 15.784 1078.1 15.952 1078.4 16.288C1078.71 16.624 1078.86 17.064 1078.86 17.608C1078.86 18.12 1078.71 18.552 1078.4 18.904C1078.1 19.24 1077.62 19.408 1076.96 19.408ZM1082.92 34V20.968H1085.56V26.56H1085.32C1085.32 25.232 1085.49 24.128 1085.85 23.248C1086.2 22.352 1086.72 21.68 1087.41 21.232C1088.11 20.784 1088.98 20.56 1090.02 20.56H1090.17C1091.72 20.56 1092.89 21.064 1093.69 22.072C1094.49 23.064 1094.89 24.552 1094.89 26.536V34H1091.56V26.248C1091.56 25.448 1091.33 24.8 1090.86 24.304C1090.41 23.808 1089.79 23.56 1088.99 23.56C1088.17 23.56 1087.51 23.816 1087 24.328C1086.5 24.824 1086.25 25.496 1086.25 26.344V34H1082.92ZM1107.6 34L1103.23 27.904H1101.29L1106.83 20.968H1110.31L1105.2 27.376L1105.27 25.696L1111.37 34H1107.6ZM1098.48 34V16.48H1101.82V34H1098.48Z" fill="black"/>
<path d="M1144.17 34V16.48H1148.82L1153.21 26.944H1153.65L1158.01 16.48H1162.74V34H1159.36V19.048L1159.79 19.096L1155.06 30.424H1151.58L1146.83 19.096L1147.29 19.048V34H1144.17ZM1167.42 34V20.968H1170.76V34H1167.42ZM1165.6 23.464V20.968H1170.76V23.464H1165.6ZM1168.65 19.408C1167.99 19.408 1167.5 19.24 1167.18 18.904C1166.88 18.552 1166.73 18.12 1166.73 17.608C1166.73 17.064 1166.88 16.624 1167.18 16.288C1167.5 15.952 1167.99 15.784 1168.65 15.784C1169.3 15.784 1169.78 15.952 1170.09 16.288C1170.39 16.624 1170.54 17.064 1170.54 17.608C1170.54 18.12 1170.39 18.552 1170.09 18.904C1169.78 19.24 1169.3 19.408 1168.65 19.408ZM1174.61 34V20.968H1177.25V26.56H1177.01C1177.01 25.232 1177.18 24.128 1177.53 23.248C1177.89 22.352 1178.41 21.68 1179.09 21.232C1179.8 20.784 1180.67 20.56 1181.71 20.56H1181.85C1183.41 20.56 1184.58 21.064 1185.38 22.072C1186.18 23.064 1186.58 24.552 1186.58 26.536V34H1183.25V26.248C1183.25 25.448 1183.01 24.8 1182.55 24.304C1182.1 23.808 1181.48 23.56 1180.68 23.56C1179.86 23.56 1179.2 23.816 1178.69 24.328C1178.19 24.824 1177.94 25.496 1177.94 26.344V34H1174.61ZM1195.83 34.168C1194.63 34.168 1193.64 34.016 1192.86 33.712C1192.09 33.392 1191.51 32.864 1191.13 32.128C1190.74 31.376 1190.55 30.368 1190.55 29.104L1190.58 17.296H1193.7L1193.67 29.32C1193.67 29.96 1193.84 30.456 1194.18 30.808C1194.53 31.144 1195.02 31.312 1195.66 31.312H1197.7V34.168H1195.83ZM1188.49 23.416V20.968H1197.7V23.416H1188.49Z" fill="black"/>
<path d="M1237.14 34.456C1235.59 34.456 1234.28 34.208 1233.21 33.712C1232.15 33.216 1231.34 32.536 1230.78 31.672C1230.22 30.792 1229.94 29.8 1229.94 28.696H1233.28C1233.28 29.16 1233.41 29.616 1233.66 30.064C1233.92 30.496 1234.33 30.848 1234.89 31.12C1235.46 31.392 1236.21 31.528 1237.14 31.528C1237.97 31.528 1238.67 31.408 1239.23 31.168C1239.79 30.928 1240.21 30.616 1240.48 30.232C1240.75 29.832 1240.89 29.384 1240.89 28.888C1240.89 28.264 1240.62 27.768 1240.09 27.4C1239.57 27.016 1238.75 26.776 1237.65 26.68L1236.11 26.56C1234.43 26.416 1233.09 25.896 1232.08 25C1231.09 24.088 1230.59 22.888 1230.59 21.4C1230.59 20.28 1230.85 19.32 1231.38 18.52C1231.91 17.704 1232.65 17.08 1233.59 16.648C1234.55 16.2 1235.67 15.976 1236.95 15.976C1238.28 15.976 1239.42 16.208 1240.38 16.672C1241.34 17.136 1242.09 17.792 1242.61 18.64C1243.14 19.472 1243.41 20.456 1243.41 21.592H1240.07C1240.07 21.112 1239.95 20.672 1239.71 20.272C1239.49 19.856 1239.14 19.528 1238.68 19.288C1238.23 19.032 1237.65 18.904 1236.95 18.904C1236.28 18.904 1235.72 19.016 1235.27 19.24C1234.82 19.464 1234.49 19.768 1234.26 20.152C1234.04 20.536 1233.93 20.952 1233.93 21.4C1233.93 21.944 1234.13 22.424 1234.53 22.84C1234.93 23.24 1235.56 23.472 1236.42 23.536L1237.96 23.68C1239.21 23.776 1240.3 24.04 1241.25 24.472C1242.19 24.904 1242.92 25.488 1243.43 26.224C1243.96 26.96 1244.22 27.848 1244.22 28.888C1244.22 29.992 1243.93 30.968 1243.36 31.816C1242.78 32.648 1241.96 33.296 1240.89 33.76C1239.83 34.224 1238.58 34.456 1237.14 34.456ZM1252.91 34.456C1251.79 34.456 1250.8 34.264 1249.95 33.88C1249.12 33.496 1248.43 32.984 1247.87 32.344C1247.32 31.688 1246.91 30.96 1246.62 30.16C1246.35 29.36 1246.21 28.544 1246.21 27.712V27.256C1246.21 26.392 1246.35 25.56 1246.62 24.76C1246.91 23.944 1247.32 23.224 1247.87 22.6C1248.43 21.96 1249.11 21.456 1249.93 21.088C1250.75 20.704 1251.69 20.512 1252.76 20.512C1254.17 20.512 1255.35 20.824 1256.29 21.448C1257.25 22.056 1257.97 22.864 1258.45 23.872C1258.93 24.864 1259.17 25.936 1259.17 27.088V28.288H1247.63V26.248H1257.08L1256.05 27.256C1256.05 26.424 1255.93 25.712 1255.69 25.12C1255.45 24.528 1255.08 24.072 1254.59 23.752C1254.11 23.432 1253.5 23.272 1252.76 23.272C1252.03 23.272 1251.4 23.44 1250.89 23.776C1250.38 24.112 1249.99 24.6 1249.71 25.24C1249.46 25.864 1249.33 26.616 1249.33 27.496C1249.33 28.312 1249.46 29.04 1249.71 29.68C1249.97 30.304 1250.36 30.8 1250.89 31.168C1251.42 31.52 1252.09 31.696 1252.91 31.696C1253.72 31.696 1254.39 31.536 1254.9 31.216C1255.41 30.88 1255.74 30.472 1255.88 29.992H1258.95C1258.76 30.888 1258.39 31.672 1257.85 32.344C1257.31 33.016 1256.61 33.536 1255.76 33.904C1254.93 34.272 1253.98 34.456 1252.91 34.456ZM1262.13 34V16.48H1265.46V34H1262.13ZM1260.49 18.976V16.48H1265.46V18.976H1260.49ZM1269.44 34V16.48H1272.77V34H1269.44ZM1267.81 18.976V16.48H1272.77V18.976H1267.81Z" fill="black"/>
<path d="M1305.75 34.5V32.868H1307.89V19.716H1305.8V18.084H1311.15V32.868H1313.33V34.5H1305.75ZM1319.17 34.716C1318.3 34.716 1317.59 34.564 1317.03 34.26C1316.49 33.94 1316.08 33.5 1315.81 32.94C1315.53 32.38 1315.37 31.724 1315.3 30.972L1315.21 29.892C1315.14 28.932 1314.9 28.252 1314.49 27.852C1314.07 27.452 1313.45 27.252 1312.64 27.252H1311.15V26.796H1314.85C1316.17 26.78 1317.1 27.108 1317.63 27.78C1318.17 28.436 1318.46 29.388 1318.49 30.636L1318.52 31.308C1318.55 31.708 1318.65 32.036 1318.81 32.292C1318.97 32.548 1319.25 32.676 1319.67 32.676C1320.09 32.676 1320.38 32.556 1320.56 32.316C1320.73 32.06 1320.82 31.724 1320.82 31.308V28.14H1322.79V31.02C1322.79 32.124 1322.5 33.02 1321.93 33.708C1321.37 34.38 1320.45 34.716 1319.17 34.716ZM1311.15 27.252V25.476H1315.59C1316.65 25.476 1317.48 25.244 1318.09 24.78C1318.71 24.316 1319.02 23.612 1319.02 22.668C1319.02 21.724 1318.71 21.028 1318.09 20.58C1317.48 20.116 1316.65 19.884 1315.59 19.884H1311.15V18.084H1316.6C1318.31 18.084 1319.69 18.452 1320.73 19.188C1321.78 19.908 1322.31 21.004 1322.31 22.476C1322.31 23.932 1321.79 25.036 1320.75 25.788C1319.71 26.524 1318.35 26.892 1316.67 26.892H1314.92L1314.51 27.252H1311.15ZM1331.19 34.788C1329.93 34.788 1328.81 34.54 1327.85 34.044C1326.91 33.532 1326.17 32.796 1325.62 31.836C1325.09 30.86 1324.83 29.668 1324.83 28.26C1324.83 26.868 1325.09 25.692 1325.62 24.732C1326.15 23.756 1326.89 23.02 1327.83 22.524C1328.77 22.012 1329.86 21.756 1331.09 21.756L1331.19 23.46C1330.5 23.46 1329.91 23.628 1329.41 23.964C1328.93 24.284 1328.56 24.788 1328.29 25.476C1328.03 26.148 1327.9 27.012 1327.9 28.068C1327.9 29.412 1328.24 30.484 1328.91 31.284C1329.6 32.068 1330.53 32.46 1331.69 32.46C1332.4 32.46 1332.97 32.348 1333.42 32.124C1333.89 31.884 1334.25 31.588 1334.5 31.236C1334.77 30.884 1334.97 30.524 1335.1 30.156H1337.07C1337.01 30.716 1336.84 31.268 1336.57 31.812C1336.31 32.356 1335.94 32.852 1335.46 33.3C1335 33.748 1334.41 34.108 1333.71 34.38C1333.01 34.652 1332.17 34.788 1331.19 34.788ZM1326.27 28.308V26.7H1334.12L1337.21 27.492V28.308H1326.27ZM1334.12 26.7C1334.1 26.108 1333.98 25.572 1333.76 25.092C1333.53 24.596 1333.21 24.204 1332.77 23.916C1332.36 23.612 1331.83 23.46 1331.19 23.46L1331.09 21.756C1332.42 21.756 1333.54 21.996 1334.45 22.476C1335.37 22.956 1336.05 23.628 1336.52 24.492C1336.98 25.356 1337.21 26.356 1337.21 27.492L1334.12 26.7ZM1348.38 34.764C1347.2 34.764 1346.23 34.508 1345.48 33.996C1344.74 33.484 1344.2 32.748 1343.84 31.788C1343.51 30.828 1343.34 29.66 1343.34 28.284L1343.17 28.26C1343.17 26.916 1343.36 25.764 1343.72 24.804C1344.09 23.828 1344.66 23.084 1345.43 22.572C1346.21 22.044 1347.19 21.78 1348.36 21.78C1349.49 21.78 1350.49 22.036 1351.36 22.548C1352.22 23.06 1352.89 23.796 1353.37 24.756C1353.85 25.716 1354.09 26.892 1354.09 28.284C1354.09 29.644 1353.85 30.812 1353.37 31.788C1352.89 32.748 1352.22 33.484 1351.36 33.996C1350.49 34.508 1349.5 34.764 1348.38 34.764ZM1347.3 32.724C1348 32.724 1348.61 32.556 1349.12 32.22C1349.64 31.884 1350.03 31.38 1350.3 30.708C1350.59 30.036 1350.73 29.228 1350.73 28.284C1350.73 27.308 1350.59 26.492 1350.3 25.836C1350.03 25.164 1349.64 24.66 1349.12 24.324C1348.61 23.972 1348 23.796 1347.3 23.796C1346.6 23.796 1345.98 23.972 1345.45 24.324C1344.92 24.66 1344.52 25.164 1344.23 25.836C1343.94 26.492 1343.8 27.308 1343.8 28.284C1343.8 29.228 1343.94 30.036 1344.23 30.708C1344.52 31.38 1344.92 31.884 1345.45 32.22C1345.98 32.556 1346.6 32.724 1347.3 32.724ZM1338.9 39.06V37.452H1340.82V23.652H1339.02V22.02H1343.72V26.316L1343.51 28.26L1343.96 30.9V37.452H1346.22V39.06H1338.9ZM1362.68 34.788C1361.42 34.788 1360.3 34.54 1359.34 34.044C1358.4 33.532 1357.66 32.796 1357.11 31.836C1356.58 30.86 1356.32 29.668 1356.32 28.26C1356.32 26.868 1356.58 25.692 1357.11 24.732C1357.64 23.756 1358.38 23.02 1359.32 22.524C1360.26 22.012 1361.35 21.756 1362.58 21.756L1362.68 23.46C1361.99 23.46 1361.4 23.628 1360.9 23.964C1360.42 24.284 1360.05 24.788 1359.78 25.476C1359.52 26.148 1359.39 27.012 1359.39 28.068C1359.39 29.412 1359.73 30.484 1360.4 31.284C1361.09 32.068 1362.02 32.46 1363.18 32.46C1363.89 32.46 1364.46 32.348 1364.91 32.124C1365.38 31.884 1365.74 31.588 1365.99 31.236C1366.26 30.884 1366.46 30.524 1366.59 30.156H1368.56C1368.5 30.716 1368.33 31.268 1368.06 31.812C1367.8 32.356 1367.43 32.852 1366.95 33.3C1366.49 33.748 1365.9 34.108 1365.2 34.38C1364.5 34.652 1363.66 34.788 1362.68 34.788ZM1357.76 28.308V26.7H1365.61L1368.7 27.492V28.308H1357.76ZM1365.61 26.7C1365.59 26.108 1365.47 25.572 1365.25 25.092C1365.02 24.596 1364.7 24.204 1364.26 23.916C1363.85 23.612 1363.32 23.46 1362.68 23.46L1362.58 21.756C1363.91 21.756 1365.03 21.996 1365.94 22.476C1366.86 22.956 1367.54 23.628 1368.01 24.492C1368.47 25.356 1368.7 26.356 1368.7 27.492L1365.61 26.7ZM1373.75 26.388C1373.24 26.388 1372.78 26.252 1372.38 25.98C1372 25.692 1371.81 25.252 1371.81 24.66C1371.81 24.036 1372.06 23.516 1372.58 23.1C1373.1 22.668 1373.78 22.348 1374.62 22.14C1375.46 21.916 1376.35 21.804 1377.28 21.804C1378.82 21.804 1380 22.116 1380.83 22.74C1381.68 23.364 1382.1 24.3 1382.08 25.548L1379.15 25.14C1379.15 24.532 1378.93 24.076 1378.48 23.772C1378.05 23.468 1377.43 23.316 1376.63 23.316C1376.12 23.316 1375.63 23.38 1375.17 23.508C1374.7 23.62 1374.32 23.804 1374.02 24.06C1373.71 24.316 1373.54 24.668 1373.49 25.116L1373.51 23.7C1374.09 23.716 1374.54 23.836 1374.88 24.06C1375.22 24.268 1375.38 24.596 1375.36 25.044C1375.34 25.444 1375.19 25.772 1374.9 26.028C1374.63 26.268 1374.25 26.388 1373.75 26.388ZM1382.94 34.764C1381.81 34.764 1380.94 34.46 1380.35 33.852C1379.76 33.228 1379.46 32.356 1379.46 31.236V30.588H1379.13V27.348H1379.01L1379.15 26.172V25.14L1382.08 25.548V31.5C1382.08 31.884 1382.18 32.196 1382.37 32.436C1382.56 32.676 1382.84 32.796 1383.21 32.796C1383.58 32.796 1383.86 32.676 1384.05 32.436C1384.24 32.196 1384.34 31.884 1384.34 31.5V27.948H1386.3V31.284C1386.3 32.372 1386.02 33.228 1385.44 33.852C1384.88 34.46 1384.05 34.764 1382.94 34.764ZM1375 34.74C1373.77 34.74 1372.76 34.444 1371.98 33.852C1371.21 33.26 1370.82 32.444 1370.82 31.404C1370.82 30.652 1370.98 30.036 1371.3 29.556C1371.64 29.076 1372.1 28.692 1372.67 28.404C1373.25 28.1 1373.91 27.868 1374.66 27.708L1376.78 27.204C1377.26 27.108 1377.67 26.98 1378.02 26.82C1378.38 26.66 1378.65 26.444 1378.84 26.172C1379.05 25.9 1379.15 25.556 1379.15 25.14L1379.22 27.348H1379.13C1378.98 27.652 1378.74 27.908 1378.41 28.116C1378.09 28.308 1377.68 28.468 1377.18 28.596L1376.32 28.788C1375.89 28.916 1375.5 29.06 1375.14 29.22C1374.81 29.38 1374.54 29.58 1374.33 29.82C1374.14 30.06 1374.04 30.38 1374.04 30.78C1374.04 31.34 1374.24 31.772 1374.64 32.076C1375.04 32.364 1375.58 32.508 1376.25 32.508C1376.74 32.508 1377.21 32.404 1377.64 32.196C1378.09 31.972 1378.45 31.62 1378.72 31.14C1378.99 30.644 1379.13 29.988 1379.13 29.172L1379.9 29.22C1379.9 30.548 1379.67 31.62 1379.22 32.436C1378.79 33.252 1378.21 33.844 1377.47 34.212C1376.74 34.564 1375.91 34.74 1375 34.74ZM1393.52 34.788C1391.98 34.788 1390.86 34.324 1390.16 33.396C1389.45 32.452 1389.14 31.18 1389.22 29.58L1389.46 23.868H1386.17V22.188H1386.97C1387.81 22.188 1388.48 22.092 1388.96 21.9C1389.44 21.692 1389.78 21.38 1389.99 20.964C1390.2 20.532 1390.3 19.98 1390.3 19.308V18.756H1392.32V30.3C1392.32 30.94 1392.47 31.452 1392.77 31.836C1393.08 32.204 1393.52 32.388 1394.09 32.388C1394.7 32.388 1395.15 32.204 1395.44 31.836C1395.73 31.468 1395.87 30.956 1395.87 30.3V27.756H1397.86V30.276C1397.86 31.668 1397.5 32.772 1396.78 33.588C1396.08 34.388 1394.99 34.788 1393.52 34.788ZM1392.32 23.868V22.044H1398.17V23.868H1392.32Z" fill="white"/>
<path d="M1442.01 27.3331L1432.78 33.4821C1432.71 33.5322 1432.62 33.5609 1432.53 33.5652C1432.44 33.5696 1432.35 33.5493 1432.27 33.5066C1432.19 33.4639 1432.12 33.4004 1432.08 33.3228C1432.03 33.2452 1432.01 33.1565 1432.01 33.0661V18.9341C1432.01 18.8436 1432.03 18.7549 1432.08 18.6773C1432.12 18.5997 1432.19 18.5362 1432.27 18.4935C1432.35 18.4508 1432.44 18.4306 1432.53 18.4349C1432.62 18.4392 1432.71 18.468 1432.78 18.5181L1442.01 24.6671V18.9341C1442.01 18.8436 1442.03 18.7549 1442.08 18.6773C1442.12 18.5997 1442.19 18.5362 1442.27 18.4935C1442.35 18.4508 1442.44 18.4306 1442.53 18.4349C1442.62 18.4392 1442.71 18.468 1442.78 18.5181L1453.38 25.5841C1453.45 25.6297 1453.51 25.6916 1453.55 25.7642C1453.58 25.8367 1453.6 25.9178 1453.6 26.0001C1453.6 26.0824 1453.58 26.1634 1453.55 26.236C1453.51 26.3085 1453.45 26.3704 1453.38 26.4161L1442.78 33.4821C1442.71 33.5322 1442.62 33.5609 1442.53 33.5652C1442.44 33.5696 1442.35 33.5493 1442.27 33.5066C1442.19 33.4639 1442.12 33.4004 1442.08 33.3228C1442.03 33.2452 1442.01 33.1565 1442.01 33.0661V27.3331Z" fill="white"/>
</svg>
