<svg width="1440" height="188" viewBox="0 0 1440 188" fill="none" xmlns="http://www.w3.org/2000/svg">
<rect width="2442.61" height="52" transform="translate(-480.272) rotate(3)" fill="#F46E35"/>
<path d="M-11.0821 58.636L-10.2971 43.6565L-6.89374 43.8349L-7.67878 58.8143L-11.0821 58.636ZM-15.3793 43.8708L-15.2222 40.875L-1.7048 41.5834L-1.86181 44.5793L-15.3793 43.8708ZM-0.168653 59.2079L0.748273 41.7119L4.0797 41.8865L3.54462 52.0965L2.96941 52.0664C3.03807 50.7562 3.26404 49.6545 3.64731 48.7613C4.03058 47.8682 4.56233 47.1991 5.24255 46.7541C5.93875 46.3099 6.79815 46.1146 7.82074 46.1682L7.96455 46.1757C9.45051 46.2536 10.5502 46.8239 11.2635 47.8867C11.9769 48.9495 12.2825 50.4556 12.1803 52.4049L11.7909 59.8347L8.45951 59.6601L8.86521 51.9187C8.90876 51.0879 8.70342 50.4202 8.2492 49.9157C7.81096 49.4121 7.20836 49.1402 6.44141 49.1C5.62653 49.0573 4.94921 49.2942 4.40944 49.8106C3.88648 50.312 3.6024 50.994 3.55718 51.8568L3.16278 59.3825L-0.168653 59.2079ZM15.9957 60.0551L16.6777 47.0409L20.0091 47.2155L19.3271 60.2297L15.9957 60.0551ZM14.7256 49.438L14.8562 46.9455L20.0091 47.2155L19.8785 49.7081L14.7256 49.438ZM17.9817 45.5471C17.3266 45.5128 16.848 45.3195 16.5461 44.9672C16.2609 44.5998 16.1317 44.1604 16.1585 43.6491C16.187 43.1058 16.3618 42.6744 16.683 42.3548C17.0201 42.036 17.5162 41.8937 18.1713 41.9281C18.8264 41.9624 19.297 42.1553 19.583 42.5068C19.869 42.8582 19.9978 43.3056 19.9693 43.8488C19.9425 44.3601 19.7681 44.7836 19.4461 45.1192C19.1249 45.4388 18.6368 45.5814 17.9817 45.5471ZM23.1665 60.4309L23.8486 47.4167L26.4849 47.5549L26.1923 53.1392L25.9526 53.1267C26.0221 51.8005 26.2556 50.7072 26.6532 49.8468C27.0516 48.9705 27.6061 48.3266 28.3166 47.9152C29.0431 47.5047 29.9256 47.3267 30.9642 47.3811L31.108 47.3886C32.6578 47.4698 33.8059 48.0347 34.552 49.0832C35.299 50.1157 35.6206 51.6226 35.5167 53.6039L35.1261 61.0576L31.7947 60.883L32.2004 53.1417C32.2422 52.3428 32.0445 51.6835 31.6071 51.1639C31.1856 50.6451 30.5755 50.3648 29.7766 50.323C28.9617 50.2803 28.2852 50.5011 27.7471 50.9857C27.2258 51.455 26.943 52.1131 26.8986 52.96L26.4979 60.6055L23.1665 60.4309ZM47.8152 61.7226L43.7722 55.4064L41.8309 55.3047L47.7303 48.6683L51.2055 48.8504L45.7651 54.9821L45.925 53.3082L51.578 61.9198L47.8152 61.7226ZM38.7077 61.2453L39.6246 43.7494L42.956 43.9239L42.0391 61.4199L38.7077 61.2453Z" fill="black"/>
<path d="M84.3309 63.6363L85.2479 46.1403L89.8975 46.3839L93.7358 57.0635L94.1672 57.0861L99.0769 46.865L103.798 47.1125L102.881 64.6084L99.5021 64.4313L100.285 49.4998L100.714 49.5704L95.3992 60.6354L91.9239 60.4533L87.7713 48.8921L88.2292 48.868L87.4467 63.7995L84.3309 63.6363ZM107.558 64.8535L108.24 51.8394L111.571 52.014L110.889 65.0281L107.558 64.8535ZM106.287 54.2365L106.418 51.7439L111.571 52.014L111.44 54.5065L106.287 54.2365ZM109.544 50.3456C108.888 50.3112 108.41 50.1179 108.108 49.7656C107.823 49.3982 107.694 48.9588 107.72 48.4475C107.749 47.9043 107.924 47.4728 108.245 47.1532C108.582 46.8344 109.078 46.6922 109.733 46.7265C110.388 46.7609 110.859 46.9537 111.145 47.3052C111.431 47.6566 111.56 48.104 111.531 48.6473C111.504 49.1586 111.33 49.582 111.008 49.9176C110.687 50.2372 110.199 50.3799 109.544 50.3456ZM114.728 65.2293L115.41 52.2152L118.047 52.3533L117.754 57.9377L117.514 57.9251C117.584 56.5989 117.817 55.5057 118.215 54.6453C118.613 53.7689 119.168 53.1251 119.878 52.7137C120.605 52.3032 121.487 52.1251 122.526 52.1795L122.67 52.1871C124.22 52.2683 125.368 52.8331 126.114 53.8816C126.861 54.9141 127.182 56.421 127.079 58.4023L126.688 65.8561L123.357 65.6815L123.762 57.9401C123.804 57.1412 123.606 56.482 123.169 55.9624C122.747 55.4436 122.137 55.1633 121.338 55.1214C120.524 55.0787 119.847 55.2996 119.309 55.7841C118.788 56.2535 118.505 56.9116 118.46 57.7584L118.06 65.4039L114.728 65.2293ZM135.917 66.508C134.719 66.4452 133.736 66.2415 132.969 65.8969C132.219 65.5371 131.671 64.9797 131.326 64.2246C130.982 63.4535 130.843 62.4369 130.909 61.1746L131.551 49.384L134.667 49.5473L134.014 61.5536C133.98 62.1927 134.122 62.6968 134.439 63.0659C134.773 63.4199 135.26 63.6136 135.899 63.6471L137.936 63.7539L137.786 66.606L135.917 66.508ZM129.146 55.3864L129.274 52.9417L138.477 53.4241L138.349 55.8687L129.146 55.3864Z" fill="black"/>
<path d="M177.156 68.9576C175.606 68.8764 174.309 68.5601 173.264 68.0086C172.235 67.458 171.464 66.7367 170.95 65.8446C170.437 64.9365 170.209 63.9312 170.267 62.8287L173.598 63.0033C173.574 63.4666 173.678 63.9287 173.91 64.3895C174.143 64.8343 174.532 65.2072 175.077 65.5081C175.638 65.8099 176.382 65.9851 177.309 66.0336C178.14 66.0772 178.841 65.9938 179.413 65.7834C179.985 65.573 180.416 65.2832 180.708 64.914C181.001 64.5288 181.16 64.0885 181.186 63.5932C181.219 62.97 180.981 62.4609 180.473 62.0658C179.966 61.6547 179.163 61.3723 178.066 61.2186L176.538 61.0184C174.868 60.7867 173.553 60.1971 172.593 59.2495C171.651 58.2869 171.218 57.0626 171.296 55.5766C171.355 54.4581 171.668 53.5133 172.238 52.742C172.808 51.9547 173.575 51.3701 174.541 50.9881C175.523 50.591 176.653 50.4259 177.931 50.4929C179.257 50.5624 180.388 50.8539 181.322 51.3675C182.256 51.8812 182.965 52.5752 183.448 53.4497C183.932 54.3082 184.144 55.3046 184.084 56.4391L180.753 56.2645C180.778 55.7851 180.681 55.3395 180.462 54.9274C180.261 54.5003 179.934 54.1547 179.483 53.8908C179.049 53.6117 178.481 53.4537 177.778 53.4169C177.107 53.3817 176.542 53.4642 176.083 53.6645C175.623 53.8647 175.272 54.1507 175.028 54.5225C174.784 54.8942 174.651 55.3038 174.627 55.7512C174.599 56.2944 174.773 56.7843 175.151 57.2206C175.53 57.641 176.149 57.9058 177.008 58.0149L178.535 58.2391C179.776 58.4003 180.856 58.7213 181.777 59.2021C182.697 59.6829 183.393 60.3042 183.866 61.066C184.355 61.8286 184.572 62.7292 184.517 63.7678C184.46 64.8703 184.121 65.8299 183.501 66.6465C182.883 67.4473 182.026 68.0512 180.931 68.4585C179.852 68.8666 178.594 69.033 177.156 68.9576ZM192.898 69.7826C191.779 69.724 190.807 69.4808 189.98 69.0529C189.169 68.6259 188.501 68.0782 187.975 67.4097C187.466 66.7262 187.089 65.9774 186.843 65.1634C186.614 64.3503 186.521 63.5283 186.564 62.6974L186.588 62.2421C186.633 61.3792 186.812 60.5555 187.126 59.7708C187.456 58.971 187.909 58.2738 188.485 57.6791C189.078 57.0693 189.791 56.602 190.626 56.2772C191.461 55.9364 192.413 55.7941 193.484 55.8502C194.89 55.9239 196.048 56.297 196.958 56.9696C197.885 57.627 198.562 58.4715 198.988 59.5033C199.416 60.519 199.599 61.6021 199.539 62.7526L199.476 63.9509L187.948 63.3467L188.055 61.3095L197.498 61.8044L196.414 62.757C196.458 61.9262 196.375 61.2089 196.167 60.6051C195.958 60.0014 195.614 59.5267 195.136 59.1812C194.673 58.8365 194.074 58.6449 193.339 58.6064C192.604 58.5679 191.973 58.703 191.444 59.0118C190.915 59.3205 190.498 59.7873 190.193 60.4122C189.904 61.0219 189.737 61.7662 189.691 62.645C189.648 63.4599 189.738 64.1936 189.96 64.8461C190.183 65.4827 190.549 65.9985 191.057 66.3936C191.566 66.7728 192.227 66.9837 193.042 67.0264C193.857 67.0691 194.529 66.9441 195.057 66.6513C195.586 66.3426 195.935 65.9523 196.103 65.4805L199.171 65.6413C198.933 66.526 198.524 67.2897 197.946 67.9323C197.367 68.5749 196.645 69.0577 195.779 69.3809C194.929 69.7048 193.968 69.8387 192.898 69.7826ZM202.128 69.8097L203.045 52.3137L206.376 52.4883L205.459 69.9843L202.128 69.8097ZM201.285 54.7209L201.415 52.2283L206.376 52.4883L206.246 54.9809L201.285 54.7209ZM209.43 70.1924L210.347 52.6964L213.679 52.871L212.762 70.367L209.43 70.1924ZM208.587 55.1036L208.718 52.611L213.679 52.871L213.548 55.3636L208.587 55.1036Z" fill="black"/>
<path d="M245.667 72.5922L245.753 70.9625L247.886 71.0743L248.574 57.9403L246.489 57.831L246.574 56.2012L251.919 56.4813L251.145 71.2451L253.326 71.3594L253.241 72.9891L245.667 72.5922ZM259.054 73.5101C258.191 73.4649 257.488 73.2758 256.944 72.9429C256.418 72.5949 256.034 72.1341 255.791 71.5607C255.549 70.9872 255.415 70.3233 255.391 69.569L255.352 68.4854C255.338 67.5234 255.134 66.8318 254.739 66.4105C254.345 65.9893 253.74 65.7574 252.925 65.7147L251.439 65.6368L251.463 65.1814L255.154 65.3748C256.481 65.4284 257.391 65.8045 257.883 66.5032C258.392 67.1868 258.629 68.1525 258.596 69.4005L258.585 70.0728C258.596 70.474 258.675 70.8065 258.821 71.0706C258.967 71.3346 259.248 71.4775 259.664 71.4992C260.079 71.521 260.381 71.4167 260.569 71.1862C260.758 70.9398 260.864 70.6088 260.886 70.1934L261.052 67.0298L263.017 67.1327L262.866 70.0088C262.808 71.1113 262.474 71.991 261.863 72.6479C261.268 73.2897 260.332 73.5771 259.054 73.5101ZM251.439 65.6368L251.532 63.8632L255.966 64.0956C257.021 64.1508 257.864 63.9627 258.495 63.5312C259.143 63.1005 259.491 62.4138 259.54 61.471C259.59 60.5283 259.315 59.817 258.715 59.3369C258.132 58.8417 257.313 58.5665 256.259 58.5112L251.825 58.2789L251.919 56.4813L257.36 56.7665C259.069 56.8561 260.424 57.2956 261.424 58.085C262.441 58.8593 262.911 59.9814 262.834 61.4514C262.758 62.9054 262.181 63.9807 261.103 64.6772C260.026 65.3578 258.648 65.6541 256.971 65.5662L255.221 65.4745L254.795 65.8126L251.439 65.6368ZM271.058 74.2113C269.795 74.1451 268.698 73.8393 267.765 73.2937C266.849 72.733 266.145 71.9591 265.652 70.9719C265.176 69.9696 264.974 68.7654 265.048 67.3594C265.121 65.9693 265.446 64.8087 266.024 63.8777C266.602 62.9306 267.376 62.2342 268.344 61.7882C269.314 61.3263 270.414 61.1276 271.644 61.1921L271.651 62.8988C270.964 62.8628 270.364 62.9996 269.851 63.3092C269.355 63.6036 268.953 64.0872 268.645 64.7601C268.354 65.4177 268.181 66.2739 268.126 67.3284C268.056 68.6706 268.335 69.7587 268.964 70.5928C269.61 71.4117 270.517 71.8517 271.683 71.9128C272.386 71.9497 272.967 71.868 273.426 71.6677C273.902 71.4524 274.277 71.1756 274.551 70.8375C274.841 70.5002 275.06 70.1512 275.207 69.7904L277.172 69.8934C277.079 70.4492 276.882 70.9917 276.582 71.5207C276.298 72.0506 275.905 72.5266 275.402 72.9489C274.915 73.372 274.313 73.7009 273.596 73.9357C272.878 74.1705 272.032 74.2624 271.058 74.2113ZM266.484 67.4827L266.568 65.8769L274.405 66.2876L277.455 67.2405L277.413 68.0554L266.484 67.4827ZM274.405 66.2876C274.42 65.6956 274.328 65.154 274.13 64.663C273.932 64.1559 273.625 63.7473 273.209 63.4371C272.809 63.1117 272.29 62.9323 271.651 62.8988L271.644 61.1921C272.97 61.2616 274.076 61.5599 274.962 62.087C275.847 62.614 276.499 63.3211 276.917 64.2082C277.335 65.0953 277.515 66.1061 277.455 67.2405L274.405 66.2876ZM288.225 75.0869C287.043 75.025 286.089 74.7187 285.365 74.168C284.657 73.6182 284.152 72.8547 283.851 71.8776C283.566 70.9014 283.459 69.7262 283.531 68.3521L283.365 68.3193C283.435 66.9771 283.679 65.8363 284.097 64.8969C284.515 63.9415 285.121 63.2283 285.915 62.7572C286.726 62.2709 287.714 62.0584 288.881 62.1195C290.015 62.1789 291 62.4869 291.836 63.0434C292.672 63.6 293.305 64.3701 293.734 65.3539C294.163 66.3377 294.341 67.5247 294.268 68.9148C294.197 70.2729 293.896 71.4267 293.366 72.3763C292.836 73.3099 292.127 74.0097 291.237 74.4758C290.348 74.9418 289.344 75.1456 288.225 75.0869ZM287.253 72.9932C287.956 73.0301 288.572 72.8941 289.101 72.5854C289.63 72.2766 290.048 71.7938 290.355 71.137C290.678 70.481 290.864 69.6816 290.913 68.7389C290.964 67.7643 290.863 66.9418 290.61 66.2717C290.373 65.5864 290.008 65.0625 289.514 64.7002C289.022 64.3219 288.424 64.1143 287.721 64.0775C287.018 64.0406 286.393 64.1841 285.847 64.508C285.303 64.8159 284.869 65.2979 284.546 65.9539C284.224 66.5939 284.038 67.4013 283.987 68.3759C283.937 69.3186 284.039 70.1331 284.291 70.8192C284.543 71.5054 284.925 72.03 285.434 72.3932C285.944 72.7564 286.55 72.9564 287.253 72.9932ZM278.533 78.8809L278.617 77.2751L280.535 77.3756L281.257 63.5945L279.459 63.5003L279.545 61.8705L284.242 62.1167L284.018 66.4068L283.7 68.3369L284.017 70.9971L283.674 77.5401L285.927 77.6582L285.843 79.264L278.533 78.8809ZM302.503 75.8593C301.241 75.7931 300.144 75.4873 299.211 74.9417C298.295 74.381 297.59 73.6071 297.097 72.6199C296.621 71.6176 296.42 70.4134 296.494 69.0074C296.567 67.6173 296.892 66.4567 297.469 65.5256C298.048 64.5786 298.821 63.8821 299.79 63.4362C300.759 62.9743 301.859 62.7756 303.09 62.8401L303.096 64.5468C302.409 64.5108 301.809 64.6476 301.296 64.9572C300.8 65.2516 300.398 65.7352 300.091 66.4081C299.8 67.0657 299.627 67.9218 299.572 68.9764C299.501 70.3186 299.781 71.4067 300.41 72.2407C301.056 73.0597 301.962 73.4997 303.129 73.5608C303.832 73.5977 304.413 73.516 304.872 73.3157C305.348 73.1004 305.723 72.8236 305.997 72.4855C306.287 72.1482 306.505 71.7992 306.652 71.4384L308.618 71.5414C308.525 72.0972 308.328 72.6397 308.028 73.1687C307.744 73.6986 307.35 74.1746 306.847 74.5969C306.361 75.02 305.759 75.3489 305.041 75.5837C304.324 75.8185 303.478 75.9104 302.503 75.8593ZM297.929 69.1307L298.013 67.5249L305.851 67.9356L308.901 68.8885L308.858 69.7034L297.929 69.1307ZM305.851 67.9356C305.866 67.3436 305.774 66.802 305.575 66.311C305.378 65.8039 305.071 65.3953 304.654 65.0851C304.255 64.7597 303.735 64.5803 303.096 64.5468L303.09 62.8401C304.416 62.9096 305.522 63.2079 306.407 63.735C307.293 64.262 307.945 64.9691 308.363 65.8562C308.781 66.7433 308.96 67.7541 308.901 68.8885L305.851 67.9356ZM314 68.0503C313.489 68.0235 313.041 67.8638 312.655 67.5712C312.287 67.2635 312.118 66.8141 312.149 66.2229C312.182 65.5998 312.465 65.0939 312.998 64.7052C313.548 64.3015 314.244 64.0175 315.085 63.8533C315.944 63.674 316.837 63.6086 317.763 63.6572C319.297 63.7376 320.463 64.1111 321.261 64.7778C322.076 65.4453 322.442 66.4018 322.361 67.6473L319.458 67.0866C319.49 66.4794 319.29 66.0123 318.859 65.6853C318.443 65.3591 317.836 65.1751 317.037 65.1332C316.526 65.1064 316.035 65.1448 315.565 65.2483C315.096 65.3359 314.703 65.4995 314.386 65.7393C314.069 65.979 313.875 66.3213 313.803 66.7662L313.901 65.3534C314.476 65.3995 314.925 65.5432 315.249 65.7845C315.573 66.0098 315.716 66.3457 315.676 66.7923C315.639 67.1909 315.471 67.5105 315.17 67.7511C314.885 67.9765 314.496 68.0762 314 68.0503ZM322.741 76.8959C321.607 76.8364 320.76 76.4876 320.201 75.8495C319.642 75.1953 319.392 74.309 319.451 73.1906L319.485 72.5435L319.149 72.5259L319.319 69.2903L319.199 69.284L319.404 68.1172L319.458 67.0866L322.361 67.6473L322.049 73.5911C322.029 73.9746 322.109 74.2912 322.288 74.5409C322.467 74.7906 322.74 74.9251 323.108 74.9444C323.475 74.9636 323.761 74.8585 323.966 74.6288C324.17 74.3992 324.282 74.0927 324.302 73.7092L324.488 70.1621L326.453 70.2651L326.279 73.5965C326.222 74.683 325.889 75.5227 325.282 76.1157C324.691 76.6936 323.844 76.9536 322.741 76.8959ZM314.809 76.4561C313.579 76.3917 312.588 76.0433 311.836 75.4111C311.1 74.7797 310.759 73.9447 310.814 72.9062C310.853 72.1552 311.045 71.5484 311.39 71.0858C311.75 70.6241 312.226 70.2644 312.816 70.007C313.407 69.7335 314.083 69.5366 314.842 69.4162L316.977 69.0234C317.462 68.9527 317.884 68.8466 318.244 68.7053C318.604 68.5639 318.887 68.3624 319.093 68.1009C319.315 67.8401 319.436 67.502 319.458 67.0866L319.415 69.2953L319.319 69.2903C319.159 69.5864 318.906 69.8294 318.559 70.0196C318.23 70.1946 317.814 70.333 317.312 70.4349L316.439 70.5814C316.001 70.6866 315.602 70.8099 315.242 70.9512C314.898 71.0934 314.616 71.2789 314.396 71.5077C314.192 71.7373 314.079 72.0519 314.058 72.4513C314.029 73.0106 314.206 73.4524 314.589 73.777C314.974 74.0855 315.501 74.2573 316.173 74.2925C316.668 74.3185 317.137 74.2389 317.579 74.0538C318.038 73.8535 318.416 73.5209 318.713 73.0558C319.01 72.5747 319.18 71.9267 319.223 71.1118L319.988 71.1999C319.918 72.5261 319.638 73.5849 319.148 74.3764C318.674 75.1686 318.06 75.7293 317.306 76.0582C316.552 76.3712 315.72 76.5039 314.809 76.4561ZM333.3 77.4732C331.766 77.3929 330.672 76.8709 330.017 75.9073C329.364 74.9278 329.119 73.6412 329.282 72.0475L329.821 66.3559L326.537 66.1839L326.625 64.5062L327.416 64.5476C328.263 64.592 328.931 64.5309 329.421 64.3643C329.911 64.1817 330.271 63.8881 330.5 63.4835C330.73 63.063 330.863 62.5172 330.898 61.8461L330.927 61.2949L332.94 61.4004L332.336 72.9286C332.303 73.5677 332.428 74.087 332.711 74.4864C332.996 74.8698 333.425 75.0765 334.001 75.1067C334.608 75.1385 335.065 74.9782 335.372 74.6258C335.679 74.2734 335.849 73.7696 335.883 73.1145L336.017 70.574L338.006 70.6782L337.874 73.1948C337.801 74.5849 337.384 75.6685 336.622 76.4457C335.877 77.2078 334.77 77.5503 333.3 77.4732ZM332.673 66.5054L332.768 64.6839L338.616 64.9904L338.521 66.8119L332.673 66.5054Z" fill="white"/>
<path d="M382.112 72.5664L372.58 78.2243C372.502 78.2704 372.413 78.2945 372.322 78.2941C372.232 78.2937 372.143 78.2687 372.066 78.2219C371.989 78.1751 371.925 78.1082 371.883 78.0283C371.841 77.9484 371.821 77.8585 371.825 77.7682L372.565 63.6556C372.57 63.5652 372.599 63.4779 372.649 63.4029C372.7 63.3278 372.77 63.2679 372.852 63.2294C372.934 63.191 373.024 63.1754 373.114 63.1845C373.204 63.1935 373.29 63.2268 373.363 63.2808L382.251 69.9041L382.551 64.1789C382.556 64.0886 382.585 64.0013 382.636 63.9262C382.686 63.8512 382.756 63.7912 382.838 63.7528C382.92 63.7143 383.011 63.6988 383.101 63.7078C383.191 63.7169 383.276 63.7502 383.349 63.8041L393.564 71.4152C393.63 71.4644 393.682 71.5291 393.717 71.6036C393.752 71.6781 393.768 71.7601 393.764 71.8423C393.76 71.9244 393.735 72.0043 393.693 72.0747C393.65 72.1452 393.591 72.204 393.52 72.246L382.566 78.7476C382.488 78.7937 382.399 78.8179 382.309 78.8174C382.218 78.817 382.13 78.7921 382.052 78.7453C381.975 78.6985 381.912 78.6316 381.869 78.5517C381.827 78.4718 381.807 78.3819 381.812 78.2915L382.112 72.5664Z" fill="white"/>
<path d="M454.279 83.0244L455.064 68.045L458.468 68.2233L457.683 83.2028L454.279 83.0244ZM449.982 68.2593L450.139 65.2634L463.657 65.9718L463.5 68.9677L449.982 68.2593ZM465.193 83.5963L466.11 66.1004L469.441 66.275L468.906 76.4849L468.331 76.4548C468.399 75.1446 468.625 74.0429 469.009 73.1497C469.392 72.2566 469.924 71.5875 470.604 71.1425C471.3 70.6983 472.16 70.503 473.182 70.5566L473.326 70.5641C474.812 70.642 475.912 71.2124 476.625 72.2751C477.338 73.3379 477.644 74.844 477.542 76.7933L477.152 84.2231L473.821 84.0485L474.227 76.3072C474.27 75.4763 474.065 74.8086 473.611 74.3042C473.172 73.8005 472.57 73.5286 471.803 73.4884C470.988 73.4457 470.311 73.6826 469.771 74.1991C469.248 74.7004 468.964 75.3825 468.919 76.2453L468.524 83.7709L465.193 83.5963ZM481.357 84.4435L482.039 71.4293L485.37 71.6039L484.688 84.6181L481.357 84.4435ZM480.087 73.8265L480.218 71.3339L485.37 71.6039L485.24 74.0965L480.087 73.8265ZM483.343 69.9355C482.688 69.9012 482.209 69.7079 481.907 69.3556C481.622 68.9882 481.493 68.5488 481.52 68.0375C481.548 67.4943 481.723 67.0628 482.044 66.7432C482.381 66.4244 482.878 66.2822 483.533 66.3165C484.188 66.3508 484.658 66.5437 484.944 66.8952C485.23 67.2466 485.359 67.694 485.331 68.2372C485.304 68.7485 485.129 69.172 484.807 69.5076C484.486 69.8272 483.998 69.9699 483.343 69.9355ZM488.528 84.8193L489.21 71.8052L491.846 71.9433L491.554 77.5277L491.314 77.5151C491.383 76.1889 491.617 75.0956 492.015 74.2353C492.413 73.3589 492.967 72.7151 493.678 72.3037C494.404 71.8931 495.287 71.7151 496.326 71.7695L496.469 71.777C498.019 71.8583 499.167 72.4231 499.913 73.4716C500.66 74.5041 500.982 76.011 500.878 77.9923L500.487 85.4461L497.156 85.2715L497.562 77.5301C497.604 76.7312 497.406 76.0719 496.968 75.5523C496.547 75.0336 495.937 74.7533 495.138 74.7114C494.323 74.6687 493.647 74.8896 493.108 75.3741C492.587 75.8434 492.304 76.5015 492.26 77.3484L491.859 84.9939L488.528 84.8193ZM513.177 86.1111L509.134 79.7948L507.192 79.6931L513.092 73.0567L516.567 73.2389L511.127 79.3705L511.286 77.6966L516.939 86.3083L513.177 86.1111ZM504.069 85.6338L504.986 68.1378L508.317 68.3124L507.4 85.8084L504.069 85.6338Z" fill="black"/>
<path d="M549.692 88.0247L550.609 70.5287L555.259 70.7724L559.097 81.4519L559.529 81.4745L564.438 71.2534L569.16 71.5009L568.243 88.9969L564.863 88.8198L565.646 73.8883L566.075 73.9588L560.761 85.0238L557.285 84.8417L553.133 73.2805L553.591 73.2565L552.808 88.188L549.692 88.0247ZM572.919 89.2419L573.601 76.2278L576.932 76.4024L576.25 89.4165L572.919 89.2419ZM571.649 78.6249L571.779 76.1323L576.932 76.4024L576.802 78.895L571.649 78.6249ZM574.905 74.734C574.25 74.6997 573.771 74.5063 573.469 74.1541C573.184 73.7866 573.055 73.3473 573.082 72.836C573.11 72.2927 573.285 71.8613 573.606 71.5416C573.943 71.2229 574.439 71.0806 575.095 71.115C575.75 71.1493 576.22 71.3422 576.506 71.6936C576.792 72.0451 576.921 72.4924 576.892 73.0357C576.866 73.547 576.691 73.9704 576.369 74.306C576.048 74.6257 575.56 74.7683 574.905 74.734ZM580.09 89.6177L580.772 76.6036L583.408 76.7418L583.115 82.3261L582.876 82.3135C582.945 80.9874 583.179 79.8941 583.576 79.0337C583.975 78.1574 584.529 77.5135 585.24 77.1021C585.966 76.6916 586.849 76.5135 587.887 76.568L588.031 76.5755C589.581 76.6567 590.729 77.2216 591.475 78.2701C592.222 79.3026 592.544 80.8095 592.44 82.7907L592.049 90.2445L588.718 90.0699L589.124 82.3285C589.165 81.5296 588.968 80.8704 588.53 80.3508C588.109 79.832 587.499 79.5517 586.7 79.5098C585.885 79.4671 585.208 79.688 584.67 80.1725C584.149 80.6419 583.866 81.3 583.822 82.1468L583.421 89.7923L580.09 89.6177ZM601.278 90.8964C600.08 90.8336 599.097 90.6299 598.33 90.2853C597.58 89.9255 597.032 89.3681 596.688 88.613C596.343 87.842 596.204 86.8253 596.271 85.563L596.913 73.7725L600.028 73.9358L599.375 85.942C599.342 86.5811 599.483 87.0853 599.8 87.4544C600.134 87.8083 600.621 88.002 601.26 88.0355L603.297 88.1423L603.148 90.9944L601.278 90.8964ZM594.507 79.7748L594.635 77.3302L603.839 77.8125L603.71 80.2571L594.507 79.7748Z" fill="black"/>
<path d="M642.517 93.346C640.967 93.2648 639.67 92.9485 638.625 92.3971C637.597 91.8465 636.825 91.1251 636.311 90.233C635.798 89.3249 635.571 88.3196 635.628 87.2171L638.96 87.3917C638.935 87.8551 639.039 88.3171 639.272 88.7779C639.505 89.2227 639.894 89.5956 640.439 89.8965C641 90.1983 641.744 90.3735 642.67 90.422C643.501 90.4656 644.202 90.3822 644.774 90.1718C645.346 89.9615 645.778 89.6717 646.07 89.3024C646.362 88.9172 646.521 88.4769 646.547 87.9816C646.58 87.3585 646.342 86.8493 645.834 86.4542C645.327 86.0431 644.525 85.7607 643.427 85.6071L641.9 85.4068C640.23 85.1751 638.915 84.5855 637.955 83.638C637.012 82.6753 636.579 81.451 636.657 79.965C636.716 78.8466 637.03 77.9017 637.599 77.1304C638.169 76.3432 638.937 75.7585 639.902 75.3765C640.884 74.9794 642.014 74.8143 643.292 74.8813C644.619 74.9508 645.749 75.2424 646.683 75.756C647.618 76.2696 648.326 76.9636 648.809 77.8381C649.293 78.6966 649.505 79.6931 649.446 80.8275L646.114 80.6529C646.139 80.1736 646.043 79.7279 645.824 79.3159C645.622 78.8887 645.296 78.5432 644.845 78.2792C644.411 78.0001 643.842 77.8421 643.139 77.8053C642.468 77.7701 641.903 77.8527 641.444 78.0529C640.985 78.2532 640.633 78.5392 640.39 78.9109C640.146 79.2827 640.012 79.6922 639.989 80.1396C639.96 80.6829 640.135 81.1727 640.513 81.609C640.891 82.0294 641.51 82.2942 642.37 82.4033L643.896 82.6275C645.137 82.7887 646.218 83.1097 647.138 83.5905C648.058 84.0713 648.754 84.6926 649.227 85.4544C649.716 86.217 649.933 87.1176 649.879 88.1562C649.821 89.2587 649.482 90.2183 648.863 91.035C648.244 91.8357 647.387 92.4397 646.292 92.8469C645.213 93.255 643.955 93.4214 642.517 93.346ZM658.259 94.1711C657.141 94.1124 656.168 93.8692 655.341 93.4413C654.531 93.0143 653.862 92.4666 653.337 91.7982C652.828 91.1146 652.45 90.3658 652.205 89.5519C651.975 88.7387 651.882 87.9167 651.925 87.0859L651.949 86.6305C651.994 85.7677 652.174 84.9439 652.487 84.1593C652.818 83.3594 653.271 82.6622 653.847 82.0675C654.439 81.4577 655.153 80.9904 655.987 80.6656C656.822 80.3249 657.775 80.1825 658.845 80.2386C660.251 80.3123 661.409 80.6854 662.319 81.358C663.246 82.0154 663.923 82.86 664.35 83.8917C664.777 84.9075 664.961 85.9906 664.9 87.141L664.838 88.3393L653.309 87.7352L653.416 85.698L662.859 86.1929L661.776 87.1455C661.819 86.3146 661.737 85.5973 661.528 84.9936C661.319 84.3898 660.976 83.9152 660.497 83.5696C660.035 83.225 659.436 83.0334 658.701 82.9948C657.966 82.9563 657.334 83.0914 656.805 83.4002C656.276 83.7089 655.859 84.1757 655.554 84.8006C655.266 85.4104 655.098 86.1546 655.052 87.0334C655.01 87.8483 655.099 88.582 655.322 89.2345C655.545 89.8711 655.91 90.3869 656.418 90.7821C656.927 91.1612 657.589 91.3721 658.404 91.4148C659.219 91.4575 659.89 91.3325 660.418 91.0397C660.947 90.731 661.296 90.3407 661.465 89.8689L664.533 90.0297C664.294 90.9144 663.885 91.6781 663.307 92.3207C662.729 92.9633 662.006 93.4462 661.14 93.7693C660.29 94.0932 659.33 94.2272 658.259 94.1711ZM667.489 94.1982L668.406 76.7022L671.738 76.8768L670.821 94.3727L667.489 94.1982ZM666.646 79.1093L666.776 76.6168L671.738 76.8768L671.607 79.3693L666.646 79.1093ZM674.792 94.5809L675.709 77.0849L679.04 77.2595L678.123 94.7555L674.792 94.5809ZM673.948 79.492L674.079 76.9995L679.04 77.2595L678.91 79.752L673.948 79.492Z" fill="black"/>
<path d="M711.029 96.9807L711.114 95.3509L713.247 95.4627L713.936 82.3287L711.85 82.2194L711.936 80.5897L717.28 80.8698L716.507 95.6335L718.688 95.7478L718.602 97.3776L711.029 96.9807ZM724.415 97.8985C723.552 97.8533 722.849 97.6642 722.306 97.3313C721.779 96.9833 721.395 96.5226 721.153 95.9491C720.91 95.3756 720.777 94.7117 720.752 93.9574L720.713 92.8739C720.699 91.9118 720.495 91.2202 720.101 90.799C719.706 90.3777 719.101 90.1458 718.287 90.1031L716.801 90.0252L716.824 89.5698L720.515 89.7633C721.842 89.8168 722.752 90.1929 723.244 90.8916C723.753 91.5752 723.991 92.541 723.957 93.7889L723.946 94.4613C723.957 94.8624 724.036 95.195 724.182 95.459C724.329 95.723 724.61 95.8659 725.025 95.8877C725.441 95.9094 725.742 95.8051 725.931 95.5746C726.12 95.3282 726.225 94.9973 726.247 94.5818L726.413 91.4182L728.378 91.5212L728.227 94.3972C728.17 95.4997 727.835 96.3794 727.224 97.0363C726.63 97.6781 725.693 97.9655 724.415 97.8985ZM716.801 90.0252L716.894 88.2516L721.327 88.484C722.382 88.5393 723.225 88.3511 723.856 87.9196C724.504 87.4889 724.852 86.8022 724.902 85.8595C724.951 84.9168 724.676 84.2054 724.076 83.7253C723.493 83.2302 722.675 82.9549 721.62 82.8997L717.186 82.6673L717.28 80.8698L722.721 81.1549C724.431 81.2445 725.785 81.684 726.786 82.4734C727.802 83.2477 728.272 84.3698 728.195 85.8398C728.119 87.2938 727.542 88.3691 726.464 89.0656C725.387 89.7462 724.01 90.0425 722.332 89.9546L720.582 89.8629L720.156 90.2011L716.801 90.0252ZM736.419 98.5997C735.157 98.5336 734.059 98.2277 733.127 97.6821C732.211 97.1214 731.506 96.3475 731.013 95.3603C730.537 94.3581 730.336 93.1539 730.409 91.7478C730.482 90.3577 730.808 89.1971 731.385 88.2661C731.963 87.3191 732.737 86.6226 733.706 86.1767C734.675 85.7148 735.775 85.5161 737.005 85.5805L737.012 87.2872C736.325 87.2512 735.725 87.388 735.212 87.6976C734.716 87.992 734.314 88.4757 734.006 89.1485C733.716 89.8062 733.543 90.6623 733.487 91.7168C733.417 93.059 733.696 94.1471 734.326 94.9812C734.972 95.8001 735.878 96.2401 737.044 96.3013C737.747 96.3381 738.328 96.2564 738.787 96.0562C739.263 95.8408 739.638 95.564 739.912 95.2259C740.203 94.8886 740.421 94.5396 740.568 94.1788L742.533 94.2818C742.44 94.8377 742.244 95.3801 741.944 95.9091C741.659 96.439 741.266 96.9151 740.763 97.3373C740.276 97.7604 739.674 98.0894 738.957 98.3242C738.24 98.5589 737.394 98.6508 736.419 98.5997ZM731.845 91.8711L731.929 90.2653L739.766 90.676L742.817 91.629L742.774 92.4439L731.845 91.8711ZM739.766 90.676C739.781 90.084 739.69 89.5425 739.491 89.0514C739.293 88.5444 738.986 88.1357 738.57 87.8255C738.17 87.5002 737.651 87.3207 737.012 87.2872L737.005 85.5805C738.331 85.65 739.437 85.9483 740.323 86.4754C741.209 87.0025 741.861 87.7096 742.279 88.5967C742.697 89.4838 742.876 90.4945 742.817 91.629L739.766 90.676ZM753.586 99.4754C752.404 99.4134 751.451 99.1071 750.727 98.5564C750.018 98.0066 749.514 97.2432 749.212 96.2661C748.927 95.2898 748.82 94.1146 748.893 92.7405L748.726 92.7077C748.796 91.3656 749.04 90.2248 749.458 89.2853C749.877 88.3299 750.483 87.6167 751.277 87.1456C752.087 86.6593 753.076 86.4468 754.242 86.5079C755.376 86.5674 756.362 86.8754 757.198 87.4319C758.034 87.9884 758.666 88.7585 759.095 89.7424C759.524 90.7262 759.703 91.9131 759.63 93.3032C759.559 94.6613 759.258 95.8152 758.727 96.7647C758.198 97.6983 757.488 98.3981 756.599 98.8642C755.709 99.3303 754.705 99.534 753.586 99.4754ZM752.615 97.3816C753.318 97.4185 753.934 97.2825 754.463 96.9738C754.991 96.6651 755.409 96.1823 755.716 95.5254C756.039 94.8694 756.225 94.0701 756.274 93.1274C756.325 92.1527 756.224 91.3303 755.971 90.6601C755.735 89.9748 755.37 89.451 754.876 89.0886C754.383 88.7103 753.785 88.5027 753.082 88.4659C752.379 88.429 751.755 88.5726 751.209 88.8964C750.664 89.2043 750.23 89.6863 749.907 90.3423C749.585 90.9823 749.399 91.7897 749.348 92.7643C749.298 93.7071 749.4 94.5215 749.652 95.2076C749.905 95.8938 750.286 96.4184 750.796 96.7816C751.305 97.1448 751.912 97.3448 752.615 97.3816ZM743.895 103.269L743.979 101.664L745.896 101.764L746.618 87.9829L744.821 87.8887L744.906 86.259L749.604 86.5052L749.379 90.7953L749.062 92.7253L749.379 95.3856L749.036 101.929L751.289 102.047L751.205 103.652L743.895 103.269ZM767.865 100.248C766.602 100.182 765.505 99.8757 764.572 99.3301C763.656 98.7694 762.952 97.9955 762.459 97.0083C761.983 96.006 761.781 94.8019 761.855 93.3958C761.928 92.0057 762.253 90.8451 762.831 89.9141C763.409 88.967 764.183 88.2706 765.151 87.8247C766.121 87.3628 767.221 87.1641 768.451 87.2285L768.458 88.9352C767.771 88.8992 767.171 89.036 766.658 89.3456C766.162 89.64 765.76 90.1237 765.452 90.7965C765.161 91.4542 764.988 92.3103 764.933 93.3648C764.863 94.707 765.142 95.7951 765.771 96.6292C766.417 97.4481 767.323 97.8881 768.49 97.9493C769.193 97.9861 769.774 97.9044 770.233 97.7042C770.709 97.4888 771.084 97.212 771.358 96.8739C771.648 96.5366 771.867 96.1876 772.014 95.8268L773.979 95.9298C773.886 96.4857 773.689 97.0281 773.389 97.5571C773.105 98.087 772.712 98.5631 772.209 98.9853C771.722 99.4084 771.12 99.7374 770.403 99.9721C769.685 100.207 768.839 100.299 767.865 100.248ZM763.291 93.5191L763.375 91.9133L771.212 92.324L774.262 93.277L774.22 94.0919L763.291 93.5191ZM771.212 92.324C771.227 91.732 771.135 91.1905 770.937 90.6994C770.739 90.1923 770.432 89.7837 770.016 89.4735C769.616 89.1481 769.097 88.9687 768.458 88.9352L768.451 87.2285C769.777 87.298 770.883 87.5963 771.769 88.1234C772.654 88.6505 773.306 89.3576 773.724 90.2447C774.142 91.1318 774.322 92.1425 774.262 93.277L771.212 92.324ZM779.362 92.4387C778.85 92.4119 778.402 92.2522 778.017 91.9597C777.648 91.652 777.48 91.2025 777.511 90.6113C777.543 89.9882 777.826 89.4823 778.359 89.0937C778.909 88.6899 779.605 88.4059 780.447 88.2417C781.305 88.0624 782.198 87.9971 783.125 88.0456C784.659 88.126 785.825 88.4995 786.623 89.1662C787.437 89.8338 787.803 90.7903 787.722 92.0357L784.82 91.475C784.851 90.8679 784.652 90.4008 784.22 90.0737C783.805 89.7475 783.197 89.5635 782.398 89.5216C781.887 89.4948 781.396 89.5332 780.926 89.6368C780.457 89.7243 780.064 89.888 779.747 90.1277C779.43 90.3674 779.236 90.7098 779.165 91.1546L779.263 89.7418C779.837 89.7879 780.286 89.9316 780.61 90.1729C780.935 90.3982 781.077 90.7341 781.038 91.1807C781.001 91.5793 780.832 91.8989 780.531 92.1395C780.247 92.3649 779.857 92.4647 779.362 92.4387ZM788.103 101.284C786.968 101.225 786.121 100.876 785.562 100.238C785.003 99.5838 784.753 98.6975 784.812 97.579L784.846 96.9319L784.51 96.9143L784.68 93.6787L784.56 93.6725L784.766 92.5056L784.82 91.475L787.722 92.0357L787.411 97.9795C787.391 98.363 787.47 98.6796 787.649 98.9293C787.828 99.1791 788.102 99.3135 788.469 99.3328C788.837 99.3521 789.123 99.2469 789.327 99.0173C789.531 98.7876 789.643 98.4811 789.664 98.0976L789.849 94.5505L791.815 94.6535L791.64 97.9849C791.583 99.0714 791.251 99.9112 790.643 100.504C790.052 101.082 789.205 101.342 788.103 101.284ZM780.171 100.845C778.94 100.78 777.949 100.432 777.197 99.7995C776.461 99.1681 776.121 98.3332 776.175 97.2946C776.214 96.5436 776.406 95.9368 776.751 95.4742C777.112 95.0125 777.587 94.6529 778.178 94.3954C778.769 94.122 779.444 93.925 780.203 93.8046L782.339 93.4118C782.823 93.3411 783.245 93.235 783.605 93.0937C783.965 92.9523 784.248 92.7509 784.454 92.4893C784.676 92.2285 784.798 91.8905 784.82 91.475L784.776 93.6838L784.68 93.6787C784.52 93.9748 784.267 94.2179 783.921 94.408C783.591 94.583 783.175 94.7214 782.673 94.8233L781.8 94.9698C781.362 95.075 780.963 95.1983 780.603 95.3397C780.26 95.4819 779.977 95.6674 779.757 95.8961C779.553 96.1258 779.44 96.4403 779.419 96.8398C779.39 97.399 779.567 97.8409 779.951 98.1654C780.335 98.4739 780.863 98.6458 781.534 98.6809C782.029 98.7069 782.498 98.6273 782.94 98.4422C783.399 98.242 783.777 97.9093 784.074 97.4442C784.372 96.9631 784.542 96.3151 784.585 95.5002L785.349 95.5884C785.279 96.9146 785 97.9734 784.51 98.7648C784.035 99.5571 783.421 100.118 782.667 100.447C781.914 100.76 781.082 100.892 780.171 100.845ZM798.661 101.862C797.127 101.781 796.033 101.259 795.379 100.296C794.725 99.3162 794.48 98.0296 794.644 96.436L795.182 90.7444L791.899 90.5723L791.987 88.8946L792.778 88.936C793.624 88.9804 794.293 88.9193 794.782 88.7527C795.272 88.5701 795.632 88.2765 795.861 87.872C796.092 87.4515 796.225 86.9057 796.26 86.2346L796.289 85.6833L798.302 85.7888L797.698 97.317C797.664 97.9561 797.789 98.4754 798.073 98.8748C798.357 99.2582 798.787 99.465 799.362 99.4951C799.969 99.5269 800.426 99.3666 800.733 99.0142C801.04 98.6618 801.21 98.158 801.245 97.5029L801.378 94.9624L803.367 95.0667L803.235 97.5832C803.162 98.9733 802.745 100.057 801.983 100.834C801.239 101.596 800.131 101.939 798.661 101.862ZM798.034 90.8938L798.13 89.0723L803.978 89.3788L803.882 91.2003L798.034 90.8938Z" fill="white"/>
<path d="M847.473 96.9548L837.941 102.613C837.863 102.659 837.774 102.683 837.684 102.683C837.593 102.682 837.505 102.657 837.427 102.61C837.35 102.564 837.287 102.497 837.244 102.417C837.202 102.337 837.182 102.247 837.187 102.157L837.926 88.044C837.931 87.9537 837.96 87.8663 838.011 87.7913C838.061 87.7163 838.131 87.6563 838.213 87.6179C838.295 87.5794 838.386 87.5639 838.476 87.5729C838.566 87.582 838.651 87.6152 838.724 87.6692L847.613 94.2925L847.913 88.5673C847.917 88.477 847.947 88.3897 847.997 88.3147C848.048 88.2396 848.117 88.1797 848.199 88.1412C848.281 88.1028 848.372 88.0872 848.462 88.0963C848.552 88.1053 848.638 88.1386 848.71 88.1926L858.925 95.8036C858.991 95.8528 859.044 95.9175 859.079 95.992C859.114 96.0665 859.13 96.1485 859.126 96.2307C859.121 96.3129 859.097 96.3927 859.054 96.4632C859.012 96.5336 858.952 96.5924 858.881 96.6345L847.927 103.136C847.849 103.182 847.761 103.206 847.67 103.206C847.58 103.205 847.491 103.181 847.414 103.134C847.336 103.087 847.273 103.02 847.231 102.94C847.188 102.86 847.168 102.77 847.173 102.68L847.473 96.9548Z" fill="white"/>
<path d="M919.641 107.413L920.426 92.4336L923.829 92.612L923.044 107.591L919.641 107.413ZM915.343 92.6479L915.5 89.6521L929.018 90.3605L928.861 93.3564L915.343 92.6479ZM930.554 107.985L931.471 90.489L934.802 90.6636L934.267 100.874L933.692 100.843C933.761 99.5333 933.987 98.4316 934.37 97.5384C934.753 96.6453 935.285 95.9762 935.965 95.5312C936.661 95.087 937.521 94.8917 938.543 94.9453L938.687 94.9528C940.173 95.0307 941.273 95.601 941.986 96.6638C942.7 97.7266 943.005 99.2327 942.903 101.182L942.514 108.612L939.182 108.437L939.588 100.696C939.631 99.865 939.426 99.1973 938.972 98.6928C938.534 98.1892 937.931 97.9173 937.164 97.8771C936.349 97.8344 935.672 98.0713 935.132 98.5877C934.609 99.0891 934.325 99.7711 934.28 100.634L933.885 108.16L930.554 107.985ZM946.718 108.832L947.4 95.818L950.732 95.9926L950.05 109.007L946.718 108.832ZM945.448 98.2151L945.579 95.7226L950.732 95.9926L950.601 98.4852L945.448 98.2151ZM948.704 94.3242C948.049 94.2899 947.571 94.0966 947.269 93.7443C946.984 93.3769 946.854 92.9375 946.881 92.4262C946.91 91.8829 947.084 91.4515 947.406 91.1319C947.743 90.8131 948.239 90.6708 948.894 90.7052C949.549 90.7395 950.02 90.9324 950.306 91.2839C950.592 91.6353 950.72 92.0827 950.692 92.6259C950.665 93.1372 950.491 93.5607 950.169 93.8963C949.848 94.2159 949.359 94.3585 948.704 94.3242ZM953.889 109.208L954.571 96.1938L957.208 96.332L956.915 101.916L956.675 101.904C956.745 100.578 956.978 99.4843 957.376 98.6239C957.774 97.7476 958.329 97.1037 959.039 96.6923C959.766 96.2818 960.648 96.1038 961.687 96.1582L961.831 96.1657C963.381 96.2469 964.529 96.8118 965.275 97.8603C966.022 98.8928 966.343 100.4 966.239 102.381L965.849 109.835L962.517 109.66L962.923 101.919C962.965 101.12 962.767 100.461 962.33 99.941C961.908 99.4222 961.298 99.1419 960.499 99.1001C959.684 99.0574 959.008 99.2782 958.47 99.7628C957.949 100.232 957.666 100.89 957.621 101.737L957.221 109.383L953.889 109.208ZM978.538 110.5L974.495 104.183L972.554 104.082L978.453 97.4454L981.928 97.6275L976.488 103.759L976.648 102.085L982.301 110.697L978.538 110.5ZM969.43 110.022L970.347 92.5265L973.679 92.701L972.762 110.197L969.43 110.022Z" fill="black"/>
<path d="M1015.05 112.413L1015.97 94.9174L1020.62 95.161L1024.46 105.841L1024.89 105.863L1029.8 95.6421L1034.52 95.8896L1033.6 113.386L1030.22 113.208L1031.01 98.2769L1031.44 98.3475L1026.12 109.413L1022.65 109.23L1018.49 97.6692L1018.95 97.6451L1018.17 112.577L1015.05 112.413ZM1038.28 113.631L1038.96 100.616L1042.29 100.791L1041.61 113.805L1038.28 113.631ZM1037.01 103.014L1037.14 100.521L1042.29 100.791L1042.16 103.284L1037.01 103.014ZM1040.27 99.1227C1039.61 99.0883 1039.13 98.895 1038.83 98.5427C1038.55 98.1753 1038.42 97.7359 1038.44 97.2246C1038.47 96.6814 1038.65 96.2499 1038.97 95.9303C1039.3 95.6115 1039.8 95.4693 1040.46 95.5036C1041.11 95.538 1041.58 95.7308 1041.87 96.0823C1042.15 96.4337 1042.28 96.8811 1042.25 97.4244C1042.23 97.9357 1042.05 98.3591 1041.73 98.6947C1041.41 99.0143 1040.92 99.157 1040.27 99.1227ZM1045.45 114.006L1046.13 100.992L1048.77 101.13L1048.48 106.715L1048.24 106.702C1048.31 105.376 1048.54 104.283 1048.94 103.422C1049.34 102.546 1049.89 101.902 1050.6 101.491C1051.33 101.08 1052.21 100.902 1053.25 100.957L1053.39 100.964C1054.94 101.045 1056.09 101.61 1056.84 102.659C1057.58 103.691 1057.91 105.198 1057.8 107.179L1057.41 114.633L1054.08 114.459L1054.48 106.717C1054.53 105.918 1054.33 105.259 1053.89 104.739C1053.47 104.221 1052.86 103.94 1052.06 103.899C1051.25 103.856 1050.57 104.077 1050.03 104.561C1049.51 105.031 1049.23 105.689 1049.18 106.535L1048.78 114.181L1045.45 114.006ZM1066.64 115.285C1065.44 115.222 1064.46 115.019 1063.69 114.674C1062.94 114.314 1062.39 113.757 1062.05 113.002C1061.7 112.231 1061.57 111.214 1061.63 109.952L1062.27 98.1611L1065.39 98.3244L1064.74 110.331C1064.7 110.97 1064.84 111.474 1065.16 111.843C1065.5 112.197 1065.98 112.391 1066.62 112.424L1068.66 112.531L1068.51 115.383L1066.64 115.285ZM1059.87 104.163L1060 101.719L1069.2 102.201L1069.07 104.646L1059.87 104.163Z" fill="black"/>
<path d="M1107.88 117.735C1106.33 117.653 1105.03 117.337 1103.99 116.786C1102.96 116.235 1102.19 115.514 1101.67 114.622C1101.16 113.714 1100.93 112.708 1100.99 111.606L1104.32 111.78C1104.3 112.244 1104.4 112.706 1104.63 113.167C1104.87 113.611 1105.26 113.984 1105.8 114.285C1106.36 114.587 1107.1 114.762 1108.03 114.811C1108.86 114.854 1109.56 114.771 1110.14 114.56C1110.71 114.35 1111.14 114.06 1111.43 113.691C1111.72 113.306 1111.88 112.866 1111.91 112.37C1111.94 111.747 1111.7 111.238 1111.2 110.843C1110.69 110.432 1109.89 110.149 1108.79 109.996L1107.26 109.796C1105.59 109.564 1104.28 108.974 1103.32 108.027C1102.37 107.064 1101.94 105.84 1102.02 104.354C1102.08 103.235 1102.39 102.29 1102.96 101.519C1103.53 100.732 1104.3 100.147 1105.26 99.7652C1106.25 99.3681 1107.38 99.203 1108.65 99.27C1109.98 99.3395 1111.11 99.631 1112.04 100.145C1112.98 100.658 1113.69 101.352 1114.17 102.227C1114.65 103.085 1114.87 104.082 1114.81 105.216L1111.48 105.042C1111.5 104.562 1111.4 104.117 1111.19 103.705C1110.98 103.277 1110.66 102.932 1110.21 102.668C1109.77 102.389 1109.2 102.231 1108.5 102.194C1107.83 102.159 1107.26 102.241 1106.81 102.442C1106.35 102.642 1105.99 102.928 1105.75 103.3C1105.51 103.671 1105.37 104.081 1105.35 104.528C1105.32 105.072 1105.5 105.561 1105.87 105.998C1106.25 106.418 1106.87 106.683 1107.73 106.792L1109.26 107.016C1110.5 107.177 1111.58 107.498 1112.5 107.979C1113.42 108.46 1114.12 109.081 1114.59 109.843C1115.08 110.606 1115.29 111.506 1115.24 112.545C1115.18 113.647 1114.84 114.607 1114.22 115.424C1113.61 116.224 1112.75 116.828 1111.65 117.236C1110.57 117.644 1109.32 117.81 1107.88 117.735ZM1123.62 118.56C1122.5 118.501 1121.53 118.258 1120.7 117.83C1119.89 117.403 1119.22 116.855 1118.7 116.187C1118.19 115.503 1117.81 114.755 1117.57 113.941C1117.34 113.127 1117.24 112.305 1117.29 111.475L1117.31 111.019C1117.36 110.156 1117.54 109.333 1117.85 108.548C1118.18 107.748 1118.63 107.051 1119.21 106.456C1119.8 105.846 1120.51 105.379 1121.35 105.054C1122.18 104.714 1123.14 104.571 1124.21 104.627C1125.61 104.701 1126.77 105.074 1127.68 105.747C1128.61 106.404 1129.28 107.249 1129.71 108.28C1130.14 109.296 1130.32 110.379 1130.26 111.53L1130.2 112.728L1118.67 112.124L1118.78 110.087L1128.22 110.582L1127.14 111.534C1127.18 110.703 1127.1 109.986 1126.89 109.382C1126.68 108.778 1126.34 108.304 1125.86 107.958C1125.4 107.614 1124.8 107.422 1124.06 107.384C1123.33 107.345 1122.7 107.48 1122.17 107.789C1121.64 108.098 1121.22 108.564 1120.92 109.189C1120.63 109.799 1120.46 110.543 1120.41 111.422C1120.37 112.237 1120.46 112.971 1120.68 113.623C1120.91 114.26 1121.27 114.776 1121.78 115.171C1122.29 115.55 1122.95 115.761 1123.77 115.804C1124.58 115.846 1125.25 115.721 1125.78 115.428C1126.31 115.12 1126.66 114.729 1126.83 114.258L1129.89 114.418C1129.66 115.303 1129.25 116.067 1128.67 116.709C1128.09 117.352 1127.37 117.835 1126.5 118.158C1125.65 118.482 1124.69 118.616 1123.62 118.56ZM1132.85 118.587L1133.77 101.091L1137.1 101.265L1136.18 118.761L1132.85 118.587ZM1132.01 103.498L1132.14 101.005L1137.1 101.265L1136.97 103.758L1132.01 103.498ZM1140.15 118.97L1141.07 101.474L1144.4 101.648L1143.48 119.144L1140.15 118.97ZM1139.31 103.881L1139.44 101.388L1144.4 101.648L1144.27 104.141L1139.31 103.881Z" fill="black"/>
<path d="M1176.39 121.369L1176.48 119.74L1178.61 119.851L1179.3 106.717L1177.21 106.608L1177.3 104.978L1182.64 105.258L1181.87 120.022L1184.05 120.136L1183.96 121.766L1176.39 121.369ZM1189.78 122.287C1188.91 122.242 1188.21 122.053 1187.67 121.72C1187.14 121.372 1186.76 120.911 1186.51 120.338C1186.27 119.764 1186.14 119.1 1186.11 118.346L1186.07 117.263C1186.06 116.3 1185.86 115.609 1185.46 115.188C1185.07 114.766 1184.46 114.534 1183.65 114.492L1182.16 114.414L1182.19 113.958L1185.88 114.152C1187.2 114.205 1188.11 114.582 1188.61 115.28C1189.11 115.964 1189.35 116.93 1189.32 118.178L1189.31 118.85C1189.32 119.251 1189.4 119.584 1189.54 119.848C1189.69 120.112 1189.97 120.255 1190.39 120.276C1190.8 120.298 1191.1 120.194 1191.29 119.963C1191.48 119.717 1191.59 119.386 1191.61 118.971L1191.77 115.807L1193.74 115.91L1193.59 118.786C1193.53 119.888 1193.2 120.768 1192.59 121.425C1191.99 122.067 1191.05 122.354 1189.78 122.287ZM1182.16 114.414L1182.25 112.64L1186.69 112.873C1187.74 112.928 1188.59 112.74 1189.22 112.308C1189.87 111.878 1190.21 111.191 1190.26 110.248C1190.31 109.305 1190.04 108.594 1189.44 108.114C1188.85 107.619 1188.04 107.344 1186.98 107.288L1182.55 107.056L1182.64 105.258L1188.08 105.544C1189.79 105.633 1191.15 106.073 1192.15 106.862C1193.16 107.636 1193.63 108.759 1193.56 110.228C1193.48 111.682 1192.9 112.758 1191.83 113.454C1190.75 114.135 1189.37 114.431 1187.69 114.343L1185.94 114.252L1185.52 114.59L1182.16 114.414ZM1201.78 122.988C1200.52 122.922 1199.42 122.616 1198.49 122.071C1197.57 121.51 1196.87 120.736 1196.37 119.749C1195.9 118.747 1195.7 117.543 1195.77 116.136C1195.84 114.746 1196.17 113.586 1196.75 112.655C1197.32 111.708 1198.1 111.011 1199.07 110.565C1200.04 110.103 1201.14 109.905 1202.37 109.969L1202.37 111.676C1201.69 111.64 1201.09 111.777 1200.57 112.086C1200.08 112.381 1199.68 112.864 1199.37 113.537C1199.08 114.195 1198.9 115.051 1198.85 116.106C1198.78 117.448 1199.06 118.536 1199.69 119.37C1200.33 120.189 1201.24 120.629 1202.41 120.69C1203.11 120.727 1203.69 120.645 1204.15 120.445C1204.62 120.229 1205 119.953 1205.27 119.615C1205.56 119.277 1205.78 118.928 1205.93 118.567L1207.89 118.67C1207.8 119.226 1207.6 119.769 1207.3 120.298C1207.02 120.828 1206.63 121.304 1206.12 121.726C1205.64 122.149 1205.04 122.478 1204.32 122.713C1203.6 122.948 1202.76 123.039 1201.78 122.988ZM1197.21 116.26L1197.29 114.654L1205.13 115.065L1208.18 116.018L1208.14 116.833L1197.21 116.26ZM1205.13 115.065C1205.14 114.473 1205.05 113.931 1204.85 113.44C1204.65 112.933 1204.35 112.524 1203.93 112.214C1203.53 111.889 1203.01 111.709 1202.37 111.676L1202.37 109.969C1203.69 110.039 1204.8 110.337 1205.68 110.864C1206.57 111.391 1207.22 112.098 1207.64 112.985C1208.06 113.872 1208.24 114.883 1208.18 116.018L1205.13 115.065ZM1218.95 123.864C1217.77 123.802 1216.81 123.496 1216.09 122.945C1215.38 122.395 1214.87 121.632 1214.57 120.655C1214.29 119.678 1214.18 118.503 1214.25 117.129L1214.09 117.096C1214.16 115.754 1214.4 114.613 1214.82 113.674C1215.24 112.719 1215.84 112.005 1216.64 111.534C1217.45 111.048 1218.44 110.835 1219.6 110.897C1220.74 110.956 1221.72 111.264 1222.56 111.821C1223.4 112.377 1224.03 113.147 1224.46 114.131C1224.89 115.115 1225.06 116.302 1224.99 117.692C1224.92 119.05 1224.62 120.204 1224.09 121.153C1223.56 122.087 1222.85 122.787 1221.96 123.253C1221.07 123.719 1220.07 123.923 1218.95 123.864ZM1217.98 121.77C1218.68 121.807 1219.29 121.671 1219.82 121.362C1220.35 121.054 1220.77 120.571 1221.08 119.914C1221.4 119.258 1221.59 118.459 1221.64 117.516C1221.69 116.541 1221.59 115.719 1221.33 115.049C1221.1 114.363 1220.73 113.84 1220.24 113.477C1219.74 113.099 1219.15 112.891 1218.44 112.855C1217.74 112.818 1217.12 112.961 1216.57 113.285C1216.03 113.593 1215.59 114.075 1215.27 114.731C1214.95 115.371 1214.76 116.178 1214.71 117.153C1214.66 118.096 1214.76 118.91 1215.01 119.596C1215.27 120.282 1215.65 120.807 1216.16 121.17C1216.67 121.533 1217.27 121.733 1217.98 121.77ZM1209.26 127.658L1209.34 126.052L1211.26 126.153L1211.98 112.372L1210.18 112.277L1210.27 110.648L1214.97 110.894L1214.74 115.184L1214.42 117.114L1214.74 119.774L1214.4 126.317L1216.65 126.435L1216.57 128.041L1209.26 127.658ZM1233.23 124.636C1231.96 124.57 1230.87 124.264 1229.93 123.719C1229.02 123.158 1228.31 122.384 1227.82 121.397C1227.34 120.395 1227.14 119.191 1227.22 117.784C1227.29 116.394 1227.61 115.234 1228.19 114.303C1228.77 113.356 1229.54 112.659 1230.51 112.213C1231.48 111.751 1232.58 111.553 1233.81 111.617L1233.82 113.324C1233.13 113.288 1232.53 113.425 1232.02 113.734C1231.52 114.029 1231.12 114.512 1230.81 115.185C1230.52 115.843 1230.35 116.699 1230.29 117.754C1230.22 119.096 1230.5 120.184 1231.13 121.018C1231.78 121.837 1232.68 122.277 1233.85 122.338C1234.55 122.375 1235.14 122.293 1235.59 122.093C1236.07 121.877 1236.45 121.601 1236.72 121.263C1237.01 120.925 1237.23 120.576 1237.38 120.215L1239.34 120.318C1239.25 120.874 1239.05 121.417 1238.75 121.946C1238.47 122.476 1238.07 122.952 1237.57 123.374C1237.08 123.797 1236.48 124.126 1235.76 124.361C1235.05 124.596 1234.2 124.687 1233.23 124.636ZM1228.65 117.908L1228.74 116.302L1236.57 116.713L1239.62 117.666L1239.58 118.481L1228.65 117.908ZM1236.57 116.713C1236.59 116.121 1236.5 115.579 1236.3 115.088C1236.1 114.581 1235.79 114.172 1235.38 113.862C1234.98 113.537 1234.46 113.357 1233.82 113.324L1233.81 111.617C1235.14 111.687 1236.24 111.985 1237.13 112.512C1238.02 113.039 1238.67 113.746 1239.09 114.633C1239.5 115.52 1239.68 116.531 1239.62 117.666L1236.57 116.713ZM1244.72 116.827C1244.21 116.801 1243.76 116.641 1243.38 116.348C1243.01 116.041 1242.84 115.591 1242.87 115C1242.9 114.377 1243.19 113.871 1243.72 113.482C1244.27 113.079 1244.97 112.795 1245.81 112.63C1246.67 112.451 1247.56 112.386 1248.49 112.434C1250.02 112.515 1251.19 112.888 1251.98 113.555C1252.8 114.222 1253.16 115.179 1253.08 116.424L1250.18 115.864C1250.21 115.257 1250.01 114.789 1249.58 114.462C1249.17 114.136 1248.56 113.952 1247.76 113.91C1247.25 113.884 1246.76 113.922 1246.29 114.025C1245.82 114.113 1245.43 114.277 1245.11 114.516C1244.79 114.756 1244.6 115.098 1244.53 115.543L1244.62 114.13C1245.2 114.177 1245.65 114.32 1245.97 114.562C1246.3 114.787 1246.44 115.123 1246.4 115.569C1246.36 115.968 1246.19 116.288 1245.89 116.528C1245.61 116.754 1245.22 116.853 1244.72 116.827ZM1253.46 125.673C1252.33 125.614 1251.48 125.265 1250.92 124.627C1250.36 123.972 1250.11 123.086 1250.17 121.968L1250.21 121.321L1249.87 121.303L1250.04 118.067L1249.92 118.061L1250.13 116.894L1250.18 115.864L1253.08 116.424L1252.77 122.368C1252.75 122.752 1252.83 123.068 1253.01 123.318C1253.19 123.568 1253.46 123.702 1253.83 123.721C1254.2 123.741 1254.48 123.636 1254.69 123.406C1254.89 123.176 1255 122.87 1255.02 122.486L1255.21 118.939L1257.18 119.042L1257 122.374C1256.94 123.46 1256.61 124.3 1256 124.893C1255.41 125.471 1254.57 125.731 1253.46 125.673ZM1245.53 125.233C1244.3 125.169 1243.31 124.82 1242.56 124.188C1241.82 123.557 1241.48 122.722 1241.54 121.683C1241.58 120.932 1241.77 120.326 1242.11 119.863C1242.47 119.401 1242.95 119.042 1243.54 118.784C1244.13 118.511 1244.81 118.314 1245.56 118.193L1247.7 117.801C1248.18 117.73 1248.61 117.624 1248.97 117.482C1249.33 117.341 1249.61 117.14 1249.82 116.878C1250.04 116.617 1250.16 116.279 1250.18 115.864L1250.14 118.072L1250.04 118.067C1249.88 118.363 1249.63 118.607 1249.28 118.797C1248.95 118.972 1248.54 119.11 1248.03 119.212L1247.16 119.358C1246.72 119.464 1246.32 119.587 1245.96 119.728C1245.62 119.871 1245.34 120.056 1245.12 120.285C1244.91 120.514 1244.8 120.829 1244.78 121.228C1244.75 121.788 1244.93 122.23 1245.31 122.554C1245.7 122.863 1246.22 123.034 1246.9 123.07C1247.39 123.096 1247.86 123.016 1248.3 122.831C1248.76 122.631 1249.14 122.298 1249.44 121.833C1249.73 121.352 1249.9 120.704 1249.95 119.889L1250.71 119.977C1250.64 121.303 1250.36 122.362 1249.87 123.153C1249.4 123.946 1248.78 124.506 1248.03 124.835C1247.27 125.148 1246.44 125.281 1245.53 125.233ZM1264.02 126.25C1262.49 126.17 1261.39 125.648 1260.74 124.684C1260.09 123.705 1259.84 122.418 1260 120.825L1260.54 115.133L1257.26 114.961L1257.35 113.283L1258.14 113.325C1258.99 113.369 1259.65 113.308 1260.14 113.141C1260.63 112.959 1260.99 112.665 1261.22 112.261C1261.45 111.84 1261.59 111.294 1261.62 110.623L1261.65 110.072L1263.66 110.178L1263.06 121.706C1263.03 122.345 1263.15 122.864 1263.43 123.263C1263.72 123.647 1264.15 123.854 1264.72 123.884C1265.33 123.916 1265.79 123.755 1266.09 123.403C1266.4 123.05 1266.57 122.547 1266.61 121.892L1266.74 119.351L1268.73 119.455L1268.6 121.972C1268.52 123.362 1268.11 124.446 1267.34 125.223C1266.6 125.985 1265.49 126.327 1264.02 126.25ZM1263.4 115.283L1263.49 113.461L1269.34 113.767L1269.24 115.589L1263.4 115.283Z" fill="white"/>
<path d="M1312.83 121.343L1303.3 127.001C1303.22 127.047 1303.14 127.072 1303.05 127.071C1302.95 127.071 1302.87 127.046 1302.79 126.999C1302.71 126.952 1302.65 126.885 1302.61 126.805C1302.56 126.726 1302.54 126.636 1302.55 126.545L1303.29 112.433C1303.29 112.342 1303.32 112.255 1303.37 112.18C1303.42 112.105 1303.49 112.045 1303.57 112.007C1303.66 111.968 1303.75 111.953 1303.84 111.962C1303.93 111.971 1304.01 112.004 1304.09 112.058L1312.97 118.681L1313.27 112.956C1313.28 112.866 1313.31 112.778 1313.36 112.703C1313.41 112.628 1313.48 112.568 1313.56 112.53C1313.64 112.491 1313.73 112.476 1313.82 112.485C1313.91 112.494 1314 112.527 1314.07 112.581L1324.29 120.192C1324.35 120.241 1324.41 120.306 1324.44 120.381C1324.48 120.455 1324.49 120.537 1324.49 120.619C1324.48 120.702 1324.46 120.781 1324.42 120.852C1324.37 120.922 1324.31 120.981 1324.24 121.023L1313.29 127.525C1313.21 127.571 1313.12 127.595 1313.03 127.595C1312.94 127.594 1312.85 127.569 1312.77 127.522C1312.7 127.476 1312.63 127.409 1312.59 127.329C1312.55 127.249 1312.53 127.159 1312.53 127.069L1312.83 121.343Z" fill="white"/>
<path d="M1385 131.801L1385.79 116.822L1389.19 117L1388.41 131.98L1385 131.801ZM1380.7 117.036L1380.86 114.04L1394.38 114.749L1394.22 117.745L1380.7 117.036ZM1395.92 132.373L1396.83 114.877L1400.16 115.052L1399.63 125.262L1399.05 125.232C1399.12 123.922 1399.35 122.82 1399.73 121.927C1400.11 121.034 1400.65 120.365 1401.33 119.92C1402.02 119.475 1402.88 119.28 1403.9 119.334L1404.05 119.341C1405.53 119.419 1406.63 119.989 1407.35 121.052C1408.06 122.115 1408.37 123.621 1408.26 125.57L1407.88 133L1404.54 132.826L1404.95 125.084C1404.99 124.253 1404.79 123.586 1404.33 123.081C1403.9 122.578 1403.29 122.306 1402.53 122.266C1401.71 122.223 1401.03 122.46 1400.49 122.976C1399.97 123.477 1399.69 124.16 1399.64 125.022L1399.25 132.548L1395.92 132.373ZM1412.08 133.221L1412.76 120.206L1416.09 120.381L1415.41 133.395L1412.08 133.221ZM1410.81 122.604L1410.94 120.111L1416.09 120.381L1415.96 122.874L1410.81 122.604ZM1414.07 118.713C1413.41 118.678 1412.93 118.485 1412.63 118.133C1412.34 117.765 1412.22 117.326 1412.24 116.815C1412.27 116.271 1412.45 115.84 1412.77 115.52C1413.1 115.202 1413.6 115.059 1414.26 115.094C1414.91 115.128 1415.38 115.321 1415.67 115.672C1415.95 116.024 1416.08 116.471 1416.05 117.014C1416.03 117.526 1415.85 117.949 1415.53 118.285C1415.21 118.604 1414.72 118.747 1414.07 118.713ZM1419.25 133.596L1419.93 120.582L1422.57 120.72L1422.28 126.305L1422.04 126.292C1422.11 124.966 1422.34 123.873 1422.74 123.012C1423.14 122.136 1423.69 121.492 1424.4 121.081C1425.13 120.67 1426.01 120.492 1427.05 120.547L1427.19 120.554C1428.74 120.635 1429.89 121.2 1430.64 122.249C1431.38 123.281 1431.7 124.788 1431.6 126.769L1431.21 134.223L1427.88 134.049L1428.28 126.307C1428.33 125.508 1428.13 124.849 1427.69 124.329C1427.27 123.811 1426.66 123.53 1425.86 123.488C1425.05 123.446 1424.37 123.667 1423.83 124.151C1423.31 124.621 1423.03 125.279 1422.98 126.125L1422.58 133.771L1419.25 133.596ZM1443.9 134.888L1439.86 128.572L1437.91 128.47L1443.81 121.834L1447.29 122.016L1441.85 128.148L1442.01 126.474L1447.66 135.085L1443.9 134.888ZM1434.79 134.411L1435.71 116.915L1439.04 117.089L1438.12 134.585L1434.79 134.411Z" fill="black"/>
</svg>
