<svg width="1440" height="125" viewBox="0 0 1440 125" fill="none" xmlns="http://www.w3.org/2000/svg">
<rect width="2442.61" height="52" transform="translate(-595 72.4949) rotate(-1.66883)" fill="#64A7FF"/>
<path d="M-27.0904 89.9634L-27.6006 72.4509L-22.9466 72.3153L-18.2517 82.6469L-17.8199 82.6343L-13.7585 72.0476L-9.03249 71.9099L-8.52226 89.4224L-11.9048 89.521L-12.3403 74.5753L-11.9071 74.6107L-16.3031 86.0716L-19.7817 86.173L-24.8616 74.9882L-24.4071 74.9269L-23.9717 89.8726L-27.0904 89.9634ZM-3.84181 89.2861L-4.22134 76.2596L-0.886751 76.1625L-0.507227 89.1889L-3.84181 89.2861ZM-5.97187 78.8077L-6.04456 76.3127L-0.886751 76.1625L-0.814061 78.6574L-5.97187 78.8077ZM-3.04329 74.6646C-3.69901 74.6837 -4.19169 74.53 -4.52134 74.2035C-4.83547 73.8605 -4.99998 73.4331 -5.01489 72.9213C-5.03074 72.3775 -4.89161 71.9333 -4.59753 71.5886C-4.28745 71.2434 -3.80455 71.0613 -3.14883 71.0422C-2.4931 71.0231 -2.00842 71.177 -1.69476 71.504C-1.3811 71.831 -1.21635 72.2664 -1.20051 72.8102C-1.1856 73.322 -1.32495 73.7582 -1.61857 74.1189C-1.91266 74.4636 -2.38756 74.6455 -3.04329 74.6646ZM3.33583 89.077L2.95631 76.0505L5.59519 75.9736L5.75804 81.5632L5.51814 81.5702C5.47947 80.2428 5.62324 79.1341 5.94946 78.2442C6.27522 77.3384 6.77543 76.6515 7.45009 76.1837C8.14074 75.7154 9.00585 75.4661 10.0454 75.4358L10.1893 75.4316C11.7407 75.3864 12.9309 75.8559 13.7599 76.8402C14.5884 77.8085 15.0316 79.2842 15.0894 81.2674L15.3068 88.7282L11.9722 88.8253L11.7464 81.0766C11.7231 80.277 11.4723 79.636 10.9941 79.1537C10.5318 78.671 9.90088 78.4413 9.10122 78.4646C8.28556 78.4883 7.6293 78.7635 7.13243 79.2902C6.65108 79.8005 6.42276 80.4794 6.44745 81.3271L6.67041 88.9798L3.33583 89.077ZM24.5582 88.6267C23.3587 88.6617 22.3627 88.5386 21.5702 88.2576C20.7932 87.9601 20.2021 87.4491 19.7968 86.7246C19.3911 85.9841 19.1698 84.9821 19.133 83.7186L18.8131 71.9149L21.9318 71.8241L22.2579 83.8437C22.2766 84.4834 22.459 84.9743 22.8051 85.3164C23.1667 85.642 23.6674 85.7955 24.3071 85.7768L26.3463 85.7174L26.4294 88.5722L24.5582 88.6267ZM16.9042 78.0932L16.8329 75.6462L26.045 75.3778L26.1163 77.8248L16.9042 78.0932Z" fill="black"/>
<path d="M65.8595 87.7115C64.3081 87.7567 62.9895 87.547 61.9035 87.0824C60.8335 86.6174 60.006 85.9612 59.4211 85.1139C58.8357 84.2506 58.5269 83.2672 58.4948 82.1636L61.8294 82.0665C61.8429 82.5303 61.9841 82.9824 62.253 83.4227C62.5215 83.8471 62.9396 84.187 63.5073 84.4426C64.0909 84.6977 64.8466 84.8118 65.7742 84.7847C66.6058 84.7605 67.2981 84.6203 67.8508 84.3641C68.4036 84.1079 68.8103 83.7839 69.071 83.3921C69.3313 82.9844 69.4542 82.5326 69.4397 82.0368C69.4216 81.4131 69.1432 80.925 68.6047 80.5725C68.0658 80.2041 67.2431 79.9879 66.1368 79.9241L64.598 79.8489C62.9145 79.7539 61.5559 79.2733 60.5222 78.407C59.5041 77.5243 58.9734 76.3392 58.93 74.8518C58.8974 73.7323 59.1333 72.765 59.6378 71.95C60.1418 71.119 60.8593 70.4738 61.7904 70.0145C62.7369 69.5387 63.8499 69.2822 65.1294 69.2449C66.4568 69.2063 67.6071 69.4048 68.5802 69.8407C69.5533 70.2765 70.3161 70.9106 70.8685 71.7428C71.4205 72.5591 71.7131 73.535 71.7462 74.6705L68.4116 74.7677C68.3976 74.2879 68.2648 73.8516 68.0133 73.4587C67.7773 73.0494 67.4239 72.7316 66.9531 72.5052C66.4978 72.2624 65.9183 72.1512 65.2146 72.1717C64.5429 72.1913 63.9864 72.3195 63.5451 72.5565C63.1038 72.7934 62.7768 73.1071 62.5641 73.4974C62.3514 73.8878 62.2516 74.3069 62.2646 74.7547C62.2804 75.2985 62.4943 75.7724 62.9063 76.1766C63.3178 76.5648 63.9563 76.7783 64.8218 76.8171L66.3613 76.9163C67.6116 76.9759 68.7148 77.2079 69.671 77.6122C70.6271 78.0165 71.3718 78.5791 71.9051 79.2999C72.4543 80.0202 72.744 80.9001 72.7743 81.9397C72.8065 83.0432 72.547 84.0272 71.9959 84.8916C71.4444 85.74 70.6396 86.4117 69.5816 86.9068C68.5396 87.4013 67.2989 87.6696 65.8595 87.7115ZM81.6167 87.2524C80.4971 87.285 79.508 87.1218 78.6491 86.7626C77.8063 86.403 77.0957 85.9115 76.5173 85.2881C75.9544 84.6482 75.5174 83.9326 75.2062 83.1414C74.911 82.3496 74.7513 81.5379 74.7271 80.7063L74.7138 80.2505C74.6886 79.3868 74.8004 78.5512 75.0489 77.7437C75.3131 76.9196 75.7079 76.1878 76.2335 75.5482C76.7746 74.8922 77.4477 74.3684 78.2526 73.9768C79.0571 73.5692 79.9951 73.3497 81.0666 73.3185C82.474 73.2775 83.6586 73.5551 84.6204 74.1514C85.5977 74.7312 86.3409 75.5179 86.8501 76.5115C87.3588 77.4891 87.6299 78.5536 87.6634 79.7051L87.6984 80.9046L76.1593 81.2408L76.0999 79.2017L85.5518 78.9263L84.5496 79.9639C84.5254 79.1323 84.3847 78.4241 84.1276 77.8393C83.8704 77.2545 83.4893 76.8095 82.9842 76.504C82.4951 76.1981 81.8827 76.0559 81.147 76.0774C80.4113 76.0988 79.7925 76.2849 79.2905 76.6357C78.7885 76.9864 78.4109 77.4856 78.1576 78.1333C77.9199 78.7645 77.8139 79.5199 77.8395 80.3995C77.8632 81.2152 78.0124 81.9391 78.2869 82.5714C78.561 83.1877 78.9673 83.6721 79.5058 84.0245C80.0438 84.361 80.7206 84.5174 81.5363 84.4936C82.3519 84.4698 83.011 84.2906 83.5135 83.9558C84.0154 83.605 84.3314 83.1876 84.4614 82.7036L87.5321 82.6142C87.3663 83.5154 87.0212 84.3098 86.497 84.9973C85.9729 85.6849 85.2923 86.2249 84.4554 86.6175C83.6344 87.0096 82.6882 87.2212 81.6167 87.2524ZM90.8183 86.5281L90.3081 69.0156L93.6426 68.9184L94.1529 86.431L90.8183 86.5281ZM88.7494 71.558L88.6767 69.0631L93.6426 68.9184L93.7153 71.4134L88.7494 71.558ZM98.1277 86.3152L97.6174 68.8026L100.952 68.7055L101.462 86.218L98.1277 86.3152ZM96.0588 71.3451L95.9861 68.8501L100.952 68.7055L101.025 71.2004L96.0588 71.3451Z" fill="black"/>
<path d="M134.44 85.7575L134.392 84.1262L136.527 84.0639L136.144 70.9175L134.057 70.9783L134.01 69.347L139.359 69.1912L139.79 83.9689L141.973 83.9053L142.02 85.5366L134.44 85.7575ZM147.856 85.5827C146.993 85.6078 146.276 85.4766 145.708 85.1891C145.155 84.885 144.734 84.4571 144.446 83.9053C144.158 83.3534 143.971 82.7026 143.885 81.9528L143.757 80.876C143.666 79.9183 143.406 79.2456 142.978 78.8579C142.551 78.4702 141.929 78.2882 141.114 78.3119L139.626 78.3553L139.613 77.8995L143.307 77.7918C144.634 77.7372 145.572 78.038 146.119 78.6943C146.682 79.3342 146.997 80.2774 147.066 81.524L147.109 82.195C147.153 82.5939 147.258 82.9189 147.426 83.1702C147.593 83.4214 147.885 83.541 148.301 83.5288C148.716 83.5167 149.009 83.3882 149.178 83.1431C149.346 82.8821 149.424 82.5437 149.412 82.1279L149.32 78.9612L151.287 78.9039L151.371 81.7827C151.403 82.8862 151.141 83.7902 150.586 84.4947C150.046 85.1827 149.136 85.5454 147.856 85.5827ZM139.626 78.3553L139.575 76.58L144.013 76.4507C145.068 76.42 145.893 76.1638 146.487 75.6823C147.098 75.2004 147.389 74.4876 147.361 73.544C147.334 72.6004 147.002 71.9137 146.365 71.4841C145.744 71.038 144.905 70.8303 143.85 70.8611L139.412 70.9904L139.359 69.1912L144.805 69.0325C146.516 68.9826 147.902 69.3104 148.963 70.0158C150.04 70.7048 150.6 71.7849 150.642 73.2563C150.685 74.7117 150.197 75.8303 149.18 76.6123C148.161 77.3783 146.813 77.7857 145.133 77.8347L143.382 77.8857L142.985 78.2574L139.626 78.3553ZM159.878 85.3045C158.614 85.3413 157.495 85.1258 156.521 84.6579C155.563 84.1736 154.798 83.4596 154.226 82.5159C153.67 81.5556 153.371 80.3718 153.33 78.9644C153.29 77.573 153.519 76.3898 154.019 75.4149C154.518 74.4239 155.233 73.6668 156.162 73.1435C157.091 72.6042 158.171 72.3167 159.402 72.2808L159.548 73.9813C158.86 74.0013 158.273 74.1865 157.787 74.5368C157.317 74.8706 156.956 75.3853 156.704 76.081C156.467 76.7601 156.365 77.6275 156.395 78.6831C156.434 80.0265 156.802 81.0882 157.497 81.8683C158.207 82.632 159.146 82.9968 160.314 82.9628C161.017 82.9423 161.59 82.8135 162.031 82.5766C162.488 82.3232 162.839 82.0168 163.085 81.6575C163.346 81.2977 163.536 80.9321 163.653 80.5605L165.62 80.5032C165.573 81.0648 165.421 81.6215 165.165 82.1732C164.925 82.7244 164.571 83.2309 164.104 83.6927C163.654 84.154 163.08 84.5308 162.385 84.8232C161.689 85.1156 160.853 85.276 159.878 85.3045ZM154.771 78.9705L154.724 77.3632L162.569 77.1346L165.687 77.8361L165.71 78.6518L154.771 78.9705ZM162.569 77.1346C162.536 76.5433 162.4 76.0111 162.162 75.5378C161.924 75.0485 161.585 74.6662 161.144 74.3909C160.72 74.0992 160.187 73.9626 159.548 73.9813L159.402 72.2808C160.73 72.2421 161.856 72.4494 162.782 72.9026C163.707 73.3559 164.415 74.0075 164.904 74.8577C165.392 75.7078 165.654 76.7006 165.687 77.8361L162.569 77.1346ZM177.059 84.7799C175.876 84.8143 174.901 84.5866 174.134 84.0968C173.384 83.6064 172.818 82.8866 172.439 81.9372C172.075 80.9874 171.873 79.8248 171.833 78.4494L171.664 78.4303C171.625 77.0869 171.775 75.93 172.115 74.9597C172.455 73.9734 173.001 73.2131 173.753 72.679C174.522 72.1284 175.49 71.8361 176.657 71.8021C177.793 71.769 178.8 71.9957 179.678 72.4824C180.557 72.969 181.25 73.6851 181.758 74.6307C182.265 75.5763 182.54 76.7448 182.58 78.1363C182.62 79.4957 182.414 80.6702 181.962 81.6597C181.511 82.6333 180.86 83.3886 180.012 83.9255C179.163 84.4625 178.179 84.7472 177.059 84.7799ZM175.92 82.7722C176.624 82.7517 177.227 82.566 177.729 82.2153C178.231 81.8645 178.608 81.3493 178.86 80.6697C179.129 79.9896 179.249 79.1777 179.222 78.2341C179.193 77.2585 179.025 76.4471 178.718 75.7997C178.427 75.1359 178.02 74.6436 177.499 74.3226C176.977 73.9857 176.364 73.8275 175.66 73.848C174.957 73.8685 174.346 74.0623 173.828 74.4296C173.31 74.7808 172.917 75.2965 172.649 75.9766C172.38 76.6407 172.26 77.4605 172.288 78.4361C172.316 79.3797 172.483 80.1832 172.791 80.8465C173.098 81.5098 173.521 82.0017 174.058 82.3222C174.596 82.6427 175.217 82.7927 175.92 82.7722ZM167.708 89.3501L167.662 87.7428L169.581 87.6869L169.179 73.8927L167.38 73.9452L167.332 72.3138L172.034 72.1769L172.159 76.471L172 78.4205L172.533 81.0461L172.723 87.5953L174.978 87.5296L175.025 89.1369L167.708 89.3501ZM191.353 84.3874C190.09 84.4242 188.971 84.2087 187.997 83.7409C187.038 83.2566 186.273 82.5426 185.701 81.5988C185.145 80.6386 184.847 79.4548 184.806 78.0474C184.765 76.656 184.995 75.4728 185.495 74.4978C185.994 73.5069 186.708 72.7498 187.637 72.2265C188.566 71.6872 189.646 71.3996 190.878 71.3637L191.023 73.0642C190.335 73.0843 189.749 73.2694 189.263 73.6197C188.792 73.9536 188.431 74.4683 188.179 75.1639C187.943 75.8431 187.84 76.7105 187.871 77.766C187.91 79.1095 188.277 80.1712 188.972 80.9513C189.682 81.7149 190.621 82.0797 191.789 82.0457C192.493 82.0252 193.065 81.8965 193.506 81.6595C193.963 81.4061 194.315 81.0998 194.56 80.7405C194.822 80.3807 195.011 80.015 195.128 79.6435L197.096 79.5861C197.048 80.1478 196.896 80.7044 196.64 81.2561C196.4 81.8073 196.047 82.3139 195.58 82.7756C195.129 83.237 194.556 83.6138 193.86 83.9062C193.164 84.1986 192.329 84.359 191.353 84.3874ZM186.246 78.0535L186.2 76.4461L194.044 76.2176L197.162 76.9191L197.186 77.7347L186.246 78.0535ZM194.044 76.2176C194.011 75.6263 193.875 75.094 193.638 74.6207C193.399 74.1315 193.06 73.7492 192.62 73.4739C192.195 73.1821 191.663 73.0456 191.023 73.0642L190.878 71.3637C192.205 71.3251 193.331 71.5324 194.257 71.9856C195.183 72.4388 195.89 73.0905 196.379 73.9406C196.868 74.7907 197.129 75.7836 197.162 76.9191L194.044 76.2176ZM202.176 75.6685C201.664 75.6834 201.205 75.5608 200.797 75.3005C200.405 75.0238 200.2 74.5896 200.183 73.9979C200.164 73.3741 200.405 72.8469 200.905 72.4162C201.42 71.969 202.09 71.6293 202.916 71.3972C203.757 71.1486 204.642 71.0108 205.569 70.9837C207.104 70.939 208.297 71.2164 209.147 71.8159C210.013 72.4149 210.456 73.3384 210.476 74.5864L207.537 74.2638C207.52 73.6561 207.283 73.2068 206.826 72.9159C206.385 72.6247 205.765 72.4907 204.965 72.514C204.454 72.5289 203.968 72.6071 203.508 72.7485C203.047 72.874 202.669 73.0691 202.372 73.3338C202.076 73.5986 201.91 73.9555 201.875 74.4048L201.858 72.9887C202.434 72.9879 202.893 73.0945 203.236 73.3087C203.578 73.5068 203.747 73.83 203.744 74.2783C203.74 74.6786 203.598 75.0109 203.317 75.2751C203.052 75.523 202.672 75.6541 202.176 75.6685ZM211.608 83.7733C210.473 83.8064 209.6 83.5277 208.991 82.9372C208.381 82.3307 208.06 81.4676 208.027 80.3481L208.008 79.7004L207.672 79.7102L207.578 76.4716L207.458 76.4751L207.568 75.2954L207.537 74.2638L210.476 74.5864L210.649 80.5358C210.661 80.9197 210.766 81.2287 210.965 81.463C211.164 81.6973 211.447 81.8091 211.815 81.7984C212.183 81.7877 212.459 81.6596 212.644 81.4141C212.829 81.1686 212.916 80.854 212.905 80.4701L212.801 76.9196L214.768 76.8623L214.865 80.1969C214.897 81.2844 214.634 82.1485 214.077 82.789C213.534 83.413 212.712 83.7411 211.608 83.7733ZM203.667 83.9806C202.435 84.0165 201.419 83.75 200.618 83.1811C199.833 82.6117 199.426 81.8072 199.395 80.7677C199.374 80.016 199.516 79.3956 199.821 78.9065C200.143 78.4169 200.588 78.0198 201.155 77.7151C201.722 77.3945 202.379 77.1432 203.126 76.9614L205.223 76.3961C205.7 76.2862 206.112 76.1461 206.459 75.9759C206.806 75.8057 207.072 75.5819 207.256 75.3044C207.456 75.0265 207.55 74.6796 207.537 74.2638L207.674 76.4688L207.578 76.4716C207.443 76.7796 207.21 77.0425 206.88 77.2602C206.566 77.4614 206.163 77.6333 205.671 77.7756L204.813 77.9927C204.385 78.1332 203.997 78.2886 203.65 78.4588C203.319 78.6285 203.053 78.8363 202.852 79.0823C202.667 79.3278 202.58 79.6504 202.592 80.0503C202.608 80.61 202.821 81.036 203.229 81.3283C203.638 81.6045 204.178 81.7328 204.849 81.7132C205.345 81.6988 205.806 81.5813 206.232 81.3608C206.673 81.1239 207.023 80.7615 207.28 80.2738C207.538 79.7701 207.655 79.1104 207.631 78.2948L208.4 78.3204C208.439 79.6478 208.246 80.7259 207.822 81.5546C207.414 82.3828 206.847 82.9916 206.122 83.3809C205.397 83.7542 204.578 83.9541 203.667 83.9806ZM222.179 83.4893C220.643 83.5341 219.51 83.1029 218.78 82.1958C218.048 81.2727 217.699 80.0103 217.733 78.4086L217.806 72.6921L214.52 72.7878L214.471 71.1085L215.262 71.0855C216.11 71.0608 216.771 70.9455 217.245 70.7396C217.719 70.5177 218.054 70.1958 218.25 69.7739C218.445 69.3361 218.533 68.7813 218.513 68.1095L218.497 67.5578L220.512 67.4991L220.848 79.0382C220.867 79.6779 221.034 80.1853 221.349 80.5602C221.664 80.9192 222.109 81.0903 222.684 81.0736C223.292 81.0559 223.735 80.8589 224.012 80.4827C224.289 80.1064 224.418 79.5905 224.399 78.9347L224.325 76.3918L226.316 76.3338L226.389 78.8527C226.43 80.2441 226.102 81.3582 225.406 82.1948C224.726 83.0149 223.65 83.4465 222.179 83.4893ZM220.661 72.6089L220.608 70.7857L226.462 70.6151L226.515 72.4384L220.661 72.6089Z" fill="white"/>
<path d="M270.429 74.6252L261.389 81.0402C261.315 81.0925 261.229 81.1238 261.139 81.1307C261.048 81.1377 260.958 81.12 260.877 81.0797C260.796 81.0393 260.728 80.9778 260.679 80.9016C260.63 80.8254 260.603 80.7374 260.6 80.647L260.189 66.521C260.186 66.4306 260.208 66.3412 260.252 66.2623C260.297 66.1834 260.361 66.118 260.44 66.073C260.518 66.028 260.607 66.0051 260.698 66.0068C260.788 66.0085 260.877 66.0347 260.953 66.0826L270.351 71.9604L270.185 66.2298C270.182 66.1394 270.204 66.05 270.248 65.9711C270.292 65.8922 270.357 65.8267 270.436 65.7817C270.514 65.7368 270.603 65.7139 270.694 65.7156C270.784 65.7173 270.872 65.7434 270.949 65.7913L281.749 72.5457C281.819 72.5893 281.877 72.6495 281.918 72.7209C281.959 72.7923 281.982 72.8727 281.984 72.955C281.986 73.0373 281.968 73.1189 281.932 73.1925C281.895 73.2662 281.841 73.3297 281.774 73.3773L271.385 80.749C271.311 80.8013 271.224 80.8325 271.134 80.8395C271.044 80.8464 270.954 80.8288 270.873 80.7885C270.792 80.7481 270.723 80.6866 270.675 80.6104C270.626 80.5342 270.599 80.4462 270.596 80.3558L270.429 74.6252Z" fill="white"/>
<path d="M343.208 79.1748L342.772 64.1811L346.178 64.0819L346.615 79.0755L343.208 79.1748ZM337.724 64.8084L337.636 61.8097L351.167 61.4155L351.254 64.4142L337.724 64.8084ZM354.132 78.8565L353.622 61.344L356.957 61.2468L357.254 71.4665L356.679 71.4832C356.64 70.1718 356.776 69.0554 357.085 68.134C357.395 67.2126 357.87 66.5024 358.512 66.0035C359.17 65.5042 360.01 65.2396 361.034 65.2097L361.178 65.2056C362.665 65.1622 363.808 65.6412 364.605 66.6423C365.403 67.6435 365.83 69.1197 365.887 71.0709L366.103 78.5078L362.769 78.6049L362.543 70.8562C362.519 70.0245 362.26 69.3758 361.766 68.91C361.288 68.4437 360.665 68.2218 359.898 68.2441C359.082 68.2679 358.426 68.5591 357.93 69.1178C357.45 69.66 357.222 70.3629 357.247 71.2266L357.467 78.7594L354.132 78.8565ZM370.312 78.3851L369.932 65.3587L373.267 65.2615L373.646 78.288L370.312 78.3851ZM368.182 67.9067L368.109 65.4118L373.267 65.2615L373.34 67.7564L368.182 67.9067ZM371.11 63.7637C370.455 63.7828 369.962 63.6291 369.632 63.3025C369.318 62.9595 369.154 62.5321 369.139 62.0204C369.123 61.4766 369.262 61.0323 369.556 60.6876C369.866 60.3425 370.349 60.1603 371.005 60.1412C371.661 60.1221 372.145 60.2761 372.459 60.6031C372.773 60.9301 372.937 61.3655 372.953 61.9092C372.968 62.421 372.829 62.8572 372.535 63.218C372.241 63.5627 371.766 63.7446 371.11 63.7637ZM377.49 78.176L377.11 65.1495L379.749 65.0727L379.912 70.6623L379.672 70.6693C379.633 69.3418 379.777 68.2332 380.103 67.3433C380.429 66.4374 380.929 65.7506 381.604 65.2827C382.294 64.8144 383.16 64.5651 384.199 64.5348L384.343 64.5306C385.894 64.4854 387.085 64.955 387.914 65.9392C388.742 66.9075 389.185 68.3832 389.243 70.3664L389.46 77.8272L386.126 77.9244L385.9 70.1757C385.877 69.376 385.626 68.7351 385.148 68.2528C384.686 67.77 384.055 67.5403 383.255 67.5636C382.439 67.5874 381.783 67.8626 381.286 68.3893C380.805 68.8995 380.576 69.5785 380.601 70.4261L380.824 78.0789L377.49 78.176ZM402.162 77.4572L397.618 71.491L395.675 71.5476L401.014 64.4531L404.493 64.3517L399.57 70.9059L399.593 69.2245L405.928 77.3475L402.162 77.4572ZM393.045 77.7228L392.535 60.2102L395.87 60.1131L396.38 77.6256L393.045 77.7228Z" fill="black"/>
<path d="M438.712 76.3924L438.202 58.8798L442.856 58.7442L447.551 69.0759L447.982 69.0633L452.044 58.4765L456.77 58.3388L457.28 75.8514L453.898 75.9499L453.462 61.0043L453.895 61.0397L449.499 72.5006L446.021 72.6019L440.941 61.4171L441.395 61.3559L441.831 76.3015L438.712 76.3924ZM461.961 75.715L461.581 62.6886L464.916 62.5914L465.295 75.6179L461.961 75.715ZM459.83 65.2366L459.758 62.7417L464.916 62.5914L464.988 65.0863L459.83 65.2366ZM462.759 61.0936C462.103 61.1127 461.611 60.959 461.281 60.6324C460.967 60.2894 460.802 59.862 460.787 59.3503C460.772 58.8065 460.911 58.3622 461.205 58.0175C461.515 57.6724 461.998 57.4902 462.654 57.4711C463.309 57.452 463.794 57.606 464.108 57.933C464.421 58.26 464.586 58.6954 464.602 59.2391C464.617 59.7509 464.477 60.1871 464.184 60.5479C463.89 60.8926 463.415 61.0745 462.759 61.0936ZM469.138 75.5059L468.759 62.4794L471.398 62.4026L471.56 67.9922L471.32 67.9992C471.282 66.6717 471.426 65.5631 471.752 64.6732C472.078 63.7673 472.578 63.0805 473.252 62.6126C473.943 62.1443 474.808 61.895 475.848 61.8647L475.992 61.8605C477.543 61.8153 478.733 62.2849 479.562 63.2691C480.391 64.2374 480.834 65.7132 480.892 67.6963L481.109 75.1571L477.775 75.2543L477.549 67.5056C477.525 66.7059 477.275 66.065 476.796 65.5827C476.334 65.0999 475.703 64.8702 474.904 64.8935C474.088 64.9173 473.432 65.1925 472.935 65.7192C472.453 66.2294 472.225 66.9084 472.25 67.756L472.473 75.4088L469.138 75.5059ZM490.361 75.0557C489.161 75.0906 488.165 74.9676 487.373 74.6865C486.596 74.389 486.004 73.878 485.599 73.1535C485.193 72.413 484.972 71.4111 484.935 70.1476L484.615 58.3439L487.734 58.253L488.06 70.2726C488.079 70.9124 488.261 71.4033 488.607 71.7453C488.969 72.0709 489.47 72.2244 490.109 72.2058L492.149 72.1464L492.232 75.0012L490.361 75.0557ZM482.707 64.5221L482.635 62.0751L491.847 61.8068L491.919 64.2537L482.707 64.5221Z" fill="black"/>
<path d="M531.662 74.1405C530.11 74.1857 528.792 73.976 527.706 73.5114C526.636 73.0464 525.808 72.3902 525.223 71.5429C524.638 70.6795 524.329 69.6961 524.297 68.5926L527.632 68.4954C527.645 68.9592 527.786 69.4113 528.055 69.8517C528.324 70.276 528.742 70.616 529.31 70.8716C529.893 71.1267 530.649 71.2407 531.577 71.2137C532.408 71.1895 533.1 71.0492 533.653 70.793C534.206 70.5368 534.613 70.2129 534.873 69.8211C535.134 69.4133 535.257 68.9616 535.242 68.4658C535.224 67.842 534.946 67.3539 534.407 67.0015C533.868 66.633 533.045 66.4169 531.939 66.3531L530.4 66.2779C528.717 66.1828 527.358 65.7022 526.325 64.8359C525.306 63.9532 524.776 62.7682 524.732 61.2808C524.7 60.1613 524.936 59.194 525.44 58.379C525.944 57.5479 526.662 56.9028 527.593 56.4435C528.539 55.9677 529.652 55.7112 530.932 55.6739C532.259 55.6352 533.409 55.8338 534.383 56.2696C535.356 56.7055 536.118 57.3395 536.671 58.1718C537.223 58.9881 537.515 59.964 537.549 61.0995L534.214 61.1966C534.2 60.7168 534.067 60.2805 533.816 59.8877C533.58 59.4784 533.226 59.1605 532.755 58.9342C532.3 58.6913 531.721 58.5801 531.017 58.6006C530.345 58.6202 529.789 58.7485 529.347 58.9854C528.906 59.2224 528.579 59.536 528.366 59.9264C528.154 60.3168 528.054 60.7358 528.067 61.1837C528.083 61.7274 528.297 62.2014 528.709 62.6056C529.12 62.9937 529.759 63.2072 530.624 63.2461L532.164 63.3453C533.414 63.4049 534.517 63.6368 535.473 64.0412C536.429 64.4455 537.174 65.008 537.707 65.7288C538.257 66.4491 538.546 67.3291 538.577 68.3686C538.609 69.4722 538.349 70.4561 537.798 71.3205C537.247 72.169 536.442 72.8407 535.384 73.3357C534.342 73.8303 533.101 74.0985 531.662 74.1405ZM547.419 73.6814C546.299 73.714 545.31 73.5507 544.451 73.1916C543.609 72.832 542.898 72.3405 542.32 71.717C541.757 71.0772 541.32 70.3616 541.009 69.5703C540.713 68.7786 540.554 67.9669 540.529 67.1352L540.516 66.6794C540.491 65.8158 540.603 64.9802 540.851 64.1726C541.115 63.3486 541.51 62.6168 542.036 61.9772C542.577 61.3211 543.25 60.7973 544.055 60.4057C544.859 59.9981 545.797 59.7787 546.869 59.7475C548.276 59.7065 549.461 59.9841 550.423 60.5803C551.4 61.1601 552.143 61.9468 552.652 62.9404C553.161 63.918 553.432 64.9826 553.466 66.1341L553.501 67.3336L541.962 67.6698L541.902 65.6306L551.354 65.3552L550.352 66.3929C550.328 65.5612 550.187 64.853 549.93 64.2683C549.673 63.6835 549.292 63.2384 548.787 62.933C548.297 62.6271 547.685 62.4849 546.949 62.5063C546.214 62.5277 545.595 62.7138 545.093 63.0646C544.591 63.4154 544.213 63.9146 543.96 64.5622C543.722 65.1934 543.616 65.9488 543.642 66.8285C543.666 67.6441 543.815 68.3681 544.089 69.0004C544.363 69.6166 544.77 70.101 545.308 70.4535C545.846 70.79 546.523 70.9463 547.339 70.9225C548.154 70.8988 548.813 70.7195 549.316 70.3847C549.818 70.034 550.134 69.6166 550.264 69.1326L553.334 69.0431C553.169 69.9443 552.824 70.7387 552.299 71.4263C551.775 72.1138 551.095 72.6539 550.258 73.0464C549.437 73.4385 548.491 73.6502 547.419 73.6814ZM556.621 72.9571L556.11 55.4445L559.445 55.3474L559.955 72.8599L556.621 72.9571ZM554.552 57.987L554.479 55.4921L559.445 55.3474L559.518 57.8423L554.552 57.987ZM563.93 72.7441L563.42 55.2316L566.754 55.1344L567.265 72.647L563.93 72.7441ZM561.861 57.774L561.788 55.2791L566.754 55.1344L566.827 57.6294L561.861 57.774Z" fill="black"/>
<path d="M600.242 72.1864L600.194 70.5551L602.33 70.4929L601.947 57.3465L599.859 57.4073L599.812 55.776L605.162 55.6201L605.592 70.3978L607.775 70.3342L607.823 71.9656L600.242 72.1864ZM613.659 72.0116C612.795 72.0368 612.079 71.9056 611.51 71.618C610.957 71.314 610.536 70.8861 610.248 70.3342C609.96 69.7824 609.773 69.1316 609.687 68.3817L609.56 67.305C609.468 66.3473 609.208 65.6745 608.781 65.2868C608.353 64.8991 607.732 64.7171 606.916 64.7409L605.429 64.7842L605.415 64.3284L609.11 64.2208C610.437 64.1661 611.374 64.467 611.921 65.1233C612.484 65.7632 612.8 66.7064 612.868 67.9529L612.912 68.6239C612.955 69.0228 613.061 69.3479 613.228 69.5991C613.396 69.8504 613.687 69.9699 614.103 69.9578C614.519 69.9457 614.811 69.8171 614.98 69.5721C615.149 69.3111 615.227 68.9727 615.215 68.5568L615.122 65.3902L617.09 65.3329L617.173 68.2116C617.206 69.3152 616.944 70.2192 616.388 70.9237C615.848 71.6117 614.938 71.9743 613.659 72.0116ZM605.429 64.7842L605.377 63.009L609.815 62.8797C610.871 62.8489 611.695 62.5928 612.29 62.1113C612.9 61.6293 613.191 60.9165 613.164 59.9729C613.136 59.0293 612.804 58.3427 612.167 57.9131C611.546 57.467 610.708 57.2593 609.652 57.29L605.214 57.4194L605.162 55.6201L610.607 55.4615C612.319 55.4116 613.705 55.7394 614.766 56.4448C615.842 57.1337 616.402 58.2139 616.445 59.6852C616.487 61.1406 616 62.2593 614.982 63.0413C613.964 63.8072 612.615 64.2147 610.936 64.2636L609.185 64.3146L608.787 64.6864L605.429 64.7842ZM625.68 71.7334C624.416 71.7702 623.298 71.5547 622.324 71.0869C621.365 70.6026 620.6 69.8886 620.028 68.9448C619.472 67.9846 619.174 66.8008 619.133 65.3934C619.092 64.002 619.322 62.8188 619.821 61.8438C620.321 60.8529 621.035 60.0957 621.964 59.5725C622.893 59.0332 623.973 58.7456 625.204 58.7097L625.35 60.4102C624.662 60.4302 624.075 60.6154 623.589 60.9657C623.119 61.2996 622.758 61.8143 622.506 62.5099C622.27 63.1891 622.167 64.0565 622.198 65.112C622.237 66.4554 622.604 67.5172 623.299 68.2973C624.009 69.0609 624.948 69.4257 626.116 69.3917C626.82 69.3712 627.392 69.2425 627.833 69.0055C628.29 68.7521 628.641 68.4458 628.887 68.0865C629.149 67.7267 629.338 67.361 629.455 66.9894L631.423 66.9321C631.375 67.4938 631.223 68.0504 630.967 68.6021C630.727 69.1533 630.374 69.6598 629.907 70.1216C629.456 70.5829 628.883 70.9598 628.187 71.2522C627.491 71.5446 626.656 71.705 625.68 71.7334ZM620.573 65.3994L620.527 63.7921L628.371 63.5636L631.489 64.2651L631.513 65.0807L620.573 65.3994ZM628.371 63.5636C628.338 62.9723 628.202 62.44 627.964 61.9667C627.726 61.4775 627.387 61.0952 626.947 60.8199C626.522 60.5281 625.99 60.3916 625.35 60.4102L625.204 58.7097C626.532 58.6711 627.658 58.8783 628.584 59.3316C629.51 59.7848 630.217 60.4365 630.706 61.2866C631.195 62.1367 631.456 63.1295 631.489 64.2651L628.371 63.5636ZM642.862 71.2088C641.678 71.2433 640.703 71.0156 639.936 70.5257C639.186 70.0354 638.621 69.3155 638.241 68.3662C637.877 67.4164 637.675 66.2538 637.635 64.8783L637.466 64.8592C637.427 63.5158 637.578 62.3589 637.918 61.3886C638.257 60.4023 638.803 59.6421 639.556 59.108C640.324 58.5573 641.292 58.265 642.459 58.231C643.595 58.1979 644.602 58.4247 645.481 58.9113C646.359 59.3979 647.052 60.1141 647.56 61.0597C648.068 62.0053 648.342 63.1738 648.382 64.5652C648.422 65.9246 648.216 67.0991 647.765 68.0887C647.313 69.0623 646.663 69.8175 645.814 70.3545C644.965 70.8914 643.981 71.1762 642.862 71.2088ZM641.723 69.2011C642.426 69.1806 643.029 68.995 643.531 68.6442C644.033 68.2935 644.41 67.7783 644.663 67.0986C644.931 66.4185 645.051 65.6067 645.024 64.6631C644.995 63.6875 644.828 62.876 644.521 62.2287C644.229 61.5649 643.823 61.0725 643.301 60.7516C642.779 60.4146 642.166 60.2564 641.463 60.2769C640.759 60.2974 640.148 60.4913 639.631 60.8585C639.113 61.2097 638.72 61.7254 638.451 62.4055C638.183 63.0696 638.062 63.8895 638.091 64.8651C638.118 65.8087 638.286 66.6121 638.593 67.2754C638.901 67.9388 639.323 68.4307 639.861 68.7512C640.398 69.0716 641.019 69.2216 641.723 69.2011ZM633.511 75.7791L633.464 74.1718L635.383 74.1158L634.981 60.3217L633.182 60.3741L633.134 58.7428L637.836 58.6058L637.962 62.9L637.802 64.8495L638.335 67.4751L638.526 74.0243L640.781 73.9586L640.828 75.5659L633.511 75.7791ZM657.155 70.8164C655.892 70.8532 654.773 70.6377 653.799 70.1698C652.841 69.6856 652.075 68.9715 651.504 68.0278C650.948 67.0676 650.649 65.8838 650.608 64.4764C650.567 63.085 650.797 61.9018 651.297 60.9268C651.796 59.9358 652.51 59.1787 653.44 58.6554C654.368 58.1162 655.448 57.8286 656.68 57.7927L656.825 59.4932C656.138 59.5132 655.551 59.6984 655.065 60.0487C654.594 60.3825 654.233 60.8973 653.981 61.5929C653.745 62.2721 653.642 63.1394 653.673 64.195C653.712 65.5384 654.079 66.6002 654.774 67.3803C655.485 68.1439 656.424 68.5087 657.591 68.4747C658.295 68.4542 658.868 68.3255 659.309 68.0885C659.766 67.8351 660.117 67.5287 660.363 67.1694C660.624 66.8097 660.814 66.444 660.931 66.0724L662.898 66.0151C662.85 66.5767 662.698 67.1334 662.442 67.6851C662.202 68.2363 661.849 68.7428 661.382 69.2046C660.931 69.6659 660.358 70.0428 659.662 70.3352C658.967 70.6275 658.131 70.788 657.155 70.8164ZM652.049 64.4824L652.002 62.8751L659.847 62.6465L662.964 63.348L662.988 64.1637L652.049 64.4824ZM659.847 62.6465C659.813 62.0553 659.678 61.523 659.44 61.0497C659.202 60.5604 658.862 60.1782 658.422 59.9029C657.997 59.6111 657.465 59.4745 656.825 59.4932L656.68 57.7927C658.007 57.754 659.134 57.9613 660.059 58.4145C660.985 58.8678 661.692 59.5195 662.181 60.3696C662.67 61.2197 662.931 62.2125 662.964 63.348L659.847 62.6465ZM667.978 62.0975C667.467 62.1124 667.007 61.9897 666.599 61.7295C666.207 61.4528 666.002 61.0186 665.985 60.4268C665.967 59.8031 666.208 59.2759 666.707 58.8451C667.222 58.3979 667.893 58.0583 668.718 57.8261C669.56 57.5775 670.444 57.4397 671.371 57.4127C672.907 57.3679 674.099 57.6453 674.949 58.2448C675.815 58.8439 676.258 59.7674 676.278 61.0153L673.34 60.6928C673.322 60.085 673.085 59.6357 672.628 59.3449C672.188 59.0536 671.567 58.9196 670.768 58.9429C670.256 58.9578 669.77 59.036 669.31 59.1775C668.849 59.3029 668.471 59.498 668.175 59.7628C667.878 60.0275 667.712 60.3845 667.678 60.8337L667.66 59.4176C668.237 59.4168 668.696 59.5235 669.038 59.7376C669.38 59.9357 669.55 60.2589 669.547 60.7072C669.542 61.1075 669.4 61.4398 669.119 61.7041C668.855 61.9519 668.474 62.083 667.978 62.0975ZM677.41 70.2022C676.275 70.2353 675.402 69.9566 674.793 69.3661C674.183 68.7596 673.862 67.8966 673.829 66.7771L673.81 66.1294L673.474 66.1391L673.38 62.9005L673.26 62.904L673.37 61.7243L673.34 60.6928L676.278 61.0153L676.452 66.9648C676.463 67.3486 676.568 67.6577 676.767 67.892C676.966 68.1263 677.249 68.2381 677.617 68.2274C677.985 68.2167 678.261 68.0886 678.446 67.8431C678.631 67.5976 678.718 67.2829 678.707 66.8991L678.603 63.3486L680.571 63.2913L680.668 66.6259C680.699 67.7134 680.436 68.5774 679.879 69.2179C679.337 69.842 678.514 70.1701 677.41 70.2022ZM669.469 70.4096C668.238 70.4455 667.221 70.179 666.421 69.61C665.636 69.0407 665.228 68.2362 665.198 67.1966C665.176 66.4449 665.318 65.8245 665.624 65.3354C665.946 64.8458 666.39 64.4487 666.958 64.1441C667.525 63.8234 668.181 63.5722 668.929 63.3904L671.025 62.8251C671.502 62.7151 671.914 62.5751 672.261 62.4049C672.608 62.2347 672.874 62.0109 673.058 61.7334C673.258 61.4555 673.352 61.1086 673.34 60.6928L673.476 62.8977L673.38 62.9005C673.245 63.2086 673.013 63.4715 672.683 63.6892C672.369 63.8904 671.965 64.0622 671.473 64.2046L670.615 64.4217C670.187 64.5622 669.8 64.7176 669.452 64.8877C669.121 65.0575 668.855 65.2653 668.654 65.5113C668.469 65.7567 668.383 66.0794 668.394 66.4792C668.411 67.039 668.623 67.465 669.032 67.7572C669.44 68.0334 669.98 68.1618 670.652 68.1422C671.147 68.1278 671.608 68.0103 672.034 67.7898C672.475 67.5528 672.825 67.1905 673.083 66.7028C673.34 66.1991 673.457 65.5394 673.433 64.7237L674.202 64.7494C674.241 66.0768 674.048 67.1549 673.624 67.9836C673.216 68.8118 672.65 69.4206 671.925 69.8098C671.199 70.1831 670.381 70.383 669.469 70.4096ZM687.981 69.9183C686.446 69.963 685.313 69.5318 684.582 68.6247C683.851 67.7016 683.502 66.4392 683.535 64.8376L683.609 59.121L680.322 59.2168L680.273 57.5375L681.065 57.5144C681.912 57.4897 682.573 57.3744 683.048 57.1685C683.521 56.9467 683.856 56.6248 684.052 56.2029C684.247 55.765 684.335 55.2102 684.316 54.5385L684.299 53.9867L686.315 53.928L686.651 65.4671C686.669 66.1069 686.836 66.6142 687.151 66.9892C687.466 67.3482 687.911 67.5193 688.487 67.5025C689.095 67.4848 689.537 67.2878 689.814 66.9116C690.091 66.5354 690.22 66.0194 690.201 65.3637L690.127 62.8208L692.118 62.7628L692.192 65.2817C692.232 66.6731 691.905 67.7871 691.209 68.6237C690.528 69.4439 689.452 69.8754 687.981 69.9183ZM686.463 59.0379L686.41 57.2146L692.264 57.0441L692.317 58.8673L686.463 59.0379Z" fill="white"/>
<path d="M736.231 61.0542L727.191 67.4692C727.118 67.5214 727.031 67.5527 726.941 67.5597C726.851 67.5666 726.76 67.549 726.679 67.5086C726.598 67.4683 726.53 67.4067 726.481 67.3306C726.433 67.2544 726.405 67.1664 726.403 67.076L725.991 52.95C725.989 52.8596 726.011 52.7702 726.055 52.6913C726.099 52.6124 726.164 52.5469 726.242 52.5019C726.321 52.4569 726.41 52.4341 726.5 52.4358C726.591 52.4374 726.679 52.4636 726.756 52.5115L736.154 58.3893L735.987 52.6587C735.984 52.5683 736.006 52.4789 736.05 52.4C736.095 52.3211 736.159 52.2557 736.238 52.2107C736.316 52.1657 736.406 52.1428 736.496 52.1445C736.586 52.1462 736.675 52.1724 736.751 52.2203L747.552 58.9746C747.621 59.0183 747.679 59.0785 747.72 59.1499C747.761 59.2213 747.784 59.3017 747.786 59.384C747.789 59.4662 747.771 59.5478 747.734 59.6215C747.697 59.6952 747.643 59.7586 747.576 59.8063L737.187 67.1779C737.113 67.2302 737.027 67.2615 736.937 67.2685C736.846 67.2754 736.756 67.2578 736.675 67.2174C736.594 67.1771 736.526 67.1155 736.477 67.0393C736.428 66.9631 736.401 66.8752 736.398 66.7848L736.231 61.0542Z" fill="white"/>
<path d="M809.011 65.6037L808.574 50.6101L811.981 50.5109L812.417 65.5045L809.011 65.6037ZM803.526 51.2374L803.439 48.2386L816.969 47.8444L817.056 50.8432L803.526 51.2374ZM819.935 65.2855L819.424 47.7729L822.759 47.6758L823.057 57.8954L822.481 57.9122C822.443 56.6008 822.578 55.4843 822.888 54.5629C823.197 53.6415 823.672 52.9314 824.314 52.4325C824.972 51.9331 825.813 51.6685 826.836 51.6387L826.98 51.6345C828.467 51.5912 829.61 52.0701 830.407 53.0713C831.205 54.0725 831.632 55.5487 831.689 57.4999L831.906 64.9367L828.571 65.0339L828.345 57.2851C828.321 56.4535 828.062 55.8048 827.568 55.3389C827.09 54.8727 826.468 54.6507 825.7 54.6731C824.884 54.6968 824.229 54.9881 823.733 55.5467C823.252 56.089 823.025 56.7919 823.05 57.6555L823.269 65.1883L819.935 65.2855ZM836.114 64.8141L835.735 51.7876L839.069 51.6905L839.449 64.7169L836.114 64.8141ZM833.984 54.3357L833.912 51.8407L839.069 51.6905L839.142 54.1854L833.984 54.3357ZM836.913 50.1926C836.257 50.2117 835.764 50.058 835.435 49.7315C835.121 49.3885 834.956 48.9611 834.941 48.4493C834.925 47.9055 835.064 47.4613 835.359 47.1166C835.669 46.7714 836.152 46.5893 836.807 46.5702C837.463 46.5511 837.948 46.705 838.261 47.032C838.575 47.359 838.74 47.7944 838.756 48.3382C838.77 48.85 838.631 49.2862 838.337 49.6469C838.043 49.9916 837.569 50.1735 836.913 50.1926ZM843.292 64.605L842.912 51.5785L845.551 51.5016L845.714 57.0912L845.474 57.0982C845.436 55.7708 845.579 54.6621 845.906 53.7723C846.231 52.8664 846.731 52.1795 847.406 51.7117C848.097 51.2434 848.962 50.9941 850.001 50.9638L850.145 50.9596C851.697 50.9144 852.887 51.3839 853.716 52.3682C854.545 53.3365 854.988 54.8122 855.045 56.7954L855.263 64.2562L851.928 64.3533L851.702 56.6046C851.679 55.805 851.428 55.164 850.95 54.6817C850.488 54.199 849.857 53.9693 849.057 53.9926C848.242 54.0163 847.585 54.2916 847.088 54.8182C846.607 55.3285 846.379 56.0074 846.404 56.8551L846.626 64.5078L843.292 64.605ZM867.964 63.8862L863.42 57.9199L861.477 57.9766L866.817 50.882L870.295 50.7807L865.372 57.3349L865.395 55.6535L871.73 63.7764L867.964 63.8862ZM858.848 64.1517L858.338 46.6392L861.672 46.542L862.182 64.0546L858.848 64.1517Z" fill="black"/>
<path d="M904.514 62.8213L904.004 45.3088L908.658 45.1732L913.353 55.5048L913.785 55.4922L917.846 44.9055L922.572 44.7678L923.082 62.2804L919.7 62.3789L919.264 47.4332L919.698 47.4686L915.302 58.9295L911.823 59.0309L906.743 47.8461L907.198 47.7848L907.633 62.7305L904.514 62.8213ZM927.763 62.144L927.383 49.1175L930.718 49.0204L931.097 62.0468L927.763 62.144ZM925.633 51.6656L925.56 49.1706L930.718 49.0204L930.791 51.5153L925.633 51.6656ZM928.561 47.5225C927.906 47.5416 927.413 47.3879 927.083 47.0614C926.769 46.7184 926.605 46.291 926.59 45.7792C926.574 45.2354 926.713 44.7912 927.007 44.4465C927.317 44.1013 927.8 43.9192 928.456 43.9001C929.112 43.881 929.596 44.0349 929.91 44.3619C930.224 44.6889 930.388 45.1243 930.404 45.6681C930.419 46.1799 930.28 46.6161 929.986 46.9768C929.692 47.3215 929.217 47.5034 928.561 47.5225ZM934.941 61.9349L934.561 48.9084L937.2 48.8315L937.363 54.4211L937.123 54.4281C937.084 53.1007 937.228 51.992 937.554 51.1022C937.88 50.1963 938.38 49.5094 939.055 49.0416C939.745 48.5733 940.611 48.324 941.65 48.2937L941.794 48.2895C943.345 48.2443 944.536 48.7138 945.365 49.6981C946.193 50.6664 946.636 52.1421 946.694 54.1253L946.911 61.5861L943.577 61.6833L943.351 53.9345C943.328 53.1349 943.077 52.4939 942.599 52.0116C942.137 51.5289 941.506 51.2992 940.706 51.3225C939.89 51.3462 939.234 51.6215 938.737 52.1482C938.256 52.6584 938.027 53.3373 938.052 54.185L938.275 61.8377L934.941 61.9349ZM956.163 61.4846C954.963 61.5196 953.967 61.3965 953.175 61.1155C952.398 60.818 951.807 60.307 951.401 59.5825C950.996 58.842 950.774 57.84 950.738 56.5765L950.418 44.7729L953.536 44.682L953.863 56.7016C953.881 57.3413 954.064 57.8322 954.41 58.1743C954.771 58.4999 955.272 58.6534 955.912 58.6347L957.951 58.5753L958.034 61.4301L956.163 61.4846ZM948.509 50.9511L948.438 48.5041L957.65 48.2357L957.721 50.6827L948.509 50.9511Z" fill="black"/>
<path d="M997.464 60.5694C995.913 60.6146 994.594 60.4049 993.508 59.9404C992.438 59.4753 991.611 58.8191 991.026 57.9718C990.44 57.1085 990.132 56.1251 990.099 55.0215L993.434 54.9244C993.448 55.3882 993.589 55.8403 993.858 56.2806C994.126 56.705 994.544 57.0449 995.112 57.3005C995.696 57.5556 996.451 57.6697 997.379 57.6427C998.21 57.6184 998.903 57.4782 999.455 57.222C1000.01 56.9658 1000.41 56.6418 1000.68 56.25C1000.94 55.8423 1001.06 55.3905 1001.04 54.8947C1001.03 54.271 1000.75 53.7829 1000.21 53.4304C999.67 53.062 998.848 52.8458 997.741 52.782L996.203 52.7068C994.519 52.6118 993.161 52.1312 992.127 51.2649C991.109 50.3822 990.578 49.1971 990.535 47.7098C990.502 46.5902 990.738 45.623 991.242 44.8079C991.746 43.9769 992.464 43.3317 993.395 42.8724C994.342 42.3966 995.455 42.1401 996.734 42.1028C998.061 42.0642 999.212 42.2628 1000.18 42.6986C1001.16 43.1344 1001.92 43.7685 1002.47 44.6008C1003.03 45.417 1003.32 46.3929 1003.35 47.5284L1000.02 47.6256C1000 47.1458 999.869 46.7095 999.618 46.3166C999.382 45.9073 999.029 45.5895 998.558 45.3631C998.102 45.1203 997.523 45.0091 996.819 45.0296C996.148 45.0492 995.591 45.1774 995.15 45.4144C994.708 45.6513 994.381 45.965 994.169 46.3553C993.956 46.7457 993.856 47.1648 993.869 47.6126C993.885 48.1564 994.099 48.6303 994.511 49.0345C994.922 49.4227 995.561 49.6362 996.426 49.675L997.966 49.7742C999.216 49.8338 1000.32 50.0658 1001.28 50.4701C1002.23 50.8745 1002.98 51.437 1003.51 52.1578C1004.06 52.8781 1004.35 53.758 1004.38 54.7976C1004.41 55.9011 1004.15 56.8851 1003.6 57.7495C1003.05 58.5979 1002.24 59.2696 1001.19 59.7647C1000.14 60.2592 998.903 60.5275 997.464 60.5694ZM1013.22 60.1103C1012.1 60.1429 1011.11 59.9797 1010.25 59.6205C1009.41 59.2609 1008.7 58.7694 1008.12 58.146C1007.56 57.5061 1007.12 56.7905 1006.81 55.9993C1006.52 55.2075 1006.36 54.3958 1006.33 53.5642L1006.32 53.1084C1006.29 52.2448 1006.41 51.4091 1006.65 50.6016C1006.92 49.7775 1007.31 49.0457 1007.84 48.4061C1008.38 47.7501 1009.05 47.2263 1009.86 46.8347C1010.66 46.4271 1011.6 46.2077 1012.67 46.1764C1014.08 46.1354 1015.26 46.4131 1016.23 47.0093C1017.2 47.5891 1017.95 48.3758 1018.45 49.3694C1018.96 50.347 1019.23 51.4115 1019.27 52.563L1019.3 53.7625L1007.76 54.0987L1007.7 52.0596L1017.16 51.7842L1016.15 52.8218C1016.13 51.9902 1015.99 51.282 1015.73 50.6972C1015.48 50.1125 1015.09 49.6674 1014.59 49.3619C1014.1 49.0561 1013.49 48.9138 1012.75 48.9353C1012.02 48.9567 1011.4 49.1428 1010.9 49.4936C1010.39 49.8443 1010.02 50.3435 1009.76 50.9912C1009.52 51.6224 1009.42 52.3778 1009.44 53.2574C1009.47 54.0731 1009.62 54.797 1009.89 55.4293C1010.17 56.0456 1010.57 56.53 1011.11 56.8824C1011.65 57.2189 1012.33 57.3753 1013.14 57.3515C1013.96 57.3277 1014.62 57.1485 1015.12 56.8137C1015.62 56.4629 1015.94 56.0455 1016.07 55.5616L1019.14 55.4721C1018.97 56.3733 1018.63 57.1677 1018.1 57.8552C1017.58 58.5428 1016.9 59.0828 1016.06 59.4754C1015.24 59.8675 1014.29 60.0791 1013.22 60.1103ZM1022.42 59.386L1021.91 41.8735L1025.25 41.7763L1025.76 59.2889L1022.42 59.386ZM1020.35 44.4159L1020.28 41.921L1025.25 41.7763L1025.32 44.2713L1020.35 44.4159ZM1029.73 59.1731L1029.22 41.6605L1032.56 41.5634L1033.07 59.0759L1029.73 59.1731ZM1027.66 44.203L1027.59 41.708L1032.56 41.5634L1032.63 44.0583L1027.66 44.203Z" fill="black"/>
<path d="M1066.04 58.6154L1066 56.9841L1068.13 56.9219L1067.75 43.7754L1065.66 43.8362L1065.61 42.2049L1070.96 42.0491L1071.39 56.8268L1073.58 56.7632L1073.63 58.3945L1066.04 58.6154ZM1079.46 58.4406C1078.6 58.4657 1077.88 58.3345 1077.31 58.047C1076.76 57.7429 1076.34 57.315 1076.05 56.7632C1075.76 56.2113 1075.58 55.5605 1075.49 54.8107L1075.36 53.7339C1075.27 52.7762 1075.01 52.1035 1074.58 51.7158C1074.16 51.3281 1073.53 51.1461 1072.72 51.1698L1071.23 51.2132L1071.22 50.7574L1074.91 50.6497C1076.24 50.5951 1077.18 50.8959 1077.72 51.5522C1078.29 52.1921 1078.6 53.1353 1078.67 54.3819L1078.71 55.0529C1078.76 55.4518 1078.86 55.7769 1079.03 56.0281C1079.2 56.2793 1079.49 56.3989 1079.91 56.3868C1080.32 56.3746 1080.61 56.2461 1080.78 56.0011C1080.95 55.74 1081.03 55.4016 1081.02 54.9858L1080.92 51.8191L1082.89 51.7618L1082.98 54.6406C1083.01 55.7441 1082.75 56.6481 1082.19 57.3526C1081.65 58.0406 1080.74 58.4033 1079.46 58.4406ZM1071.23 51.2132L1071.18 49.4379L1075.62 49.3086C1076.67 49.2779 1077.5 49.0217 1078.09 48.5402C1078.7 48.0583 1078.99 47.3455 1078.97 46.4019C1078.94 45.4583 1078.61 44.7717 1077.97 44.342C1077.35 43.8959 1076.51 43.6883 1075.45 43.719L1071.02 43.8483L1070.96 42.0491L1076.41 41.8904C1078.12 41.8406 1079.51 42.1683 1080.57 42.8737C1081.64 43.5627 1082.2 44.6428 1082.25 46.1142C1082.29 47.5696 1081.8 48.6883 1080.78 49.4702C1079.77 50.2362 1078.42 50.6437 1076.74 50.6926L1074.99 50.7436L1074.59 51.1153L1071.23 51.2132ZM1091.48 58.1624C1090.22 58.1992 1089.1 57.9837 1088.13 57.5158C1087.17 57.0315 1086.4 56.3175 1085.83 55.3738C1085.27 54.4136 1084.98 53.2298 1084.93 51.8223C1084.89 50.4309 1085.12 49.2478 1085.62 48.2728C1086.12 47.2818 1086.84 46.5247 1087.77 46.0014C1088.7 45.4621 1089.78 45.1746 1091.01 45.1387L1091.15 46.8392C1090.46 46.8592 1089.88 47.0444 1089.39 47.3947C1088.92 47.7285 1088.56 48.2433 1088.31 48.9389C1088.07 49.6181 1087.97 50.4854 1088 51.541C1088.04 52.8844 1088.41 53.9462 1089.1 54.7262C1089.81 55.4899 1090.75 55.8547 1091.92 55.8207C1092.62 55.8002 1093.19 55.6714 1093.64 55.4345C1094.09 55.1811 1094.44 54.8747 1094.69 54.5154C1094.95 54.1556 1095.14 53.79 1095.26 53.4184L1097.22 53.3611C1097.18 53.9227 1097.03 54.4794 1096.77 55.0311C1096.53 55.5823 1096.18 56.0888 1095.71 56.5506C1095.26 57.0119 1094.69 57.3888 1093.99 57.6811C1093.29 57.9735 1092.46 58.1339 1091.48 58.1624ZM1086.38 51.8284L1086.33 50.2211L1094.17 49.9925L1097.29 50.694L1097.32 51.5097L1086.38 51.8284ZM1094.17 49.9925C1094.14 49.4012 1094 48.869 1093.77 48.3957C1093.53 47.9064 1093.19 47.5241 1092.75 47.2488C1092.32 46.9571 1091.79 46.8205 1091.15 46.8392L1091.01 45.1387C1092.33 45.1 1093.46 45.3073 1094.39 45.7605C1095.31 46.2138 1096.02 46.8654 1096.51 47.7156C1097 48.5657 1097.26 49.5585 1097.29 50.694L1094.17 49.9925ZM1108.66 57.6378C1107.48 57.6722 1106.51 57.4445 1105.74 56.9547C1104.99 56.4643 1104.42 55.7445 1104.04 54.7951C1103.68 53.8453 1103.48 52.6827 1103.44 51.3073L1103.27 51.2882C1103.23 49.9448 1103.38 48.7879 1103.72 47.8176C1104.06 46.8313 1104.61 46.0711 1105.36 45.5369C1106.13 44.9863 1107.09 44.694 1108.26 44.66C1109.4 44.6269 1110.4 44.8537 1111.28 45.3403C1112.16 45.8269 1112.85 46.543 1113.36 47.4886C1113.87 48.4342 1114.14 49.6028 1114.18 50.9942C1114.22 52.3536 1114.02 53.5281 1113.57 54.5177C1113.12 55.4912 1112.47 56.2465 1111.62 56.7834C1110.77 57.3204 1109.78 57.6052 1108.66 57.6378ZM1107.52 55.6301C1108.23 55.6096 1108.83 55.4239 1109.33 55.0732C1109.84 54.7224 1110.21 54.2072 1110.46 53.5276C1110.73 52.8475 1110.85 52.0356 1110.83 51.092C1110.8 50.1164 1110.63 49.305 1110.32 48.6576C1110.03 47.9938 1109.63 47.5015 1109.1 47.1805C1108.58 46.8436 1107.97 46.6854 1107.26 46.7059C1106.56 46.7264 1105.95 46.9202 1105.43 47.2875C1104.92 47.6387 1104.52 48.1544 1104.25 48.8345C1103.98 49.4986 1103.86 50.3184 1103.89 51.294C1103.92 52.2376 1104.09 53.0411 1104.4 53.7044C1104.7 54.3677 1105.13 54.8596 1105.66 55.1801C1106.2 55.5006 1106.82 55.6506 1107.52 55.6301ZM1099.31 62.208L1099.27 60.6007L1101.19 60.5448L1100.78 46.7506L1098.98 46.8031L1098.94 45.1718L1103.64 45.0348L1103.76 49.3289L1103.6 51.2784L1104.14 53.904L1104.33 60.4532L1106.58 60.3875L1106.63 61.9949L1099.31 62.208ZM1122.96 57.2453C1121.69 57.2821 1120.58 57.0666 1119.6 56.5988C1118.64 56.1145 1117.88 55.4005 1117.31 54.4567C1116.75 53.4965 1116.45 52.3127 1116.41 50.9053C1116.37 49.5139 1116.6 48.3307 1117.1 47.3558C1117.6 46.3648 1118.31 45.6077 1119.24 45.0844C1120.17 44.5451 1121.25 44.2575 1122.48 44.2217L1122.63 45.9221C1121.94 45.9422 1121.35 46.1273 1120.87 46.4776C1120.4 46.8115 1120.04 47.3262 1119.78 48.0219C1119.55 48.701 1119.44 49.5684 1119.48 50.6239C1119.51 51.9674 1119.88 53.0291 1120.58 53.8092C1121.29 54.5728 1122.23 54.9377 1123.39 54.9036C1124.1 54.8831 1124.67 54.7544 1125.11 54.5175C1125.57 54.264 1125.92 53.9577 1126.16 53.5984C1126.43 53.2386 1126.62 52.8729 1126.73 52.5014L1128.7 52.4441C1128.65 53.0057 1128.5 53.5623 1128.24 54.114C1128 54.6653 1127.65 55.1718 1127.18 55.6336C1126.73 56.0949 1126.16 56.4717 1125.46 56.7641C1124.77 57.0565 1123.93 57.2169 1122.96 57.2453ZM1117.85 50.9114L1117.8 49.304L1125.65 49.0755L1128.77 49.777L1128.79 50.5926L1117.85 50.9114ZM1125.65 49.0755C1125.62 48.4842 1125.48 47.9519 1125.24 47.4787C1125 46.9894 1124.66 46.6071 1124.22 46.3318C1123.8 46.0401 1123.27 45.9035 1122.63 45.9221L1122.48 44.2217C1123.81 44.183 1124.94 44.3903 1125.86 44.8435C1126.79 45.2967 1127.49 45.9484 1127.98 46.7985C1128.47 47.6487 1128.73 48.6415 1128.77 49.777L1125.65 49.0755ZM1133.78 48.5264C1133.27 48.5413 1132.81 48.4187 1132.4 48.1584C1132.01 47.8818 1131.8 47.4475 1131.79 46.8558C1131.77 46.232 1132.01 45.7048 1132.51 45.2741C1133.02 44.8269 1133.7 44.4872 1134.52 44.2551C1135.36 44.0065 1136.25 43.8687 1137.17 43.8416C1138.71 43.7969 1139.9 44.0743 1140.75 44.6738C1141.62 45.2728 1142.06 46.1963 1142.08 47.4443L1139.14 47.1217C1139.12 46.514 1138.89 46.0647 1138.43 45.7739C1137.99 45.4826 1137.37 45.3486 1136.57 45.3719C1136.06 45.3868 1135.57 45.465 1135.11 45.6064C1134.65 45.7319 1134.27 45.927 1133.98 46.1917C1133.68 46.4565 1133.51 46.8135 1133.48 47.2627L1133.46 45.8466C1134.04 45.8458 1134.5 45.9525 1134.84 46.1666C1135.18 46.3647 1135.35 46.6879 1135.35 47.1362C1135.34 47.5365 1135.2 47.8688 1134.92 48.133C1134.66 48.3809 1134.28 48.512 1133.78 48.5264ZM1143.21 56.6312C1142.08 56.6643 1141.2 56.3856 1140.6 55.7951C1139.99 55.1886 1139.66 54.3256 1139.63 53.206L1139.61 52.5583L1139.28 52.5681L1139.18 49.3295L1139.06 49.333L1139.17 48.1533L1139.14 47.1217L1142.08 47.4443L1142.25 53.3937C1142.27 53.7776 1142.37 54.0866 1142.57 54.321C1142.77 54.5553 1143.05 54.6671 1143.42 54.6563C1143.79 54.6456 1144.06 54.5175 1144.25 54.272C1144.43 54.0265 1144.52 53.7119 1144.51 53.328L1144.41 49.7775L1146.37 49.7202L1146.47 53.0548C1146.5 54.1424 1146.24 55.0064 1145.68 55.6469C1145.14 56.2709 1144.32 56.599 1143.21 56.6312ZM1135.27 56.8386C1134.04 56.8744 1133.02 56.6079 1132.22 56.039C1131.44 55.4696 1131.03 54.6651 1131 53.6256C1130.98 52.8739 1131.12 52.2535 1131.43 51.7644C1131.75 51.2748 1132.19 50.8777 1132.76 50.573C1133.33 50.2524 1133.98 50.0012 1134.73 49.8193L1136.83 49.254C1137.3 49.1441 1137.72 49.004 1138.06 48.8338C1138.41 48.6637 1138.68 48.4398 1138.86 48.1624C1139.06 47.8844 1139.15 47.5375 1139.14 47.1217L1139.28 49.3267L1139.18 49.3295C1139.05 49.6375 1138.81 49.9004 1138.49 50.1181C1138.17 50.3193 1137.77 50.4912 1137.28 50.6336L1136.42 50.8506C1135.99 50.9912 1135.6 51.1465 1135.25 51.3167C1134.92 51.4864 1134.66 51.6943 1134.46 51.9402C1134.27 52.1857 1134.18 52.5084 1134.2 52.9082C1134.21 53.468 1134.43 53.8939 1134.83 54.1862C1135.24 54.4624 1135.78 54.5907 1136.45 54.5712C1136.95 54.5567 1137.41 54.4392 1137.84 54.2187C1138.28 53.9818 1138.63 53.6195 1138.89 53.1317C1139.14 52.628 1139.26 51.9683 1139.24 51.1527L1140 51.1783C1140.04 52.5057 1139.85 53.5838 1139.43 54.4125C1139.02 55.2407 1138.45 55.8495 1137.73 56.2388C1137 56.6121 1136.18 56.812 1135.27 56.8386ZM1153.78 56.3472C1152.25 56.392 1151.11 55.9608 1150.38 55.0537C1149.65 54.1306 1149.3 52.8682 1149.34 51.2666L1149.41 45.55L1146.12 45.6457L1146.08 43.9665L1146.87 43.9434C1147.71 43.9187 1148.38 43.8034 1148.85 43.5975C1149.32 43.3756 1149.66 43.0537 1149.85 42.6318C1150.05 42.194 1150.14 41.6392 1150.12 40.9675L1150.1 40.4157L1152.12 40.357L1152.45 51.8961C1152.47 52.5358 1152.64 53.0432 1152.95 53.4182C1153.27 53.7771 1153.71 53.9483 1154.29 53.9315C1154.9 53.9138 1155.34 53.7168 1155.62 53.3406C1155.89 52.9643 1156.02 52.4484 1156 51.7926L1155.93 49.2497L1157.92 49.1917L1157.99 51.7106C1158.03 53.102 1157.71 54.2161 1157.01 55.0527C1156.33 55.8728 1155.25 56.3044 1153.78 56.3472ZM1152.27 45.4668L1152.21 43.6436L1158.07 43.473L1158.12 45.2963L1152.27 45.4668Z" fill="white"/>
<path d="M1202.03 47.4831L1192.99 53.8981C1192.92 53.9504 1192.83 53.9817 1192.74 53.9886C1192.65 53.9956 1192.56 53.9779 1192.48 53.9376C1192.4 53.8972 1192.33 53.8357 1192.28 53.7595C1192.23 53.6833 1192.21 53.5953 1192.21 53.5049L1191.79 39.3789C1191.79 39.2885 1191.81 39.1991 1191.86 39.1202C1191.9 39.0413 1191.97 38.9759 1192.04 38.9309C1192.12 38.8859 1192.21 38.863 1192.3 38.8647C1192.39 38.8664 1192.48 38.8926 1192.56 38.9405L1201.96 44.8183L1201.79 39.0877C1201.79 38.9973 1201.81 38.9079 1201.85 38.829C1201.9 38.7501 1201.96 38.6847 1202.04 38.6397C1202.12 38.5947 1202.21 38.5718 1202.3 38.5735C1202.39 38.5752 1202.48 38.6014 1202.55 38.6492L1213.35 45.4036C1213.42 45.4472 1213.48 45.5074 1213.52 45.5788C1213.56 45.6502 1213.59 45.7307 1213.59 45.8129C1213.59 45.8952 1213.57 45.9768 1213.54 46.0505C1213.5 46.1241 1213.45 46.1876 1213.38 46.2352L1202.99 53.6069C1202.92 53.6592 1202.83 53.6905 1202.74 53.6974C1202.65 53.7044 1202.56 53.6867 1202.48 53.6464C1202.4 53.606 1202.33 53.5445 1202.28 53.4683C1202.23 53.3921 1202.2 53.3041 1202.2 53.2137L1202.03 47.4831Z" fill="white"/>
<path d="M1274.81 52.0327L1274.38 37.0391L1277.78 36.9398L1278.22 51.9334L1274.81 52.0327ZM1269.33 37.6663L1269.24 34.6676L1282.77 34.2734L1282.86 37.2721L1269.33 37.6663ZM1285.74 51.7144L1285.23 34.2019L1288.56 34.1047L1288.86 44.3244L1288.28 44.3411C1288.25 43.0297 1288.38 41.9133 1288.69 40.9919C1289 40.0705 1289.47 39.3603 1290.12 38.8614C1290.77 38.3621 1291.61 38.0975 1292.64 38.0677L1292.78 38.0635C1294.27 38.0201 1295.41 38.4991 1296.21 39.5003C1297.01 40.5015 1297.43 41.9776 1297.49 43.9288L1297.71 51.3657L1294.37 51.4628L1294.15 43.7141C1294.12 42.8825 1293.86 42.2337 1293.37 41.7679C1292.89 41.3016 1292.27 41.0797 1291.5 41.102C1290.69 41.1258 1290.03 41.417 1289.53 41.9757C1289.05 42.5179 1288.83 43.2208 1288.85 44.0845L1289.07 51.6173L1285.74 51.7144ZM1301.92 51.243L1301.54 38.2166L1304.87 38.1194L1305.25 51.1459L1301.92 51.243ZM1299.79 40.7646L1299.71 38.2697L1304.87 38.1194L1304.94 40.6144L1299.79 40.7646ZM1302.72 36.6216C1302.06 36.6407 1301.57 36.487 1301.24 36.1604C1300.92 35.8174 1300.76 35.39 1300.74 34.8783C1300.73 34.3345 1300.87 33.8903 1301.16 33.5455C1301.47 33.2004 1301.95 33.0182 1302.61 32.9991C1303.27 32.98 1303.75 33.134 1304.06 33.461C1304.38 33.788 1304.54 34.2234 1304.56 34.7671C1304.57 35.2789 1304.43 35.7152 1304.14 36.0759C1303.85 36.4206 1303.37 36.6025 1302.72 36.6216ZM1309.09 51.0339L1308.71 38.0074L1311.35 37.9306L1311.52 43.5202L1311.28 43.5272C1311.24 42.1997 1311.38 41.0911 1311.71 40.2012C1312.03 39.2953 1312.53 38.6085 1313.21 38.1406C1313.9 37.6723 1314.76 37.423 1315.8 37.3927L1315.95 37.3885C1317.5 37.3433 1318.69 37.8129 1319.52 38.7972C1320.35 39.7654 1320.79 41.2412 1320.85 43.2243L1321.07 50.6852L1317.73 50.7823L1317.5 43.0336C1317.48 42.2339 1317.23 41.593 1316.75 41.1107C1316.29 40.6279 1315.66 40.3982 1314.86 40.4215C1314.04 40.4453 1313.39 40.7205 1312.89 41.2472C1312.41 41.7574 1312.18 42.4364 1312.21 43.284L1312.43 50.9368L1309.09 51.0339ZM1333.77 50.3151L1329.22 44.3489L1327.28 44.4055L1332.62 37.311L1336.1 37.2097L1331.17 43.7638L1331.2 42.0824L1337.53 50.2054L1333.77 50.3151ZM1324.65 50.5807L1324.14 33.0681L1327.47 32.971L1327.98 50.4836L1324.65 50.5807Z" fill="black"/>
<path d="M1370.32 49.2503L1369.81 31.7377L1374.46 31.6021L1379.16 41.9338L1379.59 41.9212L1383.65 31.3344L1388.37 31.1967L1388.88 48.7093L1385.5 48.8079L1385.07 33.8622L1385.5 33.8976L1381.1 45.3585L1377.63 45.4598L1372.55 34.275L1373 34.2138L1373.44 49.1594L1370.32 49.2503ZM1393.57 48.5729L1393.19 35.5465L1396.52 35.4493L1396.9 48.4758L1393.57 48.5729ZM1391.44 38.0945L1391.36 35.5996L1396.52 35.4493L1396.59 37.9443L1391.44 38.0945ZM1394.36 33.9515C1393.71 33.9706 1393.22 33.8169 1392.89 33.4903C1392.57 33.1473 1392.41 32.7199 1392.39 32.2082C1392.38 31.6644 1392.52 31.2202 1392.81 30.8754C1393.12 30.5303 1393.6 30.3481 1394.26 30.329C1394.91 30.3099 1395.4 30.4639 1395.71 30.7909C1396.03 31.1179 1396.19 31.5533 1396.21 32.097C1396.22 32.6088 1396.08 33.0451 1395.79 33.4058C1395.49 33.7505 1395.02 33.9324 1394.36 33.9515ZM1400.74 48.3638L1400.36 35.3374L1403 35.2605L1403.17 40.8501L1402.93 40.8571C1402.89 39.5296 1403.03 38.421 1403.36 37.5311C1403.68 36.6252 1404.18 35.9384 1404.86 35.4705C1405.55 35.0022 1406.41 34.7529 1407.45 34.7226L1407.6 34.7184C1409.15 34.6732 1410.34 35.1428 1411.17 36.1271C1412 37.0953 1412.44 38.5711 1412.5 40.5542L1412.71 48.0151L1409.38 48.1122L1409.15 40.3635C1409.13 39.5638 1408.88 38.9229 1408.4 38.4406C1407.94 37.9578 1407.31 37.7281 1406.51 37.7514C1405.69 37.7752 1405.04 38.0504 1404.54 38.5771C1404.06 39.0873 1403.83 39.7663 1403.85 40.6139L1404.08 48.2667L1400.74 48.3638ZM1421.97 47.9136C1420.77 47.9485 1419.77 47.8255 1418.98 47.5444C1418.2 47.2469 1417.61 46.7359 1417.2 46.0114C1416.8 45.2709 1416.58 44.269 1416.54 43.0055L1416.22 31.2018L1419.34 31.1109L1419.66 43.1305C1419.68 43.7703 1419.87 44.2612 1420.21 44.6032C1420.57 44.9288 1421.07 45.0823 1421.71 45.0637L1423.75 45.0043L1423.84 47.8591L1421.97 47.9136ZM1414.31 37.38L1414.24 34.9331L1423.45 34.6647L1423.52 37.1116L1414.31 37.38Z" fill="black"/>
</svg>
