<svg width="148" height="148" viewBox="0 0 148 148" fill="none" xmlns="http://www.w3.org/2000/svg">
<path d="M97.2962 141.266V129.677C97.2962 128.697 97.6858 127.757 98.3793 127.063C99.0728 126.37 100.013 125.98 100.994 125.98H115.644C118.076 125.973 120.406 125.004 122.125 123.284C123.844 121.565 124.812 119.235 124.818 116.804V99.2656C124.818 95.175 126.431 91.8609 130.107 91.8609C135.955 91.8609 139.517 86.7969 135.031 80.2289L121.946 58.5508C121.944 44.8077 116.482 31.628 106.761 21.9107C97.0397 12.1934 83.8555 6.73437 70.1084 6.73438C41.4819 6.73438 14.7153 30.0969 14.7153 58.6875C14.7153 95.3773 39.1843 102.941 39.1843 125.144V141.266" stroke="#EBEBEB" stroke-opacity="0.5" stroke-width="2" stroke-linejoin="round"/>
<path d="M87.433 61.772C87.433 61.772 96.6123 67.886 105.786 61.772" stroke="#EBEBEB" stroke-opacity="0.5" stroke-width="2" stroke-linejoin="round"/>
<path d="M146 48.1939V88.5811C146 104.83 113.542 118 73.5014 118C57.1815 118 42.1144 115.804 30 112.115V71.7334C42.1144 75.428 57.1815 77.6183 73.5014 77.6183C94.2807 77.6183 113.018 74.072 126.236 68.3903C138.489 63.1202 146 56.0112 146 48.1939ZM146 48.1939C146 41.0245 139.377 35.0188 129.178 29.3535C126.31 27.7592 120.073 25.3993 115 23.5847" stroke="#F46E35" stroke-width="4" stroke-linejoin="round"/>
<path d="M2 48.1298V88.1646C2 93.9981 6.25314 99.4344 13.5694 104V63.9652C6.24763 59.405 2 53.9633 2 48.1298ZM2 48.1298C2 40.8653 8.59278 34.2179 19.5 29.1116" stroke="#F46E35" stroke-width="4" stroke-linejoin="round"/>
</svg>
