<svg width="148" height="148" viewBox="0 0 148 148" fill="none" xmlns="http://www.w3.org/2000/svg">
<path d="M136 112.948V128.519C136 131.681 134.741 134.713 132.499 136.949C130.257 139.185 127.216 140.441 124.045 140.441H20.9546C17.784 140.441 14.7434 139.185 12.5014 136.949C10.2595 134.713 9 131.681 9 128.519V57.3641C9 54.202 10.2595 51.1694 12.5014 48.9335C14.7434 46.6976 17.784 45.4414 20.9546 45.4414H124.045C127.216 45.4414 130.257 46.6976 132.499 48.9335C134.741 51.1694 136 54.202 136 57.3641V72.4105" stroke="#EBEBEB" stroke-opacity="0.5" stroke-width="2" stroke-linejoin="round"/>
<path d="M109.004 112.441C105.821 112.441 102.767 111.183 100.516 108.944C98.2647 106.705 97 103.667 97 100.5V85.3826C97 82.2156 98.2647 79.1783 100.516 76.9389C102.767 74.6995 105.821 73.4414 109.004 73.4414L142 73.4414V112.441H109.004Z" stroke="#EBEBEB" stroke-opacity="0.5" stroke-width="2" stroke-linecap="round" stroke-linejoin="round"/>
<path d="M118.13 55.3863C118.13 64.5606 115.439 73.5289 110.397 81.1571C105.356 88.7853 98.1899 94.7308 89.8061 98.2417C81.4222 101.753 72.1969 102.671 63.2966 100.881C54.3964 99.0914 46.221 94.6736 39.8042 88.1863C33.3875 81.6991 29.0177 73.4339 27.2473 64.4358C25.4769 55.4378 26.3855 46.111 29.8582 37.635C33.3309 29.159 39.2117 21.9145 46.757 16.8175C54.3023 11.7205 63.1731 9 72.2477 9C84.4164 9 96.0867 13.887 104.691 22.5862C113.296 31.2853 118.13 43.0838 118.13 55.3863Z" stroke="#F46E35" stroke-width="4" stroke-miterlimit="10"/>
<path d="M71.7435 33.2014V77.5709" stroke="#F46E35" stroke-width="4" stroke-miterlimit="10"/>
<path d="M95.9451 55.3862H48.5504" stroke="#F46E35" stroke-width="4" stroke-miterlimit="10"/>
</svg>
