<svg width="148" height="148" viewBox="0 0 148 148" fill="none" xmlns="http://www.w3.org/2000/svg">
<g clip-path="url(#clip0_679_73)">
<path d="M113.674 79.2677L125.029 80.2537L128.01 68.78L117.638 63.9396C117.638 62.4456 117.847 60.9517 117.847 59.3979C117.852 57.9313 117.782 56.4653 117.638 55.0057L128.099 50.1653L126.549 44.4285L125.029 38.6917L113.645 39.7076C112.414 36.9857 110.917 34.3933 109.174 31.9688L115.731 22.5868L107.356 14.3102L98.0278 20.8538C95.6084 19.1085 93.0228 17.6073 90.3089 16.3719L91.2924 4.98792L79.848 2L75.0199 12.398C72.0472 12.0972 69.0518 12.0972 66.0791 12.398L61.251 2L55.5288 3.55369L49.8066 5.07756L50.82 16.4914C48.105 17.7249 45.5193 19.2262 43.101 20.9733L33.8621 14.3102L25.4874 22.7063L32.0143 32.0585C30.2843 34.4911 28.7875 37.0822 27.5438 39.7972L16.2187 38.8112L13 50.1653L23.3416 55.0057C23.0716 57.9875 23.0716 60.9877 23.3416 63.9695L13 68.78L14.5199 74.5168L16.0697 80.2537L27.4246 79.2377C28.6665 81.9537 30.1634 84.5449 31.8951 86.9765L25.1 96.3586L33.4746 104.755L39.1372 100.96" stroke="#EBEBEB" stroke-opacity="0.5" stroke-width="2" stroke-linejoin="round"/>
<circle cx="71.5" cy="60.5" r="19.5" stroke="#EBEBEB" stroke-opacity="0.5" stroke-width="2"/>
<path d="M82.4794 82.5151H89.0661C90.336 82.5597 91.5814 82.8777 92.7179 83.4474C93.8544 84.0171 94.8554 84.8252 95.6529 85.817H102.24C103.961 85.8973 105.59 86.6189 106.808 87.8403C108.027 89.0618 108.746 90.6951 108.826 92.4206H115.413C117.134 92.501 118.764 93.2225 119.982 94.444C121.2 95.6654 121.92 97.2987 122 99.0242V128.741C122 135.344 115.413 140.792 115.413 145.25V148.551" stroke="#F46E35" stroke-width="4" stroke-miterlimit="10"/>
<path d="M82.4794 99.0242V59.4025C82.4794 57.6511 81.7854 55.9714 80.5502 54.733C79.3149 53.4946 77.6395 52.7988 75.8926 52.7988C74.1457 52.7988 72.4703 53.4946 71.2351 54.733C69.9998 55.9714 69.3059 57.6511 69.3059 59.4025V105.628L64.8927 109.854L56.297 96.4818C51.0276 89.2178 43.1234 93.18 43.1234 96.4818C43.1234 96.4818 53.0036 125.142 54.5515 127.387C56.8568 131.019 66.1771 139.108 66.1771 141.948V148.551" stroke="#F46E35" stroke-width="4" stroke-miterlimit="10"/>
<path d="M95.653 85.8169V99.0242" stroke="#F46E35" stroke-width="4" stroke-miterlimit="10"/>
<path d="M108.827 92.4204V102.326" stroke="#F46E35" stroke-width="4" stroke-miterlimit="10"/>
</g>
<defs>
<clipPath id="clip0_679_73">
<rect width="148" height="148" fill="white"/>
</clipPath>
</defs>
</svg>
