<svg width="148" height="148" viewBox="0 0 148 148" fill="none" xmlns="http://www.w3.org/2000/svg">
<g clip-path="url(#clip0_679_109)">
<path d="M29 51L40.8162 97L58 74L75.1838 97L81.0919 74L87 51" stroke="#EBEBEB" stroke-opacity="0.5" stroke-width="2" stroke-linejoin="round"/>
<path d="M136 74C136 110.449 106.453 140 70 140C33.5474 140 4 110.449 4 74C4 37.551 33.551 8 70 8C106.449 8 136 37.551 136 74Z" stroke="#EBEBEB" stroke-opacity="0.5" stroke-width="2" stroke-linecap="round" stroke-linejoin="round"/>
<path d="M122.109 48.6829C127.977 34.8274 128.601 23.3095 122.594 17.3589C110.46 5.33776 75.8594 20.5898 45.3116 51.4253C14.7638 82.2607 -0.163141 117.003 11.9712 129.024C24.1056 141.045 58.7063 125.793 89.2541 94.9577C92.3178 91.8652 95.2243 88.7333 97.9622 85.5891" stroke="#F46E35" stroke-width="4"/>
<path d="M100 61.8622C100 60.4406 100.565 59.0773 101.57 58.0721C102.575 57.0669 103.938 56.5022 105.359 56.5022H110.315C111.019 56.5022 111.715 56.6409 112.366 56.9103C113.016 57.1796 113.606 57.5745 114.104 58.0723C114.601 58.57 114.996 59.1609 115.265 59.8112C115.534 60.4615 115.672 61.1584 115.672 61.8622C115.672 62.5658 115.534 63.2625 115.264 63.9125C114.995 64.5626 114.601 65.1532 114.103 65.6507C113.606 66.1482 113.015 66.5429 112.365 66.8121C111.715 67.0814 111.018 67.22 110.315 67.22" stroke="#F46E35" stroke-width="4" stroke-linejoin="round"/>
<path d="M100 72.58C100 74.0015 100.565 75.3649 101.57 76.3701C102.575 77.3752 103.938 77.94 105.359 77.94H110.315C111.019 77.94 111.715 77.8013 112.366 77.5319C113.016 77.2625 113.606 76.8677 114.104 76.3699C114.601 75.8722 114.996 75.2813 115.265 74.631C115.534 73.9807 115.672 73.2837 115.672 72.58C115.672 71.8762 115.534 71.1793 115.265 70.529C114.996 69.8787 114.601 69.2878 114.104 68.79C113.606 68.2923 113.016 67.8974 112.366 67.628C111.715 67.3586 111.019 67.22 110.315 67.22H105.368" stroke="#F46E35" stroke-width="4" stroke-linejoin="round"/>
<path d="M134.362 78.3181C133.302 78.3187 132.252 78.1082 131.272 77.6988C130.292 77.2894 129.402 76.689 128.652 75.9319C127.902 75.1748 127.307 74.276 126.901 73.2866C126.495 72.2973 126.286 71.2368 126.286 70.1659V64.1565C126.286 63.0854 126.495 62.0247 126.901 61.0351C127.307 60.0455 127.901 59.1464 128.651 58.389C129.401 57.6316 130.292 57.0308 131.271 56.6209C132.251 56.211 133.301 56 134.362 56V56C136.504 56 138.558 56.8593 140.072 58.389C141.587 59.9186 142.438 61.9933 142.438 64.1565V70.1659C142.438 71.2368 142.229 72.2973 141.823 73.2866C141.417 74.276 140.822 75.1748 140.072 75.9319C139.322 76.689 138.432 77.2894 137.452 77.6988C136.472 78.1082 135.422 78.3187 134.362 78.3181V78.3181Z" stroke="#F46E35" stroke-width="4" stroke-linecap="round" stroke-linejoin="round"/>
<rect x="119" y="76" width="4" height="4" fill="#F46E35"/>
</g>
<defs>
<clipPath id="clip0_679_109">
<rect width="148" height="148" fill="white"/>
</clipPath>
</defs>
</svg>
